<svg xmlns="http://www.w3.org/2000/svg" xmlns:xlink="http://www.w3.org/1999/xlink" version="1.1" class="marks" width="511" height="373" viewBox="0 0 511 373"><rect width="511" height="373" fill="white"/><g fill="none" stroke-miterlimit="10" transform="translate(48,56)"><g class="mark-group role-frame root" role="graphics-object" aria-roledescription="group mark container"><g transform="translate(0,0)"><path class="background" aria-hidden="true" d="M0,0h0v0h0Z"/><g><g class="mark-group role-column-title facet-title" role="graphics-object" aria-roledescription="group mark container"><g transform="translate(174,-26)"><path class="background" aria-hidden="true" d="M0,0h0v0h0Z"/><g><g class="mark-group role-title"><g transform="translate(0,-25)"><path class="background" aria-hidden="true" d="M0,0h0v0h0Z" pointer-events="none"/><g><g class="mark-text role-title-text" role="graphics-symbol" aria-roledescription="title" aria-label="Title text 'Fingerprint'" pointer-events="none"><text text-anchor="middle" transform="translate(0,12)" font-family="sans-serif" font-size="15px" font-weight="bold" fill="#000" opacity="1">Fingerprint</text></g></g><path class="foreground" aria-hidden="true" d="" pointer-events="none" display="none"/></g></g></g><path class="foreground" aria-hidden="true" d="" display="none"/></g></g><g class="mark-group role-row-header row_header" role="graphics-object" aria-roledescription="group mark container"><g transform="translate(-5,0)"><path class="background" aria-hidden="true" d="M0,0h0v250h0Z"/><g><g class="mark-group role-axis" role="graphics-symbol" aria-roledescription="axis" aria-label="Y-axis titled 'Average Precision' for a linear scale with values from 0.0 to 0.5"><g transform="translate(0.5,0.5)"><path class="background" aria-hidden="true" d="M0,0h0v0h0Z" pointer-events="none"/><g><g class="mark-rule role-axis-tick" pointer-events="none"><line transform="translate(0,250)" x2="-5" y2="0" stroke="#888" stroke-width="1" opacity="1"/><line transform="translate(0,200)" x2="-5" y2="0" stroke="#888" stroke-width="1" opacity="1"/><line transform="translate(0,150)" x2="-5" y2="0" stroke="#888" stroke-width="1" opacity="1"/><line transform="translate(0,100)" x2="-5" y2="0" stroke="#888" stroke-width="1" opacity="1"/><line transform="translate(0,50)" x2="-5" y2="0" stroke="#888" stroke-width="1" opacity="1"/><line transform="translate(0,0)" x2="-5" y2="0" stroke="#888" stroke-width="1" opacity="1"/></g><g class="mark-text role-axis-label" pointer-events="none"><text text-anchor="end" transform="translate(-7,253)" font-family="sans-serif" font-size="10px" fill="#000" opacity="1">0.0</text><text text-anchor="end" transform="translate(-7,203)" font-family="sans-serif" font-size="10px" fill="#000" opacity="1">0.1</text><text text-anchor="end" transform="translate(-7,153)" font-family="sans-serif" font-size="10px" fill="#000" opacity="1">0.2</text><text text-anchor="end" transform="translate(-7,103)" font-family="sans-serif" font-size="10px" fill="#000" opacity="1">0.3</text><text text-anchor="end" transform="translate(-7,52.999999999999986)" font-family="sans-serif" font-size="10px" fill="#000" opacity="1">0.4</text><text text-anchor="end" transform="translate(-7,3)" font-family="sans-serif" font-size="10px" fill="#000" opacity="1">0.5</text></g><g class="mark-rule role-axis-domain" pointer-events="none"><line transform="translate(0,250)" x2="0" y2="-250" stroke="#888" stroke-width="1" opacity="1"/></g><g class="mark-text role-axis-title" pointer-events="none"><text text-anchor="middle" transform="translate(-26.916666984558105,125) rotate(-90) translate(0,-2)" font-family="sans-serif" font-size="11px" font-weight="bold" fill="#000" opacity="1">Average Precision</text></g></g><path class="foreground" aria-hidden="true" d="" pointer-events="none" display="none"/></g></g></g><path class="foreground" aria-hidden="true" d="" display="none"/></g></g><g class="mark-group role-column-footer column_footer" role="graphics-object" aria-roledescription="group mark container"><g transform="translate(0,251)"><path class="background" aria-hidden="true" d="M0,0h350v0h-350Z"/><g><g class="mark-group role-axis" role="graphics-symbol" aria-roledescription="axis" aria-label="X-axis titled 'Training Set Size' for a linear scale with values from 0 to 160,000"><g transform="translate(0.5,0.5)"><path class="background" aria-hidden="true" d="M0,0h0v0h0Z" pointer-events="none"/><g><g class="mark-rule role-axis-tick" pointer-events="none"><line transform="translate(0,0)" x2="0" y2="5" stroke="#888" stroke-width="1" opacity="1"/><line transform="translate(44,0)" x2="0" y2="5" stroke="#888" stroke-width="1" opacity="1"/><line transform="translate(88,0)" x2="0" y2="5" stroke="#888" stroke-width="1" opacity="1"/><line transform="translate(131,0)" x2="0" y2="5" stroke="#888" stroke-width="1" opacity="1"/><line transform="translate(175,0)" x2="0" y2="5" stroke="#888" stroke-width="1" opacity="1"/><line transform="translate(219,0)" x2="0" y2="5" stroke="#888" stroke-width="1" opacity="1"/><line transform="translate(263,0)" x2="0" y2="5" stroke="#888" stroke-width="1" opacity="1"/><line transform="translate(306,0)" x2="0" y2="5" stroke="#888" stroke-width="1" opacity="1"/><line transform="translate(350,0)" x2="0" y2="5" stroke="#888" stroke-width="1" opacity="1"/></g><g class="mark-text role-axis-label" pointer-events="none"><text text-anchor="start" transform="translate(0,7) rotate(60) translate(0,3)" font-family="sans-serif" font-size="10px" fill="#000" opacity="1">0</text><text text-anchor="start" transform="translate(43.75,7) rotate(60) translate(0,3)" font-family="sans-serif" font-size="10px" fill="#000" opacity="1">20,000</text><text text-anchor="start" transform="translate(87.5,7) rotate(60) translate(0,3)" font-family="sans-serif" font-size="10px" fill="#000" opacity="1">40,000</text><text text-anchor="start" transform="translate(131.25,7) rotate(60) translate(0,3)" font-family="sans-serif" font-size="10px" fill="#000" opacity="1">60,000</text><text text-anchor="start" transform="translate(175,7) rotate(60) translate(0,3)" font-family="sans-serif" font-size="10px" fill="#000" opacity="1">80,000</text><text text-anchor="start" transform="translate(218.75,7) rotate(60) translate(0,3)" font-family="sans-serif" font-size="10px" fill="#000" opacity="1">100,000</text><text text-anchor="start" transform="translate(262.5,7) rotate(60) translate(0,3)" font-family="sans-serif" font-size="10px" fill="#000" opacity="1">120,000</text><text text-anchor="start" transform="translate(306.25,7) rotate(60) translate(0,3)" font-family="sans-serif" font-size="10px" fill="#000" opacity="1">140,000</text><text text-anchor="start" transform="translate(350,7) rotate(60) translate(0,3)" font-family="sans-serif" font-size="10px" fill="#000" opacity="1">160,000</text></g><g class="mark-rule role-axis-domain" pointer-events="none"><line transform="translate(0,0)" x2="350" y2="0" stroke="#888" stroke-width="1" opacity="1"/></g><g class="mark-text role-axis-title" pointer-events="none"><text text-anchor="middle" transform="translate(175,58.33901950163758)" font-family="sans-serif" font-size="11px" font-weight="bold" fill="#000" opacity="1">Training Set Size</text></g></g><path class="foreground" aria-hidden="true" d="" pointer-events="none" display="none"/></g></g></g><path class="foreground" aria-hidden="true" d="" display="none"/></g></g><g class="mark-group role-scope cell" role="graphics-object" aria-roledescription="group mark container"><g transform="translate(0,0)"><path class="background" aria-hidden="true" d="M0.5,0.5h350v250h-350Z" stroke="#ddd"/><g><g class="mark-group role-axis" role="graphics-symbol" aria-roledescription="axis" aria-label="X-axis for a linear scale with values from 0 to 160,000"><g transform="translate(0.5,250.5)"><path class="background" aria-hidden="true" d="M0,0h0v0h0Z" pointer-events="none"/><g><g class="mark-rule role-axis-grid" pointer-events="none"><line transform="translate(0,-250)" x2="0" y2="250" stroke="#ddd" stroke-width="1" opacity="1"/><line transform="translate(44,-250)" x2="0" y2="250" stroke="#ddd" stroke-width="1" opacity="1"/><line transform="translate(88,-250)" x2="0" y2="250" stroke="#ddd" stroke-width="1" opacity="1"/><line transform="translate(131,-250)" x2="0" y2="250" stroke="#ddd" stroke-width="1" opacity="1"/><line transform="translate(175,-250)" x2="0" y2="250" stroke="#ddd" stroke-width="1" opacity="1"/><line transform="translate(219,-250)" x2="0" y2="250" stroke="#ddd" stroke-width="1" opacity="1"/><line transform="translate(263,-250)" x2="0" y2="250" stroke="#ddd" stroke-width="1" opacity="1"/><line transform="translate(306,-250)" x2="0" y2="250" stroke="#ddd" stroke-width="1" opacity="1"/><line transform="translate(350,-250)" x2="0" y2="250" stroke="#ddd" stroke-width="1" opacity="1"/></g></g><path class="foreground" aria-hidden="true" d="" pointer-events="none" display="none"/></g></g><g class="mark-group role-axis" role="graphics-symbol" aria-roledescription="axis" aria-label="Y-axis for a linear scale with values from 0.0 to 0.5"><g transform="translate(0.5,0.5)"><path class="background" aria-hidden="true" d="M0,0h0v0h0Z" pointer-events="none"/><g><g class="mark-rule role-axis-grid" pointer-events="none"><line transform="translate(0,250)" x2="350" y2="0" stroke="#ddd" stroke-width="1" opacity="1"/><line transform="translate(0,200)" x2="350" y2="0" stroke="#ddd" stroke-width="1" opacity="1"/><line transform="translate(0,150)" x2="350" y2="0" stroke="#ddd" stroke-width="1" opacity="1"/><line transform="translate(0,100)" x2="350" y2="0" stroke="#ddd" stroke-width="1" opacity="1"/><line transform="translate(0,50)" x2="350" y2="0" stroke="#ddd" stroke-width="1" opacity="1"/><line transform="translate(0,0)" x2="350" y2="0" stroke="#ddd" stroke-width="1" opacity="1"/></g></g><path class="foreground" aria-hidden="true" d="" pointer-events="none" display="none"/></g></g><g class="mark-rule role-mark child_layer_0_marks" role="graphics-symbol" aria-roledescription="rule mark container"><line transform="translate(350,243.5)" x2="-350" y2="0" stroke="black" stroke-width="1" stroke-dasharray="10,10"/><line transform="translate(350,243.5)" x2="-350" y2="0" stroke="black" stroke-width="1" stroke-dasharray="10,10"/><line transform="translate(350,243.5)" x2="-350" y2="0" stroke="black" stroke-width="1" stroke-dasharray="10,10"/><line transform="translate(350,243.5)" x2="-350" y2="0" stroke="black" stroke-width="1" stroke-dasharray="10,10"/><line transform="translate(350,243.5)" x2="-350" y2="0" stroke="black" stroke-width="1" stroke-dasharray="10,10"/><line transform="translate(350,243.5)" x2="-350" y2="0" stroke="black" stroke-width="1" stroke-dasharray="10,10"/><line transform="translate(350,243.5)" x2="-350" y2="0" stroke="black" stroke-width="1" stroke-dasharray="10,10"/><line transform="translate(350,243.5)" x2="-350" y2="0" stroke="black" stroke-width="1" stroke-dasharray="10,10"/><line transform="translate(350,243.5)" x2="-350" y2="0" stroke="black" stroke-width="1" stroke-dasharray="10,10"/><line transform="translate(350,243.5)" x2="-350" y2="0" stroke="black" stroke-width="1" stroke-dasharray="10,10"/><line transform="translate(350,243.5)" x2="-350" y2="0" stroke="black" stroke-width="1" stroke-dasharray="10,10"/><line transform="translate(350,243.5)" x2="-350" y2="0" stroke="black" stroke-width="1" stroke-dasharray="10,10"/><line transform="translate(350,243.5)" x2="-350" y2="0" stroke="black" stroke-width="1" stroke-dasharray="10,10"/><line transform="translate(350,243.5)" x2="-350" y2="0" stroke="black" stroke-width="1" stroke-dasharray="10,10"/><line transform="translate(350,243.5)" x2="-350" y2="0" stroke="black" stroke-width="1" stroke-dasharray="10,10"/><line transform="translate(350,243.5)" x2="-350" y2="0" stroke="black" stroke-width="1" stroke-dasharray="10,10"/><line transform="translate(350,243.5)" x2="-350" y2="0" stroke="black" stroke-width="1" stroke-dasharray="10,10"/><line transform="translate(350,243.5)" x2="-350" y2="0" stroke="black" stroke-width="1" stroke-dasharray="10,10"/><line transform="translate(350,243.5)" x2="-350" y2="0" stroke="black" stroke-width="1" stroke-dasharray="10,10"/><line transform="translate(350,243.5)" x2="-350" y2="0" stroke="black" stroke-width="1" stroke-dasharray="10,10"/></g><g class="mark-rule role-mark child_layer_1_marks" role="graphics-symbol" aria-roledescription="rule mark container"><line transform="translate(0.65625,237.8512978713162)" x2="0" y2="-38.34105940638102" stroke="#4c78a8"/><line transform="translate(0.9099999999999999,207.80314397146222)" x2="0" y2="-50.73396869838973" stroke="#4c78a8"/><line transform="translate(1.2621875,219.75731663191667)" x2="0" y2="-59.776718972526794" stroke="#4c78a8"/><line transform="translate(1.75,207.25373566946243)" x2="0" y2="-61.63321967982998" stroke="#4c78a8"/><line transform="translate(2.428125,182.2694759948222)" x2="0" y2="-56.599845462313695" stroke="#4c78a8"/><line transform="translate(3.3665625,139.6174092538001)" x2="0" y2="-21.502009130151038" stroke="#4c78a8"/><line transform="translate(4.6703125,115.61982934843357)" x2="0" y2="-24.778627596356543" stroke="#4c78a8"/><line transform="translate(6.477187499999999,98.34115812870652)" x2="0" y2="-15.424433209961691" stroke="#4c78a8"/><line transform="translate(8.9840625,91.64228072598907)" x2="0" y2="-20.846322652192242" stroke="#4c78a8"/><line transform="translate(12.459999999999999,77.88826256465036)" x2="0" y2="-11.110876187834847" stroke="#4c78a8"/><line transform="translate(17.28125,68.83036168556578)" x2="0" y2="-13.763783157245193" stroke="#4c78a8"/><line transform="translate(23.96625,60.9354741342153)" x2="0" y2="-9.153361580971051" stroke="#4c78a8"/><line transform="translate(33.24125,52.85463574141519)" x2="0" y2="-4.686483348459831" stroke="#4c78a8"/><line transform="translate(46.1015625,47.84972782398753)" x2="0" y2="-10.356204622212736" stroke="#4c78a8"/><line transform="translate(63.940625000000004,36.4879042368787)" x2="0" y2="-4.0902061833436605" stroke="#4c78a8"/><line transform="translate(88.68125,35.077396508278625)" x2="0" y2="-8.02619685305142" stroke="#4c78a8"/><line transform="translate(122.994375,24.0449374363329)" x2="0" y2="-4.635183856643632" stroke="#4c78a8"/><line transform="translate(170.5834375,18.0320244886836)" x2="0" y2="-2.504262109802257" stroke="#4c78a8"/><line transform="translate(236.5846875,10.752627502088858)" x2="0" y2="-2.9030627686872377" stroke="#4c78a8"/><line transform="translate(328.125,6.653306852259205)" x2="0" y2="-3.4520422773065826" stroke="#4c78a8"/></g><g class="mark-group role-scope child_layer_2_pathgroup" role="graphics-object" aria-roledescription="group mark container"><g transform="translate(0,0)"><path class="background" aria-hidden="true" d="M0,0h350v250h-350Z"/><g><g class="mark-line role-mark child_layer_2_marks" role="graphics-symbol" aria-roledescription="line mark container"><path d="M0.65625,224.88454166690644L0.9099999999999999,186.6584970137994L1.2621875,196.86987106979015L1.75,182.13335070838653L2.428125,157.25910134924052L3.3665625,129.1920768221978L4.6703125,103.53724994845942L6.477187499999999,90.72836354850494L8.9840625,81.37730370419091L12.459999999999999,72.37182907157874L17.28125,61.99852658013505L23.96625,56.378699911427354L33.24125,50.51602092287491L46.1015625,42.690489730169034L63.940625000000004,34.44515078666138L88.68125,31.072430399866764L122.994375,21.72922712519082L170.5834375,16.78031627827789L236.5846875,9.301410113090046L328.125,4.927520681974523" stroke="#4c78a8" stroke-width="3"/></g></g><path class="foreground" aria-hidden="true" d="" display="none"/></g></g><g class="mark-symbol role-mark child_layer_3_marks" role="graphics-symbol" aria-roledescription="symbol mark container"><path transform="translate(0.65625,224.88454166690644)" d="M3.872983346207417,0A3.872983346207417,3.872983346207417,0,1,1,-3.872983346207417,0A3.872983346207417,3.872983346207417,0,1,1,3.872983346207417,0" fill="#4c78a8" stroke-width="2" opacity="0.7"/><path transform="translate(0.9099999999999999,186.6584970137994)" d="M3.872983346207417,0A3.872983346207417,3.872983346207417,0,1,1,-3.872983346207417,0A3.872983346207417,3.872983346207417,0,1,1,3.872983346207417,0" fill="#4c78a8" stroke-width="2" opacity="0.7"/><path transform="translate(1.2621875,196.86987106979015)" d="M3.872983346207417,0A3.872983346207417,3.872983346207417,0,1,1,-3.872983346207417,0A3.872983346207417,3.872983346207417,0,1,1,3.872983346207417,0" fill="#4c78a8" stroke-width="2" opacity="0.7"/><path transform="translate(1.75,182.13335070838653)" d="M3.872983346207417,0A3.872983346207417,3.872983346207417,0,1,1,-3.872983346207417,0A3.872983346207417,3.872983346207417,0,1,1,3.872983346207417,0" fill="#4c78a8" stroke-width="2" opacity="0.7"/><path transform="translate(2.428125,157.25910134924052)" d="M3.872983346207417,0A3.872983346207417,3.872983346207417,0,1,1,-3.872983346207417,0A3.872983346207417,3.872983346207417,0,1,1,3.872983346207417,0" fill="#4c78a8" stroke-width="2" opacity="0.7"/><path transform="translate(3.3665625,129.1920768221978)" d="M3.872983346207417,0A3.872983346207417,3.872983346207417,0,1,1,-3.872983346207417,0A3.872983346207417,3.872983346207417,0,1,1,3.872983346207417,0" fill="#4c78a8" stroke-width="2" opacity="0.7"/><path transform="translate(4.6703125,103.53724994845942)" d="M3.872983346207417,0A3.872983346207417,3.872983346207417,0,1,1,-3.872983346207417,0A3.872983346207417,3.872983346207417,0,1,1,3.872983346207417,0" fill="#4c78a8" stroke-width="2" opacity="0.7"/><path transform="translate(6.477187499999999,90.72836354850494)" d="M3.872983346207417,0A3.872983346207417,3.872983346207417,0,1,1,-3.872983346207417,0A3.872983346207417,3.872983346207417,0,1,1,3.872983346207417,0" fill="#4c78a8" stroke-width="2" opacity="0.7"/><path transform="translate(8.9840625,81.37730370419091)" d="M3.872983346207417,0A3.872983346207417,3.872983346207417,0,1,1,-3.872983346207417,0A3.872983346207417,3.872983346207417,0,1,1,3.872983346207417,0" fill="#4c78a8" stroke-width="2" opacity="0.7"/><path transform="translate(12.459999999999999,72.37182907157874)" d="M3.872983346207417,0A3.872983346207417,3.872983346207417,0,1,1,-3.872983346207417,0A3.872983346207417,3.872983346207417,0,1,1,3.872983346207417,0" fill="#4c78a8" stroke-width="2" opacity="0.7"/><path transform="translate(17.28125,61.99852658013505)" d="M3.872983346207417,0A3.872983346207417,3.872983346207417,0,1,1,-3.872983346207417,0A3.872983346207417,3.872983346207417,0,1,1,3.872983346207417,0" fill="#4c78a8" stroke-width="2" opacity="0.7"/><path transform="translate(23.96625,56.378699911427354)" d="M3.872983346207417,0A3.872983346207417,3.872983346207417,0,1,1,-3.872983346207417,0A3.872983346207417,3.872983346207417,0,1,1,3.872983346207417,0" fill="#4c78a8" stroke-width="2" opacity="0.7"/><path transform="translate(33.24125,50.51602092287491)" d="M3.872983346207417,0A3.872983346207417,3.872983346207417,0,1,1,-3.872983346207417,0A3.872983346207417,3.872983346207417,0,1,1,3.872983346207417,0" fill="#4c78a8" stroke-width="2" opacity="0.7"/><path transform="translate(46.1015625,42.690489730169034)" d="M3.872983346207417,0A3.872983346207417,3.872983346207417,0,1,1,-3.872983346207417,0A3.872983346207417,3.872983346207417,0,1,1,3.872983346207417,0" fill="#4c78a8" stroke-width="2" opacity="0.7"/><path transform="translate(63.940625000000004,34.44515078666138)" d="M3.872983346207417,0A3.872983346207417,3.872983346207417,0,1,1,-3.872983346207417,0A3.872983346207417,3.872983346207417,0,1,1,3.872983346207417,0" fill="#4c78a8" stroke-width="2" opacity="0.7"/><path transform="translate(88.68125,31.072430399866764)" d="M3.872983346207417,0A3.872983346207417,3.872983346207417,0,1,1,-3.872983346207417,0A3.872983346207417,3.872983346207417,0,1,1,3.872983346207417,0" fill="#4c78a8" stroke-width="2" opacity="0.7"/><path transform="translate(122.994375,21.72922712519082)" d="M3.872983346207417,0A3.872983346207417,3.872983346207417,0,1,1,-3.872983346207417,0A3.872983346207417,3.872983346207417,0,1,1,3.872983346207417,0" fill="#4c78a8" stroke-width="2" opacity="0.7"/><path transform="translate(170.5834375,16.78031627827789)" d="M3.872983346207417,0A3.872983346207417,3.872983346207417,0,1,1,-3.872983346207417,0A3.872983346207417,3.872983346207417,0,1,1,3.872983346207417,0" fill="#4c78a8" stroke-width="2" opacity="0.7"/><path transform="translate(236.5846875,9.301410113090046)" d="M3.872983346207417,0A3.872983346207417,3.872983346207417,0,1,1,-3.872983346207417,0A3.872983346207417,3.872983346207417,0,1,1,3.872983346207417,0" fill="#4c78a8" stroke-width="2" opacity="0.7"/><path transform="translate(328.125,4.927520681974523)" d="M3.872983346207417,0A3.872983346207417,3.872983346207417,0,1,1,-3.872983346207417,0A3.872983346207417,3.872983346207417,0,1,1,3.872983346207417,0" fill="#4c78a8" stroke-width="2" opacity="0.7"/></g><g class="mark-group role-title"><g transform="translate(175,-25)"><path class="background" aria-hidden="true" d="M0,0h0v0h0Z" pointer-events="none"/><g><g class="mark-text role-title-text" role="graphics-symbol" aria-roledescription="title" aria-label="Title text 'morgan'" pointer-events="none"><text text-anchor="middle" transform="translate(0,12)" font-family="sans-serif" font-size="15px" fill="#000" opacity="1">morgan</text></g></g><path class="foreground" aria-hidden="true" d="" pointer-events="none" display="none"/></g></g></g><path class="foreground" aria-hidden="true" d="" display="none"/></g></g><g class="mark-group role-legend" role="graphics-symbol" aria-roledescription="legend" aria-label="Symbol legend titled 'Estimator' for fill color and stroke color with 1 value: logreg0.1"><g transform="translate(394,0)"><path class="background" aria-hidden="true" d="M0,0h64v29h-64Z" pointer-events="none"/><g><g class="mark-group role-legend-entry"><g transform="translate(0,16)"><path class="background" aria-hidden="true" d="M0,0h0v0h0Z" pointer-events="none"/><g><g class="mark-group role-scope" role="graphics-object" aria-roledescription="group mark container"><g transform="translate(0,0)"><path class="background" aria-hidden="true" d="M0,0h63.54999923706055v12.5h-63.54999923706055Z" pointer-events="none" opacity="1"/><g><g class="mark-symbol role-legend-symbol" pointer-events="none"><path transform="translate(6,6)" d="M5,0A5,5,0,1,1,-5,0A5,5,0,1,1,5,0" fill="#4c78a8" stroke="#4c78a8" stroke-width="1.5" opacity="0.7"/></g><g class="mark-text role-legend-label" pointer-events="none"><text text-anchor="start" transform="translate(16,9)" font-family="sans-serif" font-size="10px" fill="#000" opacity="1">logreg0.1</text></g></g><path class="foreground" aria-hidden="true" d="" pointer-events="none" display="none"/></g></g></g><path class="foreground" aria-hidden="true" d="" pointer-events="none" display="none"/></g></g><g class="mark-text role-legend-title" pointer-events="none"><text text-anchor="start" transform="translate(0,9)" font-family="sans-serif" font-size="11px" font-weight="bold" fill="#000" opacity="1">Estimator</text></g></g><path class="foreground" aria-hidden="true" d="" pointer-events="none" display="none"/></g></g></g><path class="foreground" aria-hidden="true" d="" display="none"/></g></g></g></svg>