<svg xmlns="http://www.w3.org/2000/svg" xmlns:xlink="http://www.w3.org/1999/xlink" version="1.1" class="marks" width="722" height="395" viewBox="0 0 722 395"><rect width="722" height="395" fill="white"/><g fill="none" stroke-miterlimit="10" transform="translate(53,57)"><g class="mark-group role-frame root" role="graphics-object" aria-roledescription="group mark container"><g transform="translate(0,0)"><path class="background" aria-hidden="true" d="M0,0h0v0h0Z"/><g><g class="mark-group role-column-title column-title" role="graphics-object" aria-roledescription="group mark container"><g transform="translate(263,-31)"><path class="background" aria-hidden="true" d="M0,0h0v0h0Z"/><g><g class="mark-group role-title"><g transform="translate(0,-21)"><path class="background" aria-hidden="true" d="M0,0h0v0h0Z" pointer-events="none"/><g><g class="mark-text role-title-text" role="graphics-symbol" aria-roledescription="title" aria-label="Title text 'Training set size'" pointer-events="none"><text text-anchor="middle" transform="translate(0,9)" font-family="sans-serif" font-size="11px" font-weight="bold" fill="#000" opacity="1">Training set size</text></g></g><path class="foreground" aria-hidden="true" d="" pointer-events="none" display="none"/></g></g></g><path class="foreground" aria-hidden="true" d="" display="none"/></g></g><g class="mark-group role-row-header row_header" role="graphics-object" aria-roledescription="group mark container"><g transform="translate(-9,0)"><path class="background" aria-hidden="true" d="M0,0h0v300h0Z"/><g><g class="mark-group role-axis" role="graphics-symbol" aria-roledescription="axis" aria-label="Y-axis titled '% top 50,000 found' for a linear scale with values from 0 to 100"><g transform="translate(0.5,0.5)"><path class="background" aria-hidden="true" d="M0,0h0v0h0Z" pointer-events="none"/><g><g class="mark-rule role-axis-tick" pointer-events="none"><line transform="translate(0,300)" x2="-5" y2="0" stroke="#888" stroke-width="1" opacity="1"/><line transform="translate(0,270)" x2="-5" y2="0" stroke="#888" stroke-width="1" opacity="1"/><line transform="translate(0,240)" x2="-5" y2="0" stroke="#888" stroke-width="1" opacity="1"/><line transform="translate(0,210)" x2="-5" y2="0" stroke="#888" stroke-width="1" opacity="1"/><line transform="translate(0,180)" x2="-5" y2="0" stroke="#888" stroke-width="1" opacity="1"/><line transform="translate(0,150)" x2="-5" y2="0" stroke="#888" stroke-width="1" opacity="1"/><line transform="translate(0,120)" x2="-5" y2="0" stroke="#888" stroke-width="1" opacity="1"/><line transform="translate(0,90)" x2="-5" y2="0" stroke="#888" stroke-width="1" opacity="1"/><line transform="translate(0,60)" x2="-5" y2="0" stroke="#888" stroke-width="1" opacity="1"/><line transform="translate(0,30)" x2="-5" y2="0" stroke="#888" stroke-width="1" opacity="1"/><line transform="translate(0,0)" x2="-5" y2="0" stroke="#888" stroke-width="1" opacity="1"/></g><g class="mark-text role-axis-label" pointer-events="none"><text text-anchor="end" transform="translate(-7,303)" font-family="sans-serif" font-size="10px" fill="#000" opacity="1">0</text><text text-anchor="end" transform="translate(-7,273)" font-family="sans-serif" font-size="10px" fill="#000" opacity="1">10</text><text text-anchor="end" transform="translate(-7,243)" font-family="sans-serif" font-size="10px" fill="#000" opacity="1">20</text><text text-anchor="end" transform="translate(-7,213)" font-family="sans-serif" font-size="10px" fill="#000" opacity="1">30</text><text text-anchor="end" transform="translate(-7,183)" font-family="sans-serif" font-size="10px" fill="#000" opacity="1">40</text><text text-anchor="end" transform="translate(-7,153)" font-family="sans-serif" font-size="10px" fill="#000" opacity="1">50</text><text text-anchor="end" transform="translate(-7,123)" font-family="sans-serif" font-size="10px" fill="#000" opacity="1">60</text><text text-anchor="end" transform="translate(-7,93.00000000000001)" font-family="sans-serif" font-size="10px" fill="#000" opacity="1">70</text><text text-anchor="end" transform="translate(-7,62.999999999999986)" font-family="sans-serif" font-size="10px" fill="#000" opacity="1">80</text><text text-anchor="end" transform="translate(-7,32.99999999999999)" font-family="sans-serif" font-size="10px" fill="#000" opacity="1">90</text><text text-anchor="end" transform="translate(-7,3)" font-family="sans-serif" font-size="10px" fill="#000" opacity="1">100</text></g><g class="mark-rule role-axis-domain" pointer-events="none"><line transform="translate(0,300)" x2="0" y2="-300" stroke="#888" stroke-width="1" opacity="1"/></g><g class="mark-text role-axis-title" pointer-events="none"><text text-anchor="middle" transform="translate(-27.700000762939453,150) rotate(-90) translate(0,-2)" font-family="sans-serif" font-size="11px" font-weight="bold" fill="#000" opacity="1">% top 50,000 found</text></g></g><path class="foreground" aria-hidden="true" d="" pointer-events="none" display="none"/></g></g></g><path class="foreground" aria-hidden="true" d="" display="none"/></g></g><g class="mark-group role-column-header column_header" role="graphics-object" aria-roledescription="group mark container"><g transform="translate(0,-1)"><path class="background" aria-hidden="true" d="M0,0h150v0h-150Z"/><g><g class="mark-group role-title"><g transform="translate(75,-20)"><path class="background" aria-hidden="true" d="M0,0h0v0h0Z" pointer-events="none"/><g><g class="mark-text role-title-text" role="graphics-symbol" aria-roledescription="title" aria-label="Title text '400,000'" pointer-events="none"><text text-anchor="middle" transform="translate(0,8)" font-family="sans-serif" font-size="10px" fill="#000" opacity="1">400,000</text></g></g><path class="foreground" aria-hidden="true" d="" pointer-events="none" display="none"/></g></g></g><path class="foreground" aria-hidden="true" d="" display="none"/></g><g transform="translate(188,-1)"><path class="background" aria-hidden="true" d="M0,0h150v0h-150Z"/><g><g class="mark-group role-title"><g transform="translate(75,-20)"><path class="background" aria-hidden="true" d="M0,0h0v0h0Z" pointer-events="none"/><g><g class="mark-text role-title-text" role="graphics-symbol" aria-roledescription="title" aria-label="Title text '200,000'" pointer-events="none"><text text-anchor="middle" transform="translate(0,8)" font-family="sans-serif" font-size="10px" fill="#000" opacity="1">200,000</text></g></g><path class="foreground" aria-hidden="true" d="" pointer-events="none" display="none"/></g></g></g><path class="foreground" aria-hidden="true" d="" display="none"/></g><g transform="translate(376,-1)"><path class="background" aria-hidden="true" d="M0,0h150v0h-150Z"/><g><g class="mark-group role-title"><g transform="translate(75,-20)"><path class="background" aria-hidden="true" d="M0,0h0v0h0Z" pointer-events="none"/><g><g class="mark-text role-title-text" role="graphics-symbol" aria-roledescription="title" aria-label="Title text '100,000'" pointer-events="none"><text text-anchor="middle" transform="translate(0,8)" font-family="sans-serif" font-size="10px" fill="#000" opacity="1">100,000</text></g></g><path class="foreground" aria-hidden="true" d="" pointer-events="none" display="none"/></g></g></g><path class="foreground" aria-hidden="true" d="" display="none"/></g></g><g class="mark-group role-scope cell" role="graphics-object" aria-roledescription="group mark container"><g transform="translate(0,0)"><path class="background" aria-hidden="true" d="M0.5,0.5h150v300h-150Z" stroke="#ddd"/><g><g class="mark-group role-axis" role="graphics-symbol" aria-roledescription="axis" aria-label="X-axis for a linear scale with values from 0 to 28"><g transform="translate(0.5,300.5)"><path class="background" aria-hidden="true" d="M0,0h0v0h0Z" pointer-events="none"/><g><g class="mark-rule role-axis-grid" pointer-events="none"><line transform="translate(0,-300)" x2="0" y2="300" stroke="#ddd" stroke-width="1" opacity="1"/><line transform="translate(27,-300)" x2="0" y2="300" stroke="#ddd" stroke-width="1" opacity="1"/><line transform="translate(54,-300)" x2="0" y2="300" stroke="#ddd" stroke-width="1" opacity="1"/><line transform="translate(80,-300)" x2="0" y2="300" stroke="#ddd" stroke-width="1" opacity="1"/><line transform="translate(107,-300)" x2="0" y2="300" stroke="#ddd" stroke-width="1" opacity="1"/><line transform="translate(134,-300)" x2="0" y2="300" stroke="#ddd" stroke-width="1" opacity="1"/></g></g><path class="foreground" aria-hidden="true" d="" pointer-events="none" display="none"/></g></g><g class="mark-group role-axis" role="graphics-symbol" aria-roledescription="axis" aria-label="Y-axis for a linear scale with values from 0 to 100"><g transform="translate(0.5,0.5)"><path class="background" aria-hidden="true" d="M0,0h0v0h0Z" pointer-events="none"/><g><g class="mark-rule role-axis-grid" pointer-events="none"><line transform="translate(0,300)" x2="150" y2="0" stroke="#ddd" stroke-width="1" opacity="1"/><line transform="translate(0,270)" x2="150" y2="0" stroke="#ddd" stroke-width="1" opacity="1"/><line transform="translate(0,240)" x2="150" y2="0" stroke="#ddd" stroke-width="1" opacity="1"/><line transform="translate(0,210)" x2="150" y2="0" stroke="#ddd" stroke-width="1" opacity="1"/><line transform="translate(0,180)" x2="150" y2="0" stroke="#ddd" stroke-width="1" opacity="1"/><line transform="translate(0,150)" x2="150" y2="0" stroke="#ddd" stroke-width="1" opacity="1"/><line transform="translate(0,120)" x2="150" y2="0" stroke="#ddd" stroke-width="1" opacity="1"/><line transform="translate(0,90)" x2="150" y2="0" stroke="#ddd" stroke-width="1" opacity="1"/><line transform="translate(0,60)" x2="150" y2="0" stroke="#ddd" stroke-width="1" opacity="1"/><line transform="translate(0,30)" x2="150" y2="0" stroke="#ddd" stroke-width="1" opacity="1"/><line transform="translate(0,0)" x2="150" y2="0" stroke="#ddd" stroke-width="1" opacity="1"/></g></g><path class="foreground" aria-hidden="true" d="" pointer-events="none" display="none"/></g></g><g class="mark-group role-axis" role="graphics-symbol" aria-roledescription="axis" aria-label="X-axis titled 'Computation days (single CPU)' for a linear scale with values from 0 to 28"><g transform="translate(0.5,300.5)"><path class="background" aria-hidden="true" d="M0,0h0v0h0Z" pointer-events="none"/><g><g class="mark-rule role-axis-tick" pointer-events="none"><line transform="translate(0,0)" x2="0" y2="5" stroke="#888" stroke-width="1" opacity="1"/><line transform="translate(27,0)" x2="0" y2="5" stroke="#888" stroke-width="1" opacity="1"/><line transform="translate(54,0)" x2="0" y2="5" stroke="#888" stroke-width="1" opacity="1"/><line transform="translate(80,0)" x2="0" y2="5" stroke="#888" stroke-width="1" opacity="1"/><line transform="translate(107,0)" x2="0" y2="5" stroke="#888" stroke-width="1" opacity="1"/><line transform="translate(134,0)" x2="0" y2="5" stroke="#888" stroke-width="1" opacity="1"/></g><g class="mark-text role-axis-label" pointer-events="none"><text text-anchor="start" transform="translate(0,15)" font-family="sans-serif" font-size="10px" fill="#000" opacity="1">0</text><text text-anchor="middle" transform="translate(26.785714285714285,15)" font-family="sans-serif" font-size="10px" fill="#000" opacity="1">5</text><text text-anchor="middle" transform="translate(53.57142857142857,15)" font-family="sans-serif" font-size="10px" fill="#000" opacity="1">10</text><text text-anchor="middle" transform="translate(80.35714285714286,15)" font-family="sans-serif" font-size="10px" fill="#000" opacity="1">15</text><text text-anchor="middle" transform="translate(107.14285714285714,15)" font-family="sans-serif" font-size="10px" fill="#000" opacity="1">20</text><text text-anchor="middle" transform="translate(133.92857142857144,15)" font-family="sans-serif" font-size="10px" fill="#000" opacity="1">25</text></g><g class="mark-rule role-axis-domain" pointer-events="none"><line transform="translate(0,0)" x2="150" y2="0" stroke="#888" stroke-width="1" opacity="1"/></g><g class="mark-text role-axis-title" pointer-events="none"><text text-anchor="middle" transform="translate(75,30)" font-family="sans-serif" font-size="11px" font-weight="bold" fill="#000" opacity="1">Computation days (single CPU)</text></g></g><path class="foreground" aria-hidden="true" d="" pointer-events="none" display="none"/></g></g><g class="mark-rule role-mark child_layer_0_marks" role="graphics-symbol" aria-roledescription="rule mark container"><line transform="translate(24.801587301587304,298.78200000000004)" x2="0" y2="-0.18000000000006366" stroke="#4c78a8"/><line transform="translate(49.60317460317461,181.05599999999998)" x2="0" y2="-6.444000000000017" stroke="#4c78a8"/><line transform="translate(74.4047619047619,93.69600000000001)" x2="0" y2="-0.9120000000000061" stroke="#4c78a8"/><line transform="translate(99.20634920634922,56.022000000000006)" x2="0" y2="-0.1559999999999917" stroke="#4c78a8"/><line transform="translate(124.0079365079365,36.546000000000014)" x2="0" y2="-0.6060000000000088" stroke="#4c78a8"/><line transform="translate(148.8095238095238,25.51800000000004)" x2="0" y2="-0.5520000000000174" stroke="#4c78a8"/><line transform="translate(24.801587301587304,298.98315583007866)" x2="0" y2="-0.0929096195867487" stroke="#54a24b"/><line transform="translate(49.60317460317461,224.54706560451473)" x2="0" y2="-3.447979215774012" stroke="#54a24b"/><line transform="translate(74.4047619047619,175.58885772784365)" x2="0" y2="-4.764198826585897" stroke="#54a24b"/><line transform="translate(99.20634920634922,142.8846716333167)" x2="0" y2="-4.655804270401404" stroke="#54a24b"/><line transform="translate(124.0079365079365,121.30899330706625)" x2="0" y2="-2.8698749161232513" stroke="#54a24b"/><line transform="translate(148.8095238095238,106.75831455067876)" x2="0" y2="-2.260800743276974" stroke="#54a24b"/><line transform="translate(148.8095238095238,93.515892689767)" x2="0" y2="-15.431785379534048" stroke="#72b7b2"/><line transform="translate(148.8095238095238,81.04392845984466)" x2="0" y2="-10.28785691968936" stroke="#e45756"/><line transform="translate(148.8095238095238,44.75073961260196)" x2="0" y2="-16.901479225203992" stroke="#f58518"/></g><g class="mark-symbol role-mark child_layer_1_marks" role="graphics-symbol" aria-roledescription="symbol mark container"><path transform="translate(24.801587301587304,298.718)" d="M3.1622776601683795,0A3.1622776601683795,3.1622776601683795,0,1,1,-3.1622776601683795,0A3.1622776601683795,3.1622776601683795,0,1,1,3.1622776601683795,0" stroke="#4c78a8" stroke-width="2"/><path transform="translate(49.60317460317461,177.108)" d="M3.1622776601683795,0A3.1622776601683795,3.1622776601683795,0,1,1,-3.1622776601683795,0A3.1622776601683795,3.1622776601683795,0,1,1,3.1622776601683795,0" stroke="#4c78a8" stroke-width="2"/><path transform="translate(74.4047619047619,93.18199999999997)" d="M3.1622776601683795,0A3.1622776601683795,3.1622776601683795,0,1,1,-3.1622776601683795,0A3.1622776601683795,3.1622776601683795,0,1,1,3.1622776601683795,0" stroke="#4c78a8" stroke-width="2"/><path transform="translate(99.20634920634922,55.932000000000016)" d="M3.1622776601683795,0A3.1622776601683795,3.1622776601683795,0,1,1,-3.1622776601683795,0A3.1622776601683795,3.1622776601683795,0,1,1,3.1622776601683795,0" stroke="#4c78a8" stroke-width="2"/><path transform="translate(124.0079365079365,36.27400000000003)" d="M3.1622776601683795,0A3.1622776601683795,3.1622776601683795,0,1,1,-3.1622776601683795,0A3.1622776601683795,3.1622776601683795,0,1,1,3.1622776601683795,0" stroke="#4c78a8" stroke-width="2"/><path transform="translate(148.8095238095238,25.25400000000001)" d="M3.1622776601683795,0A3.1622776601683795,3.1622776601683795,0,1,1,-3.1622776601683795,0A3.1622776601683795,3.1622776601683795,0,1,1,3.1622776601683795,0" stroke="#4c78a8" stroke-width="2"/><path transform="translate(24.801587301587304,298.9453037628396)" d="M3.1622776601683795,0A3.1622776601683795,3.1622776601683795,0,1,1,-3.1622776601683795,0A3.1622776601683795,3.1622776601683795,0,1,1,3.1622776601683795,0" stroke="#54a24b" stroke-width="2"/><path transform="translate(49.60317460317461,222.75769515321485)" d="M3.1622776601683795,0A3.1622776601683795,3.1622776601683795,0,1,1,-3.1622776601683795,0A3.1622776601683795,3.1622776601683795,0,1,1,3.1622776601683795,0" stroke="#54a24b" stroke-width="2"/><path transform="translate(74.4047619047619,173.1680459730562)" d="M3.1622776601683795,0A3.1622776601683795,3.1622776601683795,0,1,1,-3.1622776601683795,0A3.1622776601683795,3.1622776601683795,0,1,1,3.1622776601683795,0" stroke="#54a24b" stroke-width="2"/><path transform="translate(99.20634920634922,139.98898848953044)" d="M3.1622776601683795,0A3.1622776601683795,3.1622776601683795,0,1,1,-3.1622776601683795,0A3.1622776601683795,3.1622776601683795,0,1,1,3.1622776601683795,0" stroke="#54a24b" stroke-width="2"/><path transform="translate(124.0079365079365,119.87061475198291)" d="M3.1622776601683795,0A3.1622776601683795,3.1622776601683795,0,1,1,-3.1622776601683795,0A3.1622776601683795,3.1622776601683795,0,1,1,3.1622776601683795,0" stroke="#54a24b" stroke-width="2"/><path transform="translate(148.8095238095238,105.57801827222515)" d="M3.1622776601683795,0A3.1622776601683795,3.1622776601683795,0,1,1,-3.1622776601683795,0A3.1622776601683795,3.1622776601683795,0,1,1,3.1622776601683795,0" stroke="#54a24b" stroke-width="2"/><path transform="translate(148.8095238095238,85.79999999999998)" d="M3.1622776601683795,0A3.1622776601683795,3.1622776601683795,0,1,1,-3.1622776601683795,0A3.1622776601683795,3.1622776601683795,0,1,1,3.1622776601683795,0" stroke="#72b7b2" stroke-width="2"/><path transform="translate(148.8095238095238,75.9)" d="M3.1622776601683795,0A3.1622776601683795,3.1622776601683795,0,1,1,-3.1622776601683795,0A3.1622776601683795,3.1622776601683795,0,1,1,3.1622776601683795,0" stroke="#e45756" stroke-width="2"/><path transform="translate(148.8095238095238,36.3)" d="M3.1622776601683795,0A3.1622776601683795,3.1622776601683795,0,1,1,-3.1622776601683795,0A3.1622776601683795,3.1622776601683795,0,1,1,3.1622776601683795,0" stroke="#f58518" stroke-width="2"/></g><g class="mark-group role-scope child_layer_2_pathgroup" role="graphics-object" aria-roledescription="group mark container"><g transform="translate(0,0)"><path class="background" aria-hidden="true" d="M0,0h150v300h-150Z"/><g><g class="mark-line role-mark child_layer_2_marks" role="graphics-symbol" aria-roledescription="line mark container"><path d="M24.801587301587304,298.718L49.60317460317461,177.108L74.4047619047619,93.18199999999997L99.20634920634922,55.932000000000016L124.0079365079365,36.27400000000003L148.8095238095238,25.25400000000001" stroke="#4c78a8" stroke-width="2" opacity="0.5"/></g></g><path class="foreground" aria-hidden="true" d="" display="none"/></g><g transform="translate(0,0)"><path class="background" aria-hidden="true" d="M0,0h150v300h-150Z"/><g><g class="mark-line role-mark child_layer_2_marks" role="graphics-symbol" aria-roledescription="line mark container"><path d="M24.801587301587304,298.9453037628396L49.60317460317461,222.75769515321485L74.4047619047619,173.1680459730562L99.20634920634922,139.98898848953044L124.0079365079365,119.87061475198291L148.8095238095238,105.57801827222515" stroke="#54a24b" stroke-width="2" opacity="0.5"/></g></g><path class="foreground" aria-hidden="true" d="" display="none"/></g><g transform="translate(0,0)"><path class="background" aria-hidden="true" d="M0,0h150v300h-150Z"/><g><g class="mark-line role-mark child_layer_2_marks" role="graphics-symbol" aria-roledescription="line mark container"><path d="M148.8095238095238,85.79999999999998Z" stroke="#72b7b2" stroke-width="2" opacity="0.5"/></g></g><path class="foreground" aria-hidden="true" d="" display="none"/></g><g transform="translate(0,0)"><path class="background" aria-hidden="true" d="M0,0h150v300h-150Z"/><g><g class="mark-line role-mark child_layer_2_marks" role="graphics-symbol" aria-roledescription="line mark container"><path d="M148.8095238095238,75.9Z" stroke="#e45756" stroke-width="2" opacity="0.5"/></g></g><path class="foreground" aria-hidden="true" d="" display="none"/></g><g transform="translate(0,0)"><path class="background" aria-hidden="true" d="M0,0h150v300h-150Z"/><g><g class="mark-line role-mark child_layer_2_marks" role="graphics-symbol" aria-roledescription="line mark container"><path d="M148.8095238095238,36.3Z" stroke="#f58518" stroke-width="2" opacity="0.5"/></g></g><path class="foreground" aria-hidden="true" d="" display="none"/></g></g></g><path class="foreground" aria-hidden="true" d="" display="none"/></g><g transform="translate(188,0)"><path class="background" aria-hidden="true" d="M0.5,0.5h150v300h-150Z" stroke="#ddd"/><g><g class="mark-group role-axis" role="graphics-symbol" aria-roledescription="axis" aria-label="X-axis for a linear scale with values from 0 to 14"><g transform="translate(0.5,300.5)"><path class="background" aria-hidden="true" d="M0,0h0v0h0Z" pointer-events="none"/><g><g class="mark-rule role-axis-grid" pointer-events="none"><line transform="translate(0,-300)" x2="0" y2="300" stroke="#ddd" stroke-width="1" opacity="1"/><line transform="translate(54,-300)" x2="0" y2="300" stroke="#ddd" stroke-width="1" opacity="1"/><line transform="translate(107,-300)" x2="0" y2="300" stroke="#ddd" stroke-width="1" opacity="1"/></g></g><path class="foreground" aria-hidden="true" d="" pointer-events="none" display="none"/></g></g><g class="mark-group role-axis" role="graphics-symbol" aria-roledescription="axis" aria-label="Y-axis for a linear scale with values from 0 to 100"><g transform="translate(0.5,0.5)"><path class="background" aria-hidden="true" d="M0,0h0v0h0Z" pointer-events="none"/><g><g class="mark-rule role-axis-grid" pointer-events="none"><line transform="translate(0,300)" x2="150" y2="0" stroke="#ddd" stroke-width="1" opacity="1"/><line transform="translate(0,270)" x2="150" y2="0" stroke="#ddd" stroke-width="1" opacity="1"/><line transform="translate(0,240)" x2="150" y2="0" stroke="#ddd" stroke-width="1" opacity="1"/><line transform="translate(0,210)" x2="150" y2="0" stroke="#ddd" stroke-width="1" opacity="1"/><line transform="translate(0,180)" x2="150" y2="0" stroke="#ddd" stroke-width="1" opacity="1"/><line transform="translate(0,150)" x2="150" y2="0" stroke="#ddd" stroke-width="1" opacity="1"/><line transform="translate(0,120)" x2="150" y2="0" stroke="#ddd" stroke-width="1" opacity="1"/><line transform="translate(0,90)" x2="150" y2="0" stroke="#ddd" stroke-width="1" opacity="1"/><line transform="translate(0,60)" x2="150" y2="0" stroke="#ddd" stroke-width="1" opacity="1"/><line transform="translate(0,30)" x2="150" y2="0" stroke="#ddd" stroke-width="1" opacity="1"/><line transform="translate(0,0)" x2="150" y2="0" stroke="#ddd" stroke-width="1" opacity="1"/></g></g><path class="foreground" aria-hidden="true" d="" pointer-events="none" display="none"/></g></g><g class="mark-group role-axis" role="graphics-symbol" aria-roledescription="axis" aria-label="X-axis titled 'Computation days (single CPU)' for a linear scale with values from 0 to 14"><g transform="translate(0.5,300.5)"><path class="background" aria-hidden="true" d="M0,0h0v0h0Z" pointer-events="none"/><g><g class="mark-rule role-axis-tick" pointer-events="none"><line transform="translate(0,0)" x2="0" y2="5" stroke="#888" stroke-width="1" opacity="1"/><line transform="translate(54,0)" x2="0" y2="5" stroke="#888" stroke-width="1" opacity="1"/><line transform="translate(107,0)" x2="0" y2="5" stroke="#888" stroke-width="1" opacity="1"/></g><g class="mark-text role-axis-label" pointer-events="none"><text text-anchor="start" transform="translate(0,15)" font-family="sans-serif" font-size="10px" fill="#000" opacity="1">0</text><text text-anchor="middle" transform="translate(53.57142857142857,15)" font-family="sans-serif" font-size="10px" fill="#000" opacity="1">5</text><text text-anchor="middle" transform="translate(107.14285714285714,15)" font-family="sans-serif" font-size="10px" fill="#000" opacity="1">10</text></g><g class="mark-rule role-axis-domain" pointer-events="none"><line transform="translate(0,0)" x2="150" y2="0" stroke="#888" stroke-width="1" opacity="1"/></g><g class="mark-text role-axis-title" pointer-events="none"><text text-anchor="middle" transform="translate(75,30)" font-family="sans-serif" font-size="11px" font-weight="bold" fill="#000" opacity="1">Computation days (single CPU)</text></g></g><path class="foreground" aria-hidden="true" d="" pointer-events="none" display="none"/></g></g><g class="mark-rule role-mark child_layer_0_marks" role="graphics-symbol" aria-roledescription="rule mark container"><line transform="translate(24.801587301587304,299.442)" x2="0" y2="-0.18000000000000682" stroke="#4c78a8"/><line transform="translate(49.60317460317461,233.454)" x2="0" y2="-2.3940000000000055" stroke="#4c78a8"/><line transform="translate(74.4047619047619,158.00400000000002)" x2="0" y2="-0.6480000000000246" stroke="#4c78a8"/><line transform="translate(99.20634920634922,117.984)" x2="0" y2="-2.3759999999999906" stroke="#4c78a8"/><line transform="translate(124.0079365079365,93.01200000000003)" x2="0" y2="-3.5760000000000502" stroke="#4c78a8"/><line transform="translate(148.8095238095238,75.38399999999999)" x2="0" y2="-5.279999999999987" stroke="#4c78a8"/><line transform="translate(24.801587301587304,299.42705734588185)" x2="0" y2="-0.041293164260707726" stroke="#54a24b"/><line transform="translate(49.60317460317461,260.80246382546756)" x2="0" y2="-7.422446275872744" stroke="#54a24b"/><line transform="translate(74.4047619047619,218.89506374632234)" x2="0" y2="-5.677810085855356" stroke="#54a24b"/><line transform="translate(99.20634920634922,188.32779890229)" x2="0" y2="-7.329536656285995" stroke="#54a24b"/><line transform="translate(124.0079365079365,166.34435057896462)" x2="0" y2="-5.739749832246559" stroke="#54a24b"/><line transform="translate(148.8095238095238,148.93412019751898)" x2="0" y2="-3.32409972299169" stroke="#54a24b"/><line transform="translate(148.8095238095238,170.11362230551458)" x2="0" y2="-13.227244611029136" stroke="#72b7b2"/><line transform="translate(148.8095238095238,143.43711730708742)" x2="0" y2="-3.6742346141748214" stroke="#e45756"/><line transform="translate(148.8095238095238,106.41589268976705)" x2="0" y2="-15.431785379534048" stroke="#f58518"/></g><g class="mark-symbol role-mark child_layer_1_marks" role="graphics-symbol" aria-roledescription="symbol mark container"><path transform="translate(24.801587301587304,299.368)" d="M3.1622776601683795,0A3.1622776601683795,3.1622776601683795,0,1,1,-3.1622776601683795,0A3.1622776601683795,3.1622776601683795,0,1,1,3.1622776601683795,0" stroke="#4c78a8" stroke-width="2"/><path transform="translate(49.60317460317461,232.23)" d="M3.1622776601683795,0A3.1622776601683795,3.1622776601683795,0,1,1,-3.1622776601683795,0A3.1622776601683795,3.1622776601683795,0,1,1,3.1622776601683795,0" stroke="#4c78a8" stroke-width="2"/><path transform="translate(74.4047619047619,157.764)" d="M3.1622776601683795,0A3.1622776601683795,3.1622776601683795,0,1,1,-3.1622776601683795,0A3.1622776601683795,3.1622776601683795,0,1,1,3.1622776601683795,0" stroke="#4c78a8" stroke-width="2"/><path transform="translate(99.20634920634922,116.64000000000001)" d="M3.1622776601683795,0A3.1622776601683795,3.1622776601683795,0,1,1,-3.1622776601683795,0A3.1622776601683795,3.1622776601683795,0,1,1,3.1622776601683795,0" stroke="#4c78a8" stroke-width="2"/><path transform="translate(124.0079365079365,91.25600000000001)" d="M3.1622776601683795,0A3.1622776601683795,3.1622776601683795,0,1,1,-3.1622776601683795,0A3.1622776601683795,3.1622776601683795,0,1,1,3.1622776601683795,0" stroke="#4c78a8" stroke-width="2"/><path transform="translate(148.8095238095238,72.716)" d="M3.1622776601683795,0A3.1622776601683795,3.1622776601683795,0,1,1,-3.1622776601683795,0A3.1622776601683795,3.1622776601683795,0,1,1,3.1622776601683795,0" stroke="#4c78a8" stroke-width="2"/><path transform="translate(24.801587301587304,299.4115724092841)" d="M3.1622776601683795,0A3.1622776601683795,3.1622776601683795,0,1,1,-3.1622776601683795,0A3.1622776601683795,3.1622776601683795,0,1,1,3.1622776601683795,0" stroke="#54a24b" stroke-width="2"/><path transform="translate(49.60317460317461,257.055109168803)" d="M3.1622776601683795,0A3.1622776601683795,3.1622776601683795,0,1,1,-3.1622776601683795,0A3.1622776601683795,3.1622776601683795,0,1,1,3.1622776601683795,0" stroke="#54a24b" stroke-width="2"/><path transform="translate(74.4047619047619,215.8565750761343)" d="M3.1622776601683795,0A3.1622776601683795,3.1622776601683795,0,1,1,-3.1622776601683795,0A3.1622776601683795,3.1622776601683795,0,1,1,3.1622776601683795,0" stroke="#54a24b" stroke-width="2"/><path transform="translate(99.20634920634922,184.83680597374442)" d="M3.1622776601683795,0A3.1622776601683795,3.1622776601683795,0,1,1,-3.1622776601683795,0A3.1622776601683795,3.1622776601683795,0,1,1,3.1622776601683795,0" stroke="#54a24b" stroke-width="2"/><path transform="translate(124.0079365079365,163.50716608454775)" d="M3.1622776601683795,0A3.1622776601683795,3.1622776601683795,0,1,1,-3.1622776601683795,0A3.1622776601683795,3.1622776601683795,0,1,1,3.1622776601683795,0" stroke="#54a24b" stroke-width="2"/><path transform="translate(148.8095238095238,147.32884843688169)" d="M3.1622776601683795,0A3.1622776601683795,3.1622776601683795,0,1,1,-3.1622776601683795,0A3.1622776601683795,3.1622776601683795,0,1,1,3.1622776601683795,0" stroke="#54a24b" stroke-width="2"/><path transform="translate(148.8095238095238,163.49999999999997)" d="M3.1622776601683795,0A3.1622776601683795,3.1622776601683795,0,1,1,-3.1622776601683795,0A3.1622776601683795,3.1622776601683795,0,1,1,3.1622776601683795,0" stroke="#72b7b2" stroke-width="2"/><path transform="translate(148.8095238095238,141.6)" d="M3.1622776601683795,0A3.1622776601683795,3.1622776601683795,0,1,1,-3.1622776601683795,0A3.1622776601683795,3.1622776601683795,0,1,1,3.1622776601683795,0" stroke="#e45756" stroke-width="2"/><path transform="translate(148.8095238095238,98.70000000000002)" d="M3.1622776601683795,0A3.1622776601683795,3.1622776601683795,0,1,1,-3.1622776601683795,0A3.1622776601683795,3.1622776601683795,0,1,1,3.1622776601683795,0" stroke="#f58518" stroke-width="2"/></g><g class="mark-group role-scope child_layer_2_pathgroup" role="graphics-object" aria-roledescription="group mark container"><g transform="translate(0,0)"><path class="background" aria-hidden="true" d="M0,0h150v300h-150Z"/><g><g class="mark-line role-mark child_layer_2_marks" role="graphics-symbol" aria-roledescription="line mark container"><path d="M24.801587301587304,299.368L49.60317460317461,232.23L74.4047619047619,157.764L99.20634920634922,116.64000000000001L124.0079365079365,91.25600000000001L148.8095238095238,72.716" stroke="#4c78a8" stroke-width="2" opacity="0.5"/></g></g><path class="foreground" aria-hidden="true" d="" display="none"/></g><g transform="translate(0,0)"><path class="background" aria-hidden="true" d="M0,0h150v300h-150Z"/><g><g class="mark-line role-mark child_layer_2_marks" role="graphics-symbol" aria-roledescription="line mark container"><path d="M24.801587301587304,299.4115724092841L49.60317460317461,257.055109168803L74.4047619047619,215.8565750761343L99.20634920634922,184.83680597374442L124.0079365079365,163.50716608454775L148.8095238095238,147.32884843688169" stroke="#54a24b" stroke-width="2" opacity="0.5"/></g></g><path class="foreground" aria-hidden="true" d="" display="none"/></g><g transform="translate(0,0)"><path class="background" aria-hidden="true" d="M0,0h150v300h-150Z"/><g><g class="mark-line role-mark child_layer_2_marks" role="graphics-symbol" aria-roledescription="line mark container"><path d="M148.8095238095238,163.49999999999997Z" stroke="#72b7b2" stroke-width="2" opacity="0.5"/></g></g><path class="foreground" aria-hidden="true" d="" display="none"/></g><g transform="translate(0,0)"><path class="background" aria-hidden="true" d="M0,0h150v300h-150Z"/><g><g class="mark-line role-mark child_layer_2_marks" role="graphics-symbol" aria-roledescription="line mark container"><path d="M148.8095238095238,141.6Z" stroke="#e45756" stroke-width="2" opacity="0.5"/></g></g><path class="foreground" aria-hidden="true" d="" display="none"/></g><g transform="translate(0,0)"><path class="background" aria-hidden="true" d="M0,0h150v300h-150Z"/><g><g class="mark-line role-mark child_layer_2_marks" role="graphics-symbol" aria-roledescription="line mark container"><path d="M148.8095238095238,98.70000000000002Z" stroke="#f58518" stroke-width="2" opacity="0.5"/></g></g><path class="foreground" aria-hidden="true" d="" display="none"/></g></g></g><path class="foreground" aria-hidden="true" d="" display="none"/></g><g transform="translate(376,0)"><path class="background" aria-hidden="true" d="M0.5,0.5h150v300h-150Z" stroke="#ddd"/><g><g class="mark-group role-axis" role="graphics-symbol" aria-roledescription="axis" aria-label="X-axis for a linear scale with values from 0 to 7"><g transform="translate(0.5,300.5)"><path class="background" aria-hidden="true" d="M0,0h0v0h0Z" pointer-events="none"/><g><g class="mark-rule role-axis-grid" pointer-events="none"><line transform="translate(0,-300)" x2="0" y2="300" stroke="#ddd" stroke-width="1" opacity="1"/><line transform="translate(43,-300)" x2="0" y2="300" stroke="#ddd" stroke-width="1" opacity="1"/><line transform="translate(86,-300)" x2="0" y2="300" stroke="#ddd" stroke-width="1" opacity="1"/><line transform="translate(129,-300)" x2="0" y2="300" stroke="#ddd" stroke-width="1" opacity="1"/></g></g><path class="foreground" aria-hidden="true" d="" pointer-events="none" display="none"/></g></g><g class="mark-group role-axis" role="graphics-symbol" aria-roledescription="axis" aria-label="Y-axis for a linear scale with values from 0 to 100"><g transform="translate(0.5,0.5)"><path class="background" aria-hidden="true" d="M0,0h0v0h0Z" pointer-events="none"/><g><g class="mark-rule role-axis-grid" pointer-events="none"><line transform="translate(0,300)" x2="150" y2="0" stroke="#ddd" stroke-width="1" opacity="1"/><line transform="translate(0,270)" x2="150" y2="0" stroke="#ddd" stroke-width="1" opacity="1"/><line transform="translate(0,240)" x2="150" y2="0" stroke="#ddd" stroke-width="1" opacity="1"/><line transform="translate(0,210)" x2="150" y2="0" stroke="#ddd" stroke-width="1" opacity="1"/><line transform="translate(0,180)" x2="150" y2="0" stroke="#ddd" stroke-width="1" opacity="1"/><line transform="translate(0,150)" x2="150" y2="0" stroke="#ddd" stroke-width="1" opacity="1"/><line transform="translate(0,120)" x2="150" y2="0" stroke="#ddd" stroke-width="1" opacity="1"/><line transform="translate(0,90)" x2="150" y2="0" stroke="#ddd" stroke-width="1" opacity="1"/><line transform="translate(0,60)" x2="150" y2="0" stroke="#ddd" stroke-width="1" opacity="1"/><line transform="translate(0,30)" x2="150" y2="0" stroke="#ddd" stroke-width="1" opacity="1"/><line transform="translate(0,0)" x2="150" y2="0" stroke="#ddd" stroke-width="1" opacity="1"/></g></g><path class="foreground" aria-hidden="true" d="" pointer-events="none" display="none"/></g></g><g class="mark-group role-axis" role="graphics-symbol" aria-roledescription="axis" aria-label="X-axis titled 'Computation days (single CPU)' for a linear scale with values from 0 to 7"><g transform="translate(0.5,300.5)"><path class="background" aria-hidden="true" d="M0,0h0v0h0Z" pointer-events="none"/><g><g class="mark-rule role-axis-tick" pointer-events="none"><line transform="translate(0,0)" x2="0" y2="5" stroke="#888" stroke-width="1" opacity="1"/><line transform="translate(43,0)" x2="0" y2="5" stroke="#888" stroke-width="1" opacity="1"/><line transform="translate(86,0)" x2="0" y2="5" stroke="#888" stroke-width="1" opacity="1"/><line transform="translate(129,0)" x2="0" y2="5" stroke="#888" stroke-width="1" opacity="1"/></g><g class="mark-text role-axis-label" pointer-events="none"><text text-anchor="start" transform="translate(0,15)" font-family="sans-serif" font-size="10px" fill="#000" opacity="1">0</text><text text-anchor="middle" transform="translate(42.857142857142854,15)" font-family="sans-serif" font-size="10px" fill="#000" opacity="1">2</text><text text-anchor="middle" transform="translate(85.71428571428571,15)" font-family="sans-serif" font-size="10px" fill="#000" opacity="1">4</text><text text-anchor="middle" transform="translate(128.57142857142856,15)" font-family="sans-serif" font-size="10px" fill="#000" opacity="1">6</text></g><g class="mark-rule role-axis-domain" pointer-events="none"><line transform="translate(0,0)" x2="150" y2="0" stroke="#888" stroke-width="1" opacity="1"/></g><g class="mark-text role-axis-title" pointer-events="none"><text text-anchor="middle" transform="translate(75,30)" font-family="sans-serif" font-size="11px" font-weight="bold" fill="#000" opacity="1">Computation days (single CPU)</text></g></g><path class="foreground" aria-hidden="true" d="" pointer-events="none" display="none"/></g></g><g class="mark-rule role-mark child_layer_0_marks" role="graphics-symbol" aria-roledescription="rule mark container"><line transform="translate(24.801587301587304,299.724)" x2="0" y2="-0.1439999999999486" stroke="#4c78a8"/><line transform="translate(49.60317460317461,268.50600000000003)" x2="0" y2="-3.1380000000000337" stroke="#4c78a8"/><line transform="translate(74.4047619047619,219.99)" x2="0" y2="-4.481999999999999" stroke="#4c78a8"/><line transform="translate(99.20634920634922,186.30599999999998)" x2="0" y2="-10.469999999999999" stroke="#4c78a8"/><line transform="translate(124.0079365079365,159.71999999999997)" x2="0" y2="-10.595999999999975" stroke="#4c78a8"/><line transform="translate(148.8095238095238,138.672)" x2="0" y2="-9.821999999999974" stroke="#4c78a8"/><line transform="translate(24.801587301587304,299.757402659968)" x2="0" y2="-0.0619397463912037" stroke="#54a24b"/><line transform="translate(49.60317460317461,282.9201149326405)" x2="0" y2="-6.544966535331412" stroke="#54a24b"/><line transform="translate(74.4047619047619,251.57344161318628)" x2="0" y2="-1.7807677087455431" stroke="#54a24b"/><line transform="translate(99.20634920634922,226.7872197656613)" x2="0" y2="-3.5976669362192695" stroke="#54a24b"/><line transform="translate(124.0079365079365,208.0297999002082)" x2="0" y2="-5.81717451523545" stroke="#54a24b"/><line transform="translate(148.8095238095238,191.6777068529447)" x2="0" y2="-3.7783245298601003" stroke="#54a24b"/><line transform="translate(148.8095238095238,236.0833161511845)" x2="0" y2="-16.16663230236901" stroke="#72b7b2"/><line transform="translate(148.8095238095238,201.20227038425242)" x2="0" y2="-2.2045407685048133" stroke="#e45756"/><line transform="translate(148.8095238095238,145.8371173070874)" x2="0" y2="-3.674234614174793" stroke="#f58518"/></g><g class="mark-symbol role-mark child_layer_1_marks" role="graphics-symbol" aria-roledescription="symbol mark container"><path transform="translate(24.801587301587304,299.67)" d="M3.1622776601683795,0A3.1622776601683795,3.1622776601683795,0,1,1,-3.1622776601683795,0A3.1622776601683795,3.1622776601683795,0,1,1,3.1622776601683795,0" stroke="#4c78a8" stroke-width="2"/><path transform="translate(49.60317460317461,266.57599999999996)" d="M3.1622776601683795,0A3.1622776601683795,3.1622776601683795,0,1,1,-3.1622776601683795,0A3.1622776601683795,3.1622776601683795,0,1,1,3.1622776601683795,0" stroke="#4c78a8" stroke-width="2"/><path transform="translate(74.4047619047619,218.04399999999998)" d="M3.1622776601683795,0A3.1622776601683795,3.1622776601683795,0,1,1,-3.1622776601683795,0A3.1622776601683795,3.1622776601683795,0,1,1,3.1622776601683795,0" stroke="#4c78a8" stroke-width="2"/><path transform="translate(99.20634920634922,179.614)" d="M3.1622776601683795,0A3.1622776601683795,3.1622776601683795,0,1,1,-3.1622776601683795,0A3.1622776601683795,3.1622776601683795,0,1,1,3.1622776601683795,0" stroke="#4c78a8" stroke-width="2"/><path transform="translate(124.0079365079365,152.742)" d="M3.1622776601683795,0A3.1622776601683795,3.1622776601683795,0,1,1,-3.1622776601683795,0A3.1622776601683795,3.1622776601683795,0,1,1,3.1622776601683795,0" stroke="#4c78a8" stroke-width="2"/><path transform="translate(148.8095238095238,132.726)" d="M3.1622776601683795,0A3.1622776601683795,3.1622776601683795,0,1,1,-3.1622776601683795,0A3.1622776601683795,3.1622776601683795,0,1,1,3.1622776601683795,0" stroke="#4c78a8" stroke-width="2"/><path transform="translate(24.801587301587304,299.7229916897507)" d="M3.1622776601683795,0A3.1622776601683795,3.1622776601683795,0,1,1,-3.1622776601683795,0A3.1622776601683795,3.1622776601683795,0,1,1,3.1622776601683795,0" stroke="#54a24b" stroke-width="2"/><path transform="translate(49.60317460317461,279.77839335180056)" d="M3.1622776601683795,0A3.1622776601683795,3.1622776601683795,0,1,1,-3.1622776601683795,0A3.1622776601683795,3.1622776601683795,0,1,1,3.1622776601683795,0" stroke="#54a24b" stroke-width="2"/><path transform="translate(74.4047619047619,250.44476179005866)" d="M3.1622776601683795,0A3.1622776601683795,3.1622776601683795,0,1,1,-3.1622776601683795,0A3.1622776601683795,3.1622776601683795,0,1,1,3.1622776601683795,0" stroke="#54a24b" stroke-width="2"/><path transform="translate(99.20634920634922,225.00645205691575)" d="M3.1622776601683795,0A3.1622776601683795,3.1622776601683795,0,1,1,-3.1622776601683795,0A3.1622776601683795,3.1622776601683795,0,1,1,3.1622776601683795,0" stroke="#54a24b" stroke-width="2"/><path transform="translate(124.0079365079365,205.26143734622596)" d="M3.1622776601683795,0A3.1622776601683795,3.1622776601683795,0,1,1,-3.1622776601683795,0A3.1622776601683795,3.1622776601683795,0,1,1,3.1622776601683795,0" stroke="#54a24b" stroke-width="2"/><path transform="translate(148.8095238095238,190.1980351336006)" d="M3.1622776601683795,0A3.1622776601683795,3.1622776601683795,0,1,1,-3.1622776601683795,0A3.1622776601683795,3.1622776601683795,0,1,1,3.1622776601683795,0" stroke="#54a24b" stroke-width="2"/><path transform="translate(148.8095238095238,228)" d="M3.1622776601683795,0A3.1622776601683795,3.1622776601683795,0,1,1,-3.1622776601683795,0A3.1622776601683795,3.1622776601683795,0,1,1,3.1622776601683795,0" stroke="#72b7b2" stroke-width="2"/><path transform="translate(148.8095238095238,200.10000000000002)" d="M3.1622776601683795,0A3.1622776601683795,3.1622776601683795,0,1,1,-3.1622776601683795,0A3.1622776601683795,3.1622776601683795,0,1,1,3.1622776601683795,0" stroke="#e45756" stroke-width="2"/><path transform="translate(148.8095238095238,144)" d="M3.1622776601683795,0A3.1622776601683795,3.1622776601683795,0,1,1,-3.1622776601683795,0A3.1622776601683795,3.1622776601683795,0,1,1,3.1622776601683795,0" stroke="#f58518" stroke-width="2"/></g><g class="mark-group role-scope child_layer_2_pathgroup" role="graphics-object" aria-roledescription="group mark container"><g transform="translate(0,0)"><path class="background" aria-hidden="true" d="M0,0h150v300h-150Z"/><g><g class="mark-line role-mark child_layer_2_marks" role="graphics-symbol" aria-roledescription="line mark container"><path d="M24.801587301587304,299.67L49.60317460317461,266.57599999999996L74.4047619047619,218.04399999999998L99.20634920634922,179.614L124.0079365079365,152.742L148.8095238095238,132.726" stroke="#4c78a8" stroke-width="2" opacity="0.5"/></g></g><path class="foreground" aria-hidden="true" d="" display="none"/></g><g transform="translate(0,0)"><path class="background" aria-hidden="true" d="M0,0h150v300h-150Z"/><g><g class="mark-line role-mark child_layer_2_marks" role="graphics-symbol" aria-roledescription="line mark container"><path d="M24.801587301587304,299.7229916897507L49.60317460317461,279.77839335180056L74.4047619047619,250.44476179005866L99.20634920634922,225.00645205691575L124.0079365079365,205.26143734622596L148.8095238095238,190.1980351336006" stroke="#54a24b" stroke-width="2" opacity="0.5"/></g></g><path class="foreground" aria-hidden="true" d="" display="none"/></g><g transform="translate(0,0)"><path class="background" aria-hidden="true" d="M0,0h150v300h-150Z"/><g><g class="mark-line role-mark child_layer_2_marks" role="graphics-symbol" aria-roledescription="line mark container"><path d="M148.8095238095238,228Z" stroke="#72b7b2" stroke-width="2" opacity="0.5"/></g></g><path class="foreground" aria-hidden="true" d="" display="none"/></g><g transform="translate(0,0)"><path class="background" aria-hidden="true" d="M0,0h150v300h-150Z"/><g><g class="mark-line role-mark child_layer_2_marks" role="graphics-symbol" aria-roledescription="line mark container"><path d="M148.8095238095238,200.10000000000002Z" stroke="#e45756" stroke-width="2" opacity="0.5"/></g></g><path class="foreground" aria-hidden="true" d="" display="none"/></g><g transform="translate(0,0)"><path class="background" aria-hidden="true" d="M0,0h150v300h-150Z"/><g><g class="mark-line role-mark child_layer_2_marks" role="graphics-symbol" aria-roledescription="line mark container"><path d="M148.8095238095238,144Z" stroke="#f58518" stroke-width="2" opacity="0.5"/></g></g><path class="foreground" aria-hidden="true" d="" display="none"/></g></g></g><path class="foreground" aria-hidden="true" d="" display="none"/></g></g><g class="mark-group role-legend" role="graphics-symbol" aria-roledescription="legend" aria-label="Symbol legend titled 'Algorithm' for stroke color with 5 values: AmpC:LogReg (ours), AmpC:MPN (Graff), AmpC:NN (Graff), AmpC:RF (Graff), D4:LogReg (ours)"><g transform="translate(553,0)"><path class="background" aria-hidden="true" d="M0,0h111v93h-111Z" pointer-events="none"/><g><g class="mark-group role-legend-entry"><g transform="translate(0,16)"><path class="background" aria-hidden="true" d="M0,0h0v0h0Z" pointer-events="none"/><g><g class="mark-group role-scope" role="graphics-object" aria-roledescription="group mark container"><g transform="translate(0,0)"><path class="background" aria-hidden="true" d="M0,0h110.53333282470703v12.5h-110.53333282470703Z" pointer-events="none" opacity="1"/><g><g class="mark-symbol role-legend-symbol" pointer-events="none"><path transform="translate(6,6)" d="M5,0A5,5,0,1,1,-5,0A5,5,0,1,1,5,0" stroke="#4c78a8" stroke-width="1.5" opacity="1"/></g><g class="mark-text role-legend-label" pointer-events="none"><text text-anchor="start" transform="translate(16,9)" font-family="sans-serif" font-size="10px" fill="#000" opacity="1">AmpC:LogReg (ours)</text></g></g><path class="foreground" aria-hidden="true" d="" pointer-events="none" display="none"/></g><g transform="translate(0,16)"><path class="background" aria-hidden="true" d="M0,0h110.53333282470703v12.5h-110.53333282470703Z" pointer-events="none" opacity="1"/><g><g class="mark-symbol role-legend-symbol" pointer-events="none"><path transform="translate(6,6)" d="M5,0A5,5,0,1,1,-5,0A5,5,0,1,1,5,0" stroke="#f58518" stroke-width="1.5" opacity="1"/></g><g class="mark-text role-legend-label" pointer-events="none"><text text-anchor="start" transform="translate(16,9)" font-family="sans-serif" font-size="10px" fill="#000" opacity="1">AmpC:MPN (Graff)</text></g></g><path class="foreground" aria-hidden="true" d="" pointer-events="none" display="none"/></g><g transform="translate(0,32)"><path class="background" aria-hidden="true" d="M0,0h110.53333282470703v12.5h-110.53333282470703Z" pointer-events="none" opacity="1"/><g><g class="mark-symbol role-legend-symbol" pointer-events="none"><path transform="translate(6,6)" d="M5,0A5,5,0,1,1,-5,0A5,5,0,1,1,5,0" stroke="#e45756" stroke-width="1.5" opacity="1"/></g><g class="mark-text role-legend-label" pointer-events="none"><text text-anchor="start" transform="translate(16,9)" font-family="sans-serif" font-size="10px" fill="#000" opacity="1">AmpC:NN (Graff)</text></g></g><path class="foreground" aria-hidden="true" d="" pointer-events="none" display="none"/></g><g transform="translate(0,48)"><path class="background" aria-hidden="true" d="M0,0h110.53333282470703v12.5h-110.53333282470703Z" pointer-events="none" opacity="1"/><g><g class="mark-symbol role-legend-symbol" pointer-events="none"><path transform="translate(6,6)" d="M5,0A5,5,0,1,1,-5,0A5,5,0,1,1,5,0" stroke="#72b7b2" stroke-width="1.5" opacity="1"/></g><g class="mark-text role-legend-label" pointer-events="none"><text text-anchor="start" transform="translate(16,9)" font-family="sans-serif" font-size="10px" fill="#000" opacity="1">AmpC:RF (Graff)</text></g></g><path class="foreground" aria-hidden="true" d="" pointer-events="none" display="none"/></g><g transform="translate(0,64)"><path class="background" aria-hidden="true" d="M0,0h110.53333282470703v12.5h-110.53333282470703Z" pointer-events="none" opacity="1"/><g><g class="mark-symbol role-legend-symbol" pointer-events="none"><path transform="translate(6,6)" d="M5,0A5,5,0,1,1,-5,0A5,5,0,1,1,5,0" stroke="#54a24b" stroke-width="1.5" opacity="1"/></g><g class="mark-text role-legend-label" pointer-events="none"><text text-anchor="start" transform="translate(16,9)" font-family="sans-serif" font-size="10px" fill="#000" opacity="1">D4:LogReg (ours)</text></g></g><path class="foreground" aria-hidden="true" d="" pointer-events="none" display="none"/></g></g></g><path class="foreground" aria-hidden="true" d="" pointer-events="none" display="none"/></g></g><g class="mark-text role-legend-title" pointer-events="none"><text text-anchor="start" transform="translate(0,9)" font-family="sans-serif" font-size="11px" font-weight="bold" fill="#000" opacity="1">Algorithm</text></g></g><path class="foreground" aria-hidden="true" d="" pointer-events="none" display="none"/></g></g></g><path class="foreground" aria-hidden="true" d="" display="none"/></g></g></g></svg>