<svg xmlns="http://www.w3.org/2000/svg" xmlns:xlink="http://www.w3.org/1999/xlink" version="1.1" class="marks" width="455" height="498" viewBox="0 0 455 498"><rect width="455" height="498" fill="white"/><g fill="none" stroke-miterlimit="10" transform="translate(48,6)"><g class="mark-group role-frame root" role="graphics-object" aria-roledescription="group mark container"><g transform="translate(0,0)"><path class="background" aria-hidden="true" d="M0,0h0v0h0Z"/><g><g class="mark-group role-scope concat_0_group" role="graphics-object" aria-roledescription="group mark container"><g transform="translate(0,0)"><path class="background" aria-hidden="true" d="M0.5,0.5h400v200h-400Z" stroke="#ddd"/><g><g class="mark-group role-axis" role="graphics-symbol" aria-roledescription="axis" aria-label="X-axis for a linear scale with values from 0 to 1,600,000"><g transform="translate(0.5,200.5)"><path class="background" aria-hidden="true" d="M0,0h0v0h0Z" pointer-events="none"/><g><g class="mark-rule role-axis-grid" pointer-events="none"><line transform="translate(0,-200)" x2="0" y2="200" stroke="#ddd" stroke-width="1" opacity="1"/><line transform="translate(50,-200)" x2="0" y2="200" stroke="#ddd" stroke-width="1" opacity="1"/><line transform="translate(100,-200)" x2="0" y2="200" stroke="#ddd" stroke-width="1" opacity="1"/><line transform="translate(150,-200)" x2="0" y2="200" stroke="#ddd" stroke-width="1" opacity="1"/><line transform="translate(200,-200)" x2="0" y2="200" stroke="#ddd" stroke-width="1" opacity="1"/><line transform="translate(250,-200)" x2="0" y2="200" stroke="#ddd" stroke-width="1" opacity="1"/><line transform="translate(300,-200)" x2="0" y2="200" stroke="#ddd" stroke-width="1" opacity="1"/><line transform="translate(350,-200)" x2="0" y2="200" stroke="#ddd" stroke-width="1" opacity="1"/><line transform="translate(400,-200)" x2="0" y2="200" stroke="#ddd" stroke-width="1" opacity="1"/></g></g><path class="foreground" aria-hidden="true" d="" pointer-events="none" display="none"/></g></g><g class="mark-group role-axis" role="graphics-symbol" aria-roledescription="axis" aria-label="Y-axis for a linear scale with values from 0.00 to 0.24"><g transform="translate(0.5,0.5)"><path class="background" aria-hidden="true" d="M0,0h0v0h0Z" pointer-events="none"/><g><g class="mark-rule role-axis-grid" pointer-events="none"><line transform="translate(0,200)" x2="400" y2="0" stroke="#ddd" stroke-width="1" opacity="1"/><line transform="translate(0,158)" x2="400" y2="0" stroke="#ddd" stroke-width="1" opacity="1"/><line transform="translate(0,117)" x2="400" y2="0" stroke="#ddd" stroke-width="1" opacity="1"/><line transform="translate(0,75)" x2="400" y2="0" stroke="#ddd" stroke-width="1" opacity="1"/><line transform="translate(0,33)" x2="400" y2="0" stroke="#ddd" stroke-width="1" opacity="1"/></g></g><path class="foreground" aria-hidden="true" d="" pointer-events="none" display="none"/></g></g><g class="mark-group role-axis" role="graphics-symbol" aria-roledescription="axis" aria-label="X-axis titled 'Training set size' for a linear scale with values from 0 to 1,600,000"><g transform="translate(0.5,200.5)"><path class="background" aria-hidden="true" d="M0,0h0v0h0Z" pointer-events="none"/><g><g class="mark-rule role-axis-tick" pointer-events="none"><line transform="translate(0,0)" x2="0" y2="5" stroke="#888" stroke-width="1" opacity="1"/><line transform="translate(50,0)" x2="0" y2="5" stroke="#888" stroke-width="1" opacity="1"/><line transform="translate(100,0)" x2="0" y2="5" stroke="#888" stroke-width="1" opacity="1"/><line transform="translate(150,0)" x2="0" y2="5" stroke="#888" stroke-width="1" opacity="1"/><line transform="translate(200,0)" x2="0" y2="5" stroke="#888" stroke-width="1" opacity="1"/><line transform="translate(250,0)" x2="0" y2="5" stroke="#888" stroke-width="1" opacity="1"/><line transform="translate(300,0)" x2="0" y2="5" stroke="#888" stroke-width="1" opacity="1"/><line transform="translate(350,0)" x2="0" y2="5" stroke="#888" stroke-width="1" opacity="1"/><line transform="translate(400,0)" x2="0" y2="5" stroke="#888" stroke-width="1" opacity="1"/></g><g class="mark-text role-axis-label" pointer-events="none"><text text-anchor="start" transform="translate(0,15)" font-family="sans-serif" font-size="10px" fill="#000" opacity="1">0</text><text text-anchor="middle" transform="translate(50,15)" font-family="sans-serif" font-size="10px" fill="#000" opacity="0">200,000</text><text text-anchor="middle" transform="translate(100,15)" font-family="sans-serif" font-size="10px" fill="#000" opacity="1">400,000</text><text text-anchor="middle" transform="translate(150,15)" font-family="sans-serif" font-size="10px" fill="#000" opacity="0">600,000</text><text text-anchor="middle" transform="translate(200,15)" font-family="sans-serif" font-size="10px" fill="#000" opacity="1">800,000</text><text text-anchor="middle" transform="translate(250,15)" font-family="sans-serif" font-size="10px" fill="#000" opacity="0">1,000,000</text><text text-anchor="middle" transform="translate(300,15)" font-family="sans-serif" font-size="10px" fill="#000" opacity="1">1,200,000</text><text text-anchor="middle" transform="translate(350,15)" font-family="sans-serif" font-size="10px" fill="#000" opacity="0">1,400,000</text><text text-anchor="end" transform="translate(400,15)" font-family="sans-serif" font-size="10px" fill="#000" opacity="1">1,600,000</text></g><g class="mark-rule role-axis-domain" pointer-events="none"><line transform="translate(0,0)" x2="400" y2="0" stroke="#888" stroke-width="1" opacity="1"/></g><g class="mark-text role-axis-title" pointer-events="none"><text text-anchor="middle" transform="translate(200,30)" font-family="sans-serif" font-size="11px" font-weight="bold" fill="#000" opacity="1">Training set size</text></g></g><path class="foreground" aria-hidden="true" d="" pointer-events="none" display="none"/></g></g><g class="mark-group role-axis" role="graphics-symbol" aria-roledescription="axis" aria-label="Y-axis titled 'Average Precision' for a linear scale with values from 0.00 to 0.24"><g transform="translate(0.5,0.5)"><path class="background" aria-hidden="true" d="M0,0h0v0h0Z" pointer-events="none"/><g><g class="mark-rule role-axis-tick" pointer-events="none"><line transform="translate(0,200)" x2="-5" y2="0" stroke="#888" stroke-width="1" opacity="1"/><line transform="translate(0,158)" x2="-5" y2="0" stroke="#888" stroke-width="1" opacity="1"/><line transform="translate(0,117)" x2="-5" y2="0" stroke="#888" stroke-width="1" opacity="1"/><line transform="translate(0,75)" x2="-5" y2="0" stroke="#888" stroke-width="1" opacity="1"/><line transform="translate(0,33)" x2="-5" y2="0" stroke="#888" stroke-width="1" opacity="1"/></g><g class="mark-text role-axis-label" pointer-events="none"><text text-anchor="end" transform="translate(-7,203)" font-family="sans-serif" font-size="10px" fill="#000" opacity="1">0.00</text><text text-anchor="end" transform="translate(-7,161.33333333333331)" font-family="sans-serif" font-size="10px" fill="#000" opacity="1">0.05</text><text text-anchor="end" transform="translate(-7,119.66666666666666)" font-family="sans-serif" font-size="10px" fill="#000" opacity="1">0.10</text><text text-anchor="end" transform="translate(-7,78)" font-family="sans-serif" font-size="10px" fill="#000" opacity="1">0.15</text><text text-anchor="end" transform="translate(-7,36.33333333333333)" font-family="sans-serif" font-size="10px" fill="#000" opacity="1">0.20</text></g><g class="mark-rule role-axis-domain" pointer-events="none"><line transform="translate(0,200)" x2="0" y2="-200" stroke="#888" stroke-width="1" opacity="1"/></g><g class="mark-text role-axis-title" pointer-events="none"><text text-anchor="middle" transform="translate(-30.46666717529297,100) rotate(-90) translate(0,-2)" font-family="sans-serif" font-size="11px" font-weight="bold" fill="#000" opacity="1">Average Precision</text></g></g><path class="foreground" aria-hidden="true" d="" pointer-events="none" display="none"/></g></g><g class="mark-line role-mark concat_0_layer_0_marks" role="graphics-symbol" aria-roledescription="line mark container"><path d="M2.5,118.46960114657321L3.5757499999999998,112.09821308126584L5.1145000000000005,109.02964623998945L7.3155,102.31856145947052L10.4635,97.9718444196914L14.96625,92.67299675697518L21.4065,84.77499616509043L30.618499999999997,76.52767682665693L43.7945,67.14590217057071L62.640499999999996,55.60632181606968L89.59625,45.54164351736452L128.152,35.78516957440323L183.29925,26.5873562945967L262.17775,17.958851391413667L375,9.789496681140797" stroke="#4c78a8" stroke-width="2"/></g><g class="mark-rule role-mark concat_0_layer_1_marks" role="graphics-symbol" aria-roledescription="rule mark container"><line transform="translate(2.5,125.96547063608648)" x2="0" y2="-11.675551500101207" stroke="black"/><line transform="translate(3.5757499999999998,118.31157430604908)" x2="0" y2="-11.31142095615185" stroke="black"/><line transform="translate(5.1145000000000005,116.78435266208007)" x2="0" y2="-11.959168763921014" stroke="black"/><line transform="translate(7.3155,106.4748032181885)" x2="0" y2="-6.9850494929421245" stroke="black"/><line transform="translate(10.4635,98.67818284531302)" x2="0" y2="-1.4487152999935091" stroke="black"/><line transform="translate(14.96625,93.29236601764961)" x2="0" y2="-1.6475192074157121" stroke="black"/><line transform="translate(21.4065,87.07791288240654)" x2="0" y2="-4.8898691151947276" stroke="black"/><line transform="translate(30.618499999999997,77.99747779027813)" x2="0" y2="-4.4071305411651736" stroke="black"/><line transform="translate(43.7945,71.64142905662405)" x2="0" y2="-11.01932961255281" stroke="black"/><line transform="translate(62.640499999999996,59.78773831419988)" x2="0" y2="-8.661214903571725" stroke="black"/><line transform="translate(89.59625,47.96074218317563)" x2="0" y2="-3.673715077645511" stroke="black"/><line transform="translate(128.152,37.42957368932864)" x2="0" y2="-2.930105920374814" stroke="black"/><line transform="translate(183.29925,27.203818732422945)" x2="0" y2="-1.632264372864345" stroke="black"/><line transform="translate(262.17775,18.627039120771947)" x2="0" y2="-1.0840397715760481" stroke="black"/><line transform="translate(375,9.95831050337792)" x2="0" y2="-0.32825975591734746" stroke="black"/></g><g class="mark-symbol role-mark concat_0_layer_2_marks" role="graphics-symbol" aria-roledescription="symbol mark container"><path transform="translate(2.5,118.46960114657321)" d="M2.7386127875258306,0A2.7386127875258306,2.7386127875258306,0,1,1,-2.7386127875258306,0A2.7386127875258306,2.7386127875258306,0,1,1,2.7386127875258306,0" stroke="#4c78a8" stroke-width="2"/><path transform="translate(3.5757499999999998,112.09821308126584)" d="M2.7386127875258306,0A2.7386127875258306,2.7386127875258306,0,1,1,-2.7386127875258306,0A2.7386127875258306,2.7386127875258306,0,1,1,2.7386127875258306,0" stroke="#4c78a8" stroke-width="2"/><path transform="translate(5.1145000000000005,109.02964623998945)" d="M2.7386127875258306,0A2.7386127875258306,2.7386127875258306,0,1,1,-2.7386127875258306,0A2.7386127875258306,2.7386127875258306,0,1,1,2.7386127875258306,0" stroke="#4c78a8" stroke-width="2"/><path transform="translate(7.3155,102.31856145947052)" d="M2.7386127875258306,0A2.7386127875258306,2.7386127875258306,0,1,1,-2.7386127875258306,0A2.7386127875258306,2.7386127875258306,0,1,1,2.7386127875258306,0" stroke="#4c78a8" stroke-width="2"/><path transform="translate(10.4635,97.9718444196914)" d="M2.7386127875258306,0A2.7386127875258306,2.7386127875258306,0,1,1,-2.7386127875258306,0A2.7386127875258306,2.7386127875258306,0,1,1,2.7386127875258306,0" stroke="#4c78a8" stroke-width="2"/><path transform="translate(14.96625,92.67299675697518)" d="M2.7386127875258306,0A2.7386127875258306,2.7386127875258306,0,1,1,-2.7386127875258306,0A2.7386127875258306,2.7386127875258306,0,1,1,2.7386127875258306,0" stroke="#4c78a8" stroke-width="2"/><path transform="translate(21.4065,84.77499616509043)" d="M2.7386127875258306,0A2.7386127875258306,2.7386127875258306,0,1,1,-2.7386127875258306,0A2.7386127875258306,2.7386127875258306,0,1,1,2.7386127875258306,0" stroke="#4c78a8" stroke-width="2"/><path transform="translate(30.618499999999997,76.52767682665693)" d="M2.7386127875258306,0A2.7386127875258306,2.7386127875258306,0,1,1,-2.7386127875258306,0A2.7386127875258306,2.7386127875258306,0,1,1,2.7386127875258306,0" stroke="#4c78a8" stroke-width="2"/><path transform="translate(43.7945,67.14590217057071)" d="M2.7386127875258306,0A2.7386127875258306,2.7386127875258306,0,1,1,-2.7386127875258306,0A2.7386127875258306,2.7386127875258306,0,1,1,2.7386127875258306,0" stroke="#4c78a8" stroke-width="2"/><path transform="translate(62.640499999999996,55.60632181606968)" d="M2.7386127875258306,0A2.7386127875258306,2.7386127875258306,0,1,1,-2.7386127875258306,0A2.7386127875258306,2.7386127875258306,0,1,1,2.7386127875258306,0" stroke="#4c78a8" stroke-width="2"/><path transform="translate(89.59625,45.54164351736452)" d="M2.7386127875258306,0A2.7386127875258306,2.7386127875258306,0,1,1,-2.7386127875258306,0A2.7386127875258306,2.7386127875258306,0,1,1,2.7386127875258306,0" stroke="#4c78a8" stroke-width="2"/><path transform="translate(128.152,35.78516957440323)" d="M2.7386127875258306,0A2.7386127875258306,2.7386127875258306,0,1,1,-2.7386127875258306,0A2.7386127875258306,2.7386127875258306,0,1,1,2.7386127875258306,0" stroke="#4c78a8" stroke-width="2"/><path transform="translate(183.29925,26.5873562945967)" d="M2.7386127875258306,0A2.7386127875258306,2.7386127875258306,0,1,1,-2.7386127875258306,0A2.7386127875258306,2.7386127875258306,0,1,1,2.7386127875258306,0" stroke="#4c78a8" stroke-width="2"/><path transform="translate(262.17775,17.958851391413667)" d="M2.7386127875258306,0A2.7386127875258306,2.7386127875258306,0,1,1,-2.7386127875258306,0A2.7386127875258306,2.7386127875258306,0,1,1,2.7386127875258306,0" stroke="#4c78a8" stroke-width="2"/><path transform="translate(375,9.789496681140797)" d="M2.7386127875258306,0A2.7386127875258306,2.7386127875258306,0,1,1,-2.7386127875258306,0A2.7386127875258306,2.7386127875258306,0,1,1,2.7386127875258306,0" stroke="#4c78a8" stroke-width="2"/></g></g><path class="foreground" aria-hidden="true" d="" display="none"/></g></g><g class="mark-group role-scope concat_1_group" role="graphics-object" aria-roledescription="group mark container"><g transform="translate(0,254)"><path class="background" aria-hidden="true" d="M0.5,0.5h400v200h-400Z" stroke="#ddd"/><g><g class="mark-group role-axis" role="graphics-symbol" aria-roledescription="axis" aria-label="X-axis for a linear scale with values from 0 to 1,600,000"><g transform="translate(0.5,200.5)"><path class="background" aria-hidden="true" d="M0,0h0v0h0Z" pointer-events="none"/><g><g class="mark-rule role-axis-grid" pointer-events="none"><line transform="translate(0,-200)" x2="0" y2="200" stroke="#ddd" stroke-width="1" opacity="1"/><line transform="translate(50,-200)" x2="0" y2="200" stroke="#ddd" stroke-width="1" opacity="1"/><line transform="translate(100,-200)" x2="0" y2="200" stroke="#ddd" stroke-width="1" opacity="1"/><line transform="translate(150,-200)" x2="0" y2="200" stroke="#ddd" stroke-width="1" opacity="1"/><line transform="translate(200,-200)" x2="0" y2="200" stroke="#ddd" stroke-width="1" opacity="1"/><line transform="translate(250,-200)" x2="0" y2="200" stroke="#ddd" stroke-width="1" opacity="1"/><line transform="translate(300,-200)" x2="0" y2="200" stroke="#ddd" stroke-width="1" opacity="1"/><line transform="translate(350,-200)" x2="0" y2="200" stroke="#ddd" stroke-width="1" opacity="1"/><line transform="translate(400,-200)" x2="0" y2="200" stroke="#ddd" stroke-width="1" opacity="1"/></g></g><path class="foreground" aria-hidden="true" d="" pointer-events="none" display="none"/></g></g><g class="mark-group role-axis" role="graphics-symbol" aria-roledescription="axis" aria-label="Y-axis for a linear scale with values from 0.16 to 0.46"><g transform="translate(0.5,0.5)"><path class="background" aria-hidden="true" d="M0,0h0v0h0Z" pointer-events="none"/><g><g class="mark-rule role-axis-grid" pointer-events="none"><line transform="translate(0,173)" x2="400" y2="0" stroke="#ddd" stroke-width="1" opacity="1"/><line transform="translate(0,140)" x2="400" y2="0" stroke="#ddd" stroke-width="1" opacity="1"/><line transform="translate(0,107)" x2="400" y2="0" stroke="#ddd" stroke-width="1" opacity="1"/><line transform="translate(0,73)" x2="400" y2="0" stroke="#ddd" stroke-width="1" opacity="1"/><line transform="translate(0,40)" x2="400" y2="0" stroke="#ddd" stroke-width="1" opacity="1"/><line transform="translate(0,7)" x2="400" y2="0" stroke="#ddd" stroke-width="1" opacity="1"/></g></g><path class="foreground" aria-hidden="true" d="" pointer-events="none" display="none"/></g></g><g class="mark-group role-axis" role="graphics-symbol" aria-roledescription="axis" aria-label="X-axis titled 'Training set size' for a linear scale with values from 0 to 1,600,000"><g transform="translate(0.5,200.5)"><path class="background" aria-hidden="true" d="M0,0h0v0h0Z" pointer-events="none"/><g><g class="mark-rule role-axis-tick" pointer-events="none"><line transform="translate(0,0)" x2="0" y2="5" stroke="#888" stroke-width="1" opacity="1"/><line transform="translate(50,0)" x2="0" y2="5" stroke="#888" stroke-width="1" opacity="1"/><line transform="translate(100,0)" x2="0" y2="5" stroke="#888" stroke-width="1" opacity="1"/><line transform="translate(150,0)" x2="0" y2="5" stroke="#888" stroke-width="1" opacity="1"/><line transform="translate(200,0)" x2="0" y2="5" stroke="#888" stroke-width="1" opacity="1"/><line transform="translate(250,0)" x2="0" y2="5" stroke="#888" stroke-width="1" opacity="1"/><line transform="translate(300,0)" x2="0" y2="5" stroke="#888" stroke-width="1" opacity="1"/><line transform="translate(350,0)" x2="0" y2="5" stroke="#888" stroke-width="1" opacity="1"/><line transform="translate(400,0)" x2="0" y2="5" stroke="#888" stroke-width="1" opacity="1"/></g><g class="mark-text role-axis-label" pointer-events="none"><text text-anchor="start" transform="translate(0,15)" font-family="sans-serif" font-size="10px" fill="#000" opacity="1">0</text><text text-anchor="middle" transform="translate(50,15)" font-family="sans-serif" font-size="10px" fill="#000" opacity="0">200,000</text><text text-anchor="middle" transform="translate(100,15)" font-family="sans-serif" font-size="10px" fill="#000" opacity="1">400,000</text><text text-anchor="middle" transform="translate(150,15)" font-family="sans-serif" font-size="10px" fill="#000" opacity="0">600,000</text><text text-anchor="middle" transform="translate(200,15)" font-family="sans-serif" font-size="10px" fill="#000" opacity="1">800,000</text><text text-anchor="middle" transform="translate(250,15)" font-family="sans-serif" font-size="10px" fill="#000" opacity="0">1,000,000</text><text text-anchor="middle" transform="translate(300,15)" font-family="sans-serif" font-size="10px" fill="#000" opacity="1">1,200,000</text><text text-anchor="middle" transform="translate(350,15)" font-family="sans-serif" font-size="10px" fill="#000" opacity="0">1,400,000</text><text text-anchor="end" transform="translate(400,15)" font-family="sans-serif" font-size="10px" fill="#000" opacity="1">1,600,000</text></g><g class="mark-rule role-axis-domain" pointer-events="none"><line transform="translate(0,0)" x2="400" y2="0" stroke="#888" stroke-width="1" opacity="1"/></g><g class="mark-text role-axis-title" pointer-events="none"><text text-anchor="middle" transform="translate(200,30)" font-family="sans-serif" font-size="11px" font-weight="bold" fill="#000" opacity="1">Training set size</text></g></g><path class="foreground" aria-hidden="true" d="" pointer-events="none" display="none"/></g></g><g class="mark-group role-axis" role="graphics-symbol" aria-roledescription="axis" aria-label="Y-axis titled '0.3% estimate' for a linear scale with values from 0.16 to 0.46"><g transform="translate(0.5,0.5)"><path class="background" aria-hidden="true" d="M0,0h0v0h0Z" pointer-events="none"/><g><g class="mark-rule role-axis-tick" pointer-events="none"><line transform="translate(0,173)" x2="-5" y2="0" stroke="#888" stroke-width="1" opacity="1"/><line transform="translate(0,140)" x2="-5" y2="0" stroke="#888" stroke-width="1" opacity="1"/><line transform="translate(0,107)" x2="-5" y2="0" stroke="#888" stroke-width="1" opacity="1"/><line transform="translate(0,73)" x2="-5" y2="0" stroke="#888" stroke-width="1" opacity="1"/><line transform="translate(0,40)" x2="-5" y2="0" stroke="#888" stroke-width="1" opacity="1"/><line transform="translate(0,7)" x2="-5" y2="0" stroke="#888" stroke-width="1" opacity="1"/></g><g class="mark-text role-axis-label" pointer-events="none"><text text-anchor="end" transform="translate(-7,176.33333333333334)" font-family="sans-serif" font-size="10px" fill="#000" opacity="1">0.20</text><text text-anchor="end" transform="translate(-7,143)" font-family="sans-serif" font-size="10px" fill="#000" opacity="1">0.25</text><text text-anchor="end" transform="translate(-7,109.66666666666669)" font-family="sans-serif" font-size="10px" fill="#000" opacity="1">0.30</text><text text-anchor="end" transform="translate(-7,76.33333333333336)" font-family="sans-serif" font-size="10px" fill="#000" opacity="1">0.35</text><text text-anchor="end" transform="translate(-7,43.000000000000014)" font-family="sans-serif" font-size="10px" fill="#000" opacity="1">0.40</text><text text-anchor="end" transform="translate(-7,9.666666666666664)" font-family="sans-serif" font-size="10px" fill="#000" opacity="1">0.45</text></g><g class="mark-rule role-axis-domain" pointer-events="none"><line transform="translate(0,200)" x2="0" y2="-200" stroke="#888" stroke-width="1" opacity="1"/></g><g class="mark-text role-axis-title" pointer-events="none"><text text-anchor="middle" transform="translate(-30.46666717529297,100) rotate(-90) translate(0,-2)" font-family="sans-serif" font-size="11px" font-weight="bold" fill="#000" opacity="1">0.3% estimate</text></g></g><path class="foreground" aria-hidden="true" d="" pointer-events="none" display="none"/></g></g><g class="mark-group role-scope concat_1_pathgroup" role="graphics-object" aria-roledescription="group mark container"><g transform="translate(0,0)"><path class="background" aria-hidden="true" d="M0,0h400v200h-400Z"/><g><g class="mark-line role-mark concat_1_marks" role="graphics-symbol" aria-roledescription="line mark container"><path d="M2.5,119.51620033653035L3.5757499999999998,113.04175788457293L5.1145000000000005,112.52277699881566L7.3155,126.75698839549388L10.4635,125.29635861288186L14.96625,113.04175788457293L21.4065,93.84085090831095L30.618499999999997,123.8038555048429L43.7945,102.29836852053187L62.640499999999996,119.51620033653035L89.59625,103.34325927583494L128.152,95.46431180995228L183.29925,109.95004531815238L262.17775,106.41349199251123L375,109.95004531815238" stroke="#4c78a8" stroke-width="2" opacity="0.1"/></g></g><path class="foreground" aria-hidden="true" d="" display="none"/></g><g transform="translate(0,0)"><path class="background" aria-hidden="true" d="M0,0h400v200h-400Z"/><g><g class="mark-line role-mark concat_1_marks" role="graphics-symbol" aria-roledescription="line mark container"><path d="M2.5,160.38196092423843L3.5757499999999998,92.75992943730782L5.1145000000000005,66.4554282810943L7.3155,109.95004531815238L10.4635,100.19334324559115L14.96625,99.68267714038002L21.4065,103.34325927583494L30.618499999999997,102.29836852053187L43.7945,98.12781317824471L62.640499999999996,103.34325927583494L89.59625,112.52277699881566L128.152,99.16369625462266L183.29925,110.45101084605957L262.17775,107.40710826777953L375,108.88713920499922" stroke="#4c78a8" stroke-width="2" opacity="0.1"/></g></g><path class="foreground" aria-hidden="true" d="" display="none"/></g><g transform="translate(0,0)"><path class="background" aria-hidden="true" d="M0,0h400v200h-400Z"/><g><g class="mark-line role-mark concat_1_marks" role="graphics-symbol" aria-roledescription="line mark container"><path d="M2.5,44.3263327558199L3.5757499999999998,109.95004531815238L5.1145000000000005,122.82063270525734L7.3155,101.23546240737875L10.4635,126.27057373354245L14.96625,114.5640556229024L21.4065,96.49673039443607L30.618499999999997,106.41349199251123L43.7945,116.0323072876817L62.640499999999996,98.12781317824471L89.59625,113.04175788457293L128.152,100.19334324559115L183.29925,107.40710826777953L262.17775,104.9071309168953L375,104.9071309168953" stroke="#4c78a8" stroke-width="2" opacity="0.1"/></g></g><path class="foreground" aria-hidden="true" d="" display="none"/></g><g transform="translate(0,0)"><path class="background" aria-hidden="true" d="M0,0h400v200h-400Z"/><g><g class="mark-line role-mark concat_1_marks" role="graphics-symbol" aria-roledescription="line mark container"><path d="M2.5,130.03439772744576L3.5757499999999998,77.88270834505849L5.1145000000000005,118.0444841798568L7.3155,71.05973800854048L10.4635,94.93493744851227L14.96625,120.45507763986967L21.4065,111.47303595486069L30.618499999999997,93.84085090831095L43.7945,100.72341050540994L62.640499999999996,117.54698314384386L89.59625,113.04175788457293L128.152,108.39102396574395L183.29925,107.40710826777953L262.17775,107.40710826777953L375,106.90960723176653" stroke="#4c78a8" stroke-width="2" opacity="0.1"/></g></g><path class="foreground" aria-hidden="true" d="" display="none"/></g><g transform="translate(0,0)"><path class="background" aria-hidden="true" d="M0,0h400v200h-400Z"/><g><g class="mark-line role-mark concat_1_marks" role="graphics-symbol" aria-roledescription="line mark container"><path d="M2.5,68.18282393956277L3.5757499999999998,110.94366159342066L5.1145000000000005,100.19334324559115L7.3155,91.18150693029168L10.4635,93.84085090831095L14.96625,86.83564829815586L21.4065,109.44215080645665L30.618499999999997,119.99707181145101L43.7945,107.91569567785409L62.640499999999996,109.95004531815238L89.59625,118.0444841798568L128.152,105.41017513993908L183.29925,106.90960723176653L262.17775,109.95004531815238L375,111.98508785682948" stroke="#4c78a8" stroke-width="2" opacity="0.1"/></g></g><path class="foreground" aria-hidden="true" d="" display="none"/></g><g transform="translate(0,0)"><path class="background" aria-hidden="true" d="M0,0h400v200h-400Z"/><g><g class="mark-line role-mark concat_1_marks" role="graphics-symbol" aria-roledescription="line mark container"><path d="M2.5,144.4633135685803L3.5757499999999998,77.34571210145114L5.1145000000000005,95.98259979733068L7.3155,127.69655859721199L10.4635,127.22677349635293L14.96625,89.00234152881407L21.4065,122.82063270525734L30.618499999999997,101.23546240737875L43.7945,119.51620033653035L62.640499999999996,102.29836852053187L89.59625,118.0444841798568L128.152,120.45507763986967L183.29925,99.68267714038002L262.17775,106.41349199251123L375,111.98508785682948" stroke="#4c78a8" stroke-width="2" opacity="0.1"/></g></g><path class="foreground" aria-hidden="true" d="" display="none"/></g><g transform="translate(0,0)"><path class="background" aria-hidden="true" d="M0,0h400v200h-400Z"/><g><g class="mark-line role-mark concat_1_marks" role="graphics-symbol" aria-roledescription="line mark container"><path d="M2.5,123.8038555048429L3.5757499999999998,138.28543162276992L5.1145000000000005,95.46431180995228L7.3155,127.69655859721199L10.4635,94.36953237137213L14.96625,104.41655886467076L21.4065,130.03439772744576L30.618499999999997,109.44215080645665L43.7945,95.98259979733068L62.640499999999996,106.41349199251123L89.59625,114.5640556229024L128.152,104.9071309168953L183.29925,102.80557013384876L262.17775,109.95004531815238L375,104.9071309168953" stroke="#4c78a8" stroke-width="2" opacity="0.1"/></g></g><path class="foreground" aria-hidden="true" d="" display="none"/></g><g transform="translate(0,0)"><path class="background" aria-hidden="true" d="M0,0h400v200h-400Z"/><g><g class="mark-line role-mark concat_1_marks" role="graphics-symbol" aria-roledescription="line mark container"><path d="M2.5,109.44215080645665L3.5757499999999998,79.57961647485767L5.1145000000000005,84.07929854709776L7.3155,97.04134852021073L10.4635,98.12781317824471L14.96625,80.16927299525749L21.4065,118.54960709803714L30.618499999999997,114.05823980634327L43.7945,114.5640556229024L62.640499999999996,113.04175788457293L89.59625,107.40710826777953L128.152,109.95004531815238L183.29925,117.04948210783084L262.17775,106.41349199251123L375,110.94366159342066" stroke="#4c78a8" stroke-width="2" opacity="0.1"/></g></g><path class="foreground" aria-hidden="true" d="" display="none"/></g><g transform="translate(0,0)"><path class="background" aria-hidden="true" d="M0,0h400v200h-400Z"/><g><g class="mark-line role-mark concat_1_marks" role="graphics-symbol" aria-roledescription="line mark container"><path d="M2.5,81.88419648290677L3.5757499999999998,149.24708397614816L5.1145000000000005,107.91569567785409L7.3155,119.99707181145101L10.4635,79.57961647485767L14.96625,85.7519552336373L21.4065,102.29836852053187L30.618499999999997,126.75698839549388L43.7945,114.05823980634327L62.640499999999996,100.72341050540994L89.59625,107.91569567785409L128.152,106.90960723176653L183.29925,109.44215080645665L262.17775,97.59913171518353L375,108.39102396574395" stroke="#4c78a8" stroke-width="2" opacity="0.1"/></g></g><path class="foreground" aria-hidden="true" d="" display="none"/></g><g transform="translate(0,0)"><path class="background" aria-hidden="true" d="M0,0h400v200h-400Z"/><g><g class="mark-line role-mark concat_1_marks" role="graphics-symbol" aria-roledescription="line mark container"><path d="M2.5,109.95004531815238L3.5757499999999998,106.41349199251123L5.1145000000000005,100.19334324559115L7.3155,97.59913171518353L10.4635,110.94366159342066L14.96625,117.04948210783084L21.4065,130.03439772744576L30.618499999999997,103.88718450323076L43.7945,107.91569567785409L62.640499999999996,108.39102396574395L89.59625,114.05823980634327L128.152,103.88718450323076L183.29925,107.40710826777953L262.17775,105.41017513993908L375,104.41655886467076" stroke="#4c78a8" stroke-width="2" opacity="0.1"/></g></g><path class="foreground" aria-hidden="true" d="" display="none"/></g><g transform="translate(0,0)"><path class="background" aria-hidden="true" d="M0,0h400v200h-400Z"/><g><g class="mark-line role-mark concat_1_marks" role="graphics-symbol" aria-roledescription="line mark container"><path d="M2.5,93.3017759695671L3.5757499999999998,75.58505732079794L5.1145000000000005,87.35185759039774L7.3155,79.03915573935613L10.4635,118.54960709803714L14.96625,114.5640556229024L21.4065,100.19334324559115L30.618499999999997,99.68267714038002L43.7945,105.41017513993908L62.640499999999996,120.93040592775948L89.59625,101.23546240737875L128.152,104.41655886467076L183.29925,105.94232109489448L262.17775,108.39102396574395L375,100.72341050540994" stroke="#4c78a8" stroke-width="2" opacity="0.1"/></g></g><path class="foreground" aria-hidden="true" d="" display="none"/></g><g transform="translate(0,0)"><path class="background" aria-hidden="true" d="M0,0h400v200h-400Z"/><g><g class="mark-line role-mark concat_1_marks" role="graphics-symbol" aria-roledescription="line mark container"><path d="M2.5,103.88718450323076L3.5757499999999998,98.12781317824471L5.1145000000000005,143.15789302283034L7.3155,125.80910341322955L10.4635,110.94366159342066L14.96625,122.34669021412516L21.4065,85.18169986784523L30.618499999999997,122.34669021412516L43.7945,106.41349199251123L62.640499999999996,109.95004531815238L89.59625,106.90960723176653L128.152,107.91569567785409L183.29925,107.40710826777953L262.17775,99.68267714038002L375,110.45101084605957" stroke="#4c78a8" stroke-width="2" opacity="0.1"/></g></g><path class="foreground" aria-hidden="true" d="" display="none"/></g><g transform="translate(0,0)"><path class="background" aria-hidden="true" d="M0,0h400v200h-400Z"/><g><g class="mark-line role-mark concat_1_marks" role="graphics-symbol" aria-roledescription="line mark container"><path d="M2.5,60.050968565400574L3.5757499999999998,135.60114330311202L5.1145000000000005,110.94366159342066L7.3155,122.34669021412516L10.4635,128.13585616940176L14.96625,91.71157419011054L21.4065,121.88591279219114L30.618499999999997,109.95004531815238L43.7945,108.39102396574395L62.640499999999996,119.51620033653035L89.59625,105.41017513993908L128.152,101.23546240737875L183.29925,109.95004531815238L262.17775,101.23546240737875L375,113.04175788457293" stroke="#4c78a8" stroke-width="2" opacity="0.1"/></g></g><path class="foreground" aria-hidden="true" d="" display="none"/></g><g transform="translate(0,0)"><path class="background" aria-hidden="true" d="M0,0h400v200h-400Z"/><g><g class="mark-line role-mark concat_1_marks" role="graphics-symbol" aria-roledescription="line mark container"><path d="M2.5,85.7519552336373L3.5757499999999998,97.59913171518353L5.1145000000000005,88.43277906140088L7.3155,116.53327281558892L10.4635,79.03915573935613L14.96625,116.0323072876817L21.4065,110.94366159342066L30.618499999999997,104.41655886467076L43.7945,113.54272341248017L62.640499999999996,103.88718450323076L89.59625,92.75992943730782L128.152,109.44215080645665L183.29925,105.94232109489448L262.17775,107.40710826777953L375,106.90960723176653" stroke="#4c78a8" stroke-width="2" opacity="0.1"/></g></g><path class="foreground" aria-hidden="true" d="" display="none"/></g><g transform="translate(0,0)"><path class="background" aria-hidden="true" d="M0,0h400v200h-400Z"/><g><g class="mark-line role-mark concat_1_marks" role="graphics-symbol" aria-roledescription="line mark container"><path d="M2.5,124.79054279632274L3.5757499999999998,57.66670524378392L5.1145000000000005,107.91569567785409L7.3155,103.88718450323076L10.4635,100.19334324559115L14.96625,99.68267714038002L21.4065,112.52277699881566L30.618499999999997,104.41655886467076L43.7945,114.05823980634327L62.640499999999996,108.88713920499922L89.59625,112.52277699881566L128.152,110.94366159342066L183.29925,104.9071309168953L262.17775,104.41655886467076L375,106.41349199251123" stroke="#4c78a8" stroke-width="2" opacity="0.1"/></g></g><path class="foreground" aria-hidden="true" d="" display="none"/></g><g transform="translate(0,0)"><path class="background" aria-hidden="true" d="M0,0h400v200h-400Z"/><g><g class="mark-line role-mark concat_1_marks" role="graphics-symbol" aria-roledescription="line mark container"><path d="M2.5,80.7443786497015L3.5757499999999998,83.55200288079432L5.1145000000000005,144.4633135685803L7.3155,121.88591279219114L10.4635,108.88713920499922L14.96625,119.99707181145101L21.4065,111.98508785682948L30.618499999999997,95.46431180995228L43.7945,110.94366159342066L62.640499999999996,102.80557013384876L89.59625,103.88718450323076L128.152,102.29836852053187L183.29925,104.9071309168953L262.17775,109.44215080645665L375,104.9071309168953" stroke="#4c78a8" stroke-width="2" opacity="0.1"/></g></g><path class="foreground" aria-hidden="true" d="" display="none"/></g><g transform="translate(0,0)"><path class="background" aria-hidden="true" d="M0,0h400v200h-400Z"/><g><g class="mark-line role-mark concat_1_marks" role="graphics-symbol" aria-roledescription="line mark container"><path d="M2.5,164.3855277572232L3.5757499999999998,119.99707181145101L5.1145000000000005,120.93040592775948L7.3155,107.91569567785409L10.4635,135.60114330311202L14.96625,109.95004531815238L21.4065,109.44215080645665L30.618499999999997,103.34325927583494L43.7945,108.88713920499922L62.640499999999996,109.95004531815238L89.59625,110.45101084605957L128.152,115.05947796377885L183.29925,109.44215080645665L262.17775,113.54272341248017L375,104.9071309168953" stroke="#4c78a8" stroke-width="2" opacity="0.1"/></g></g><path class="foreground" aria-hidden="true" d="" display="none"/></g><g transform="translate(0,0)"><path class="background" aria-hidden="true" d="M0,0h400v200h-400Z"/><g><g class="mark-line role-mark concat_1_marks" role="graphics-symbol" aria-roledescription="line mark container"><path d="M2.5,100.19334324559115L3.5757499999999998,150.09103420158522L5.1145000000000005,143.15789302283034L7.3155,87.87638166318584L10.4635,132.86419470666172L14.96625,95.98259979733068L21.4065,134.2091104600061L30.618499999999997,111.47303595486069L43.7945,101.7537503947572L62.640499999999996,93.3017759695671L89.59625,115.52649147112253L128.152,96.49673039443607L183.29925,113.54272341248017L262.17775,102.80557013384876L375,102.29836852053187" stroke="#4c78a8" stroke-width="2" opacity="0.1"/></g></g><path class="foreground" aria-hidden="true" d="" display="none"/></g><g transform="translate(0,0)"><path class="background" aria-hidden="true" d="M0,0h400v200h-400Z"/><g><g class="mark-line role-mark concat_1_marks" role="graphics-symbol" aria-roledescription="line mark container"><path d="M2.5,180.2917029420621L3.5757499999999998,119.99707181145101L5.1145000000000005,95.46431180995228L7.3155,101.23546240737875L10.4635,110.45101084605957L14.96625,97.59913171518353L21.4065,100.72341050540994L30.618499999999997,90.07564111764997L43.7945,111.47303595486069L62.640499999999996,90.07564111764997L89.59625,97.59913171518353L128.152,109.44215080645665L183.29925,109.44215080645665L262.17775,104.41655886467076L375,108.88713920499922" stroke="#4c78a8" stroke-width="2" opacity="0.1"/></g></g><path class="foreground" aria-hidden="true" d="" display="none"/></g><g transform="translate(0,0)"><path class="background" aria-hidden="true" d="M0,0h400v200h-400Z"/><g><g class="mark-line role-mark concat_1_marks" role="graphics-symbol" aria-roledescription="line mark container"><path d="M2.5,109.95004531815238L3.5757499999999998,124.79054279632274L5.1145000000000005,94.36953237137213L7.3155,102.80557013384876L10.4635,108.39102396574395L14.96625,123.28903200935866L21.4065,124.27502640245969L30.618499999999997,119.04433654053479L43.7945,102.29836852053187L62.640499999999996,81.88419648290677L89.59625,100.19334324559115L128.152,106.41349199251123L183.29925,109.44215080645665L262.17775,103.34325927583494L375,107.40710826777953" stroke="#4c78a8" stroke-width="2" opacity="0.1"/></g></g><path class="foreground" aria-hidden="true" d="" display="none"/></g><g transform="translate(0,0)"><path class="background" aria-hidden="true" d="M0,0h400v200h-400Z"/><g><g class="mark-line role-mark concat_1_marks" role="graphics-symbol" aria-roledescription="line mark container"><path d="M2.5,73.32135831710089L3.5757499999999998,103.88718450323076L5.1145000000000005,97.04134852021073L7.3155,119.99707181145101L10.4635,107.40710826777953L14.96625,123.8038555048429L21.4065,118.54960709803714L30.618499999999997,105.41017513993908L43.7945,109.44215080645665L62.640499999999996,106.41349199251123L89.59625,101.23546240737875L128.152,105.41017513993908L183.29925,106.90960723176653L262.17775,108.88713920499922L375,110.45101084605957" stroke="#4c78a8" stroke-width="2" opacity="0.1"/></g></g><path class="foreground" aria-hidden="true" d="" display="none"/></g><g transform="translate(0,0)"><path class="background" aria-hidden="true" d="M0,0h400v200h-400Z"/><g><g class="mark-line role-mark concat_1_marks" role="graphics-symbol" aria-roledescription="line mark container"><path d="M2.5,98.66758101536742L3.5757499999999998,115.52649147112253L5.1145000000000005,121.40088392699744L7.3155,99.16369625462266L10.4635,110.94366159342066L14.96625,119.51620033653035L21.4065,110.94366159342066L30.618499999999997,112.52277699881566L43.7945,118.54960709803714L62.640499999999996,107.91569567785409L89.59625,101.7537503947572L128.152,108.39102396574395L183.29925,108.39102396574395L262.17775,107.91569567785409L375,106.41349199251123" stroke="#4c78a8" stroke-width="2" opacity="0.1"/></g></g><path class="foreground" aria-hidden="true" d="" display="none"/></g><g transform="translate(0,0)"><path class="background" aria-hidden="true" d="M0,0h400v200h-400Z"/><g><g class="mark-line role-mark concat_1_marks" role="graphics-symbol" aria-roledescription="line mark container"><path d="M2.5,49.79052937141668L3.5757499999999998,127.69655859721199L5.1145000000000005,99.68267714038002L7.3155,92.75992943730782L10.4635,84.07929854709776L14.96625,115.52649147112253L21.4065,113.54272341248017L30.618499999999997,113.54272341248017L43.7945,102.29836852053187L62.640499999999996,111.98508785682948L89.59625,107.91569567785409L128.152,101.7537503947572L183.29925,103.88718450323076L262.17775,108.88713920499922L375,107.40710826777953" stroke="#4c78a8" stroke-width="2" opacity="0.1"/></g></g><path class="foreground" aria-hidden="true" d="" display="none"/></g><g transform="translate(0,0)"><path class="background" aria-hidden="true" d="M0,0h400v200h-400Z"/><g><g class="mark-line role-mark concat_1_marks" role="graphics-symbol" aria-roledescription="line mark container"><path d="M2.5,140.94061821051613L3.5757499999999998,81.88419648290677L5.1145000000000005,135.60114330311202L7.3155,153.43565467628542L10.4635,86.28895147724462L14.96625,119.51620033653035L21.4065,114.05823980634327L30.618499999999997,112.52277699881566L43.7945,114.05823980634327L62.640499999999996,106.90960723176653L89.59625,103.88718450323076L128.152,107.40710826777953L183.29925,100.19334324559115L262.17775,110.94366159342066L375,109.95004531815238" stroke="#4c78a8" stroke-width="2" opacity="0.1"/></g></g><path class="foreground" aria-hidden="true" d="" display="none"/></g><g transform="translate(0,0)"><path class="background" aria-hidden="true" d="M0,0h400v200h-400Z"/><g><g class="mark-line role-mark concat_1_marks" role="graphics-symbol" aria-roledescription="line mark container"><path d="M2.5,114.05823980634327L3.5757499999999998,100.72341050540994L5.1145000000000005,90.07564111764997L7.3155,133.76426970078558L10.4635,87.35185759039774L14.96625,133.31665734804963L21.4065,94.36953237137213L30.618499999999997,86.83564829815586L43.7945,109.44215080645665L62.640499999999996,102.80557013384876L89.59625,114.05823980634327L128.152,104.41655886467076L183.29925,105.41017513993908L262.17775,108.39102396574395L375,106.41349199251123" stroke="#4c78a8" stroke-width="2" opacity="0.1"/></g></g><path class="foreground" aria-hidden="true" d="" display="none"/></g><g transform="translate(0,0)"><path class="background" aria-hidden="true" d="M0,0h400v200h-400Z"/><g><g class="mark-line role-mark concat_1_marks" role="graphics-symbol" aria-roledescription="line mark container"><path d="M2.5,92.75992943730782L3.5757499999999998,110.94366159342066L5.1145000000000005,118.0444841798568L7.3155,128.13585616940176L10.4635,115.05947796377885L14.96625,107.40710826777953L21.4065,106.90960723176653L30.618499999999997,99.16369625462266L43.7945,105.94232109489448L62.640499999999996,105.41017513993908L89.59625,99.68267714038002L128.152,107.40710826777953L183.29925,112.52277699881566L262.17775,105.94232109489448L375,107.40710826777953" stroke="#4c78a8" stroke-width="2" opacity="0.1"/></g></g><path class="foreground" aria-hidden="true" d="" display="none"/></g><g transform="translate(0,0)"><path class="background" aria-hidden="true" d="M0,0h400v200h-400Z"/><g><g class="mark-line role-mark concat_1_marks" role="graphics-symbol" aria-roledescription="line mark container"><path d="M2.5,48.59874415979779L3.5757499999999998,130.94902358752537L5.1145000000000005,99.68267714038002L7.3155,109.95004531815238L10.4635,85.7519552336373L14.96625,119.99707181145101L21.4065,105.94232109489448L30.618499999999997,104.9071309168953L43.7945,107.91569567785409L62.640499999999996,111.98508785682948L89.59625,107.40710826777953L128.152,104.9071309168953L183.29925,109.44215080645665L262.17775,103.88718450323076L375,107.91569567785409" stroke="#4c78a8" stroke-width="2" opacity="0.1"/></g></g><path class="foreground" aria-hidden="true" d="" display="none"/></g><g transform="translate(0,0)"><path class="background" aria-hidden="true" d="M0,0h400v200h-400Z"/><g><g class="mark-line role-mark concat_1_marks" role="graphics-symbol" aria-roledescription="line mark container"><path d="M2.5,147.95829299149054L3.5757499999999998,104.9071309168953L5.1145000000000005,64.15916305359141L7.3155,119.99707181145101L10.4635,92.25134202723328L14.96625,90.63065271910735L21.4065,117.04948210783084L30.618499999999997,116.0323072876817L43.7945,99.16369625462266L62.640499999999996,103.34325927583494L89.59625,106.90960723176653L128.152,108.88713920499922L183.29925,99.68267714038002L262.17775,111.47303595486069L375,106.41349199251123" stroke="#4c78a8" stroke-width="2" opacity="0.1"/></g></g><path class="foreground" aria-hidden="true" d="" display="none"/></g><g transform="translate(0,0)"><path class="background" aria-hidden="true" d="M0,0h400v200h-400Z"/><g><g class="mark-line role-mark concat_1_marks" role="graphics-symbol" aria-roledescription="line mark container"><path d="M2.5,137.3818921367519L3.5757499999999998,72.18846946768413L5.1145000000000005,104.41655886467076L7.3155,92.75992943730782L10.4635,52.30782918177211L14.96625,108.39102396574395L21.4065,110.94366159342066L30.618499999999997,117.54698314384386L43.7945,85.18169986784523L62.640499999999996,100.72341050540994L89.59625,110.94366159342066L128.152,100.72341050540994L183.29925,99.68267714038002L262.17775,102.80557013384876L375,106.90960723176653" stroke="#4c78a8" stroke-width="2" opacity="0.1"/></g></g><path class="foreground" aria-hidden="true" d="" display="none"/></g><g transform="translate(0,0)"><path class="background" aria-hidden="true" d="M0,0h400v200h-400Z"/><g><g class="mark-line role-mark concat_1_marks" role="graphics-symbol" aria-roledescription="line mark container"><path d="M2.5,69.92130597209287L3.5757499999999998,109.44215080645665L5.1145000000000005,74.44523948759263L7.3155,100.19334324559115L10.4635,115.05947796377885L14.96625,92.75992943730782L21.4065,99.16369625462266L30.618499999999997,96.49673039443607L43.7945,106.90960723176653L62.640499999999996,115.05947796377885L89.59625,109.44215080645665L128.152,115.52649147112253L183.29925,108.39102396574395L262.17775,107.40710826777953L375,106.90960723176653" stroke="#4c78a8" stroke-width="2" opacity="0.1"/></g></g><path class="foreground" aria-hidden="true" d="" display="none"/></g><g transform="translate(0,0)"><path class="background" aria-hidden="true" d="M0,0h400v200h-400Z"/><g><g class="mark-line role-mark concat_1_marks" role="graphics-symbol" aria-roledescription="line mark container"><path d="M2.5,59.471705520683415L3.5757499999999998,55.27343424324231L5.1145000000000005,65.87477943961947L7.3155,93.84085090831095L10.4635,97.59913171518353L14.96625,109.44215080645665L21.4065,103.34325927583494L30.618499999999997,90.63065271910735L43.7945,103.88718450323076L62.640499999999996,111.47303595486069L89.59625,104.41655886467076L128.152,102.80557013384876L183.29925,106.90960723176653L262.17775,107.91569567785409L375,110.45101084605957" stroke="#4c78a8" stroke-width="2" opacity="0.1"/></g></g><path class="foreground" aria-hidden="true" d="" display="none"/></g><g transform="translate(0,0)"><path class="background" aria-hidden="true" d="M0,0h400v200h-400Z"/><g><g class="mark-line role-mark concat_1_marks" role="graphics-symbol" aria-roledescription="line mark container"><path d="M2.5,2.255621887294823L3.5757499999999998,106.41349199251123L5.1145000000000005,85.7519552336373L7.3155,108.39102396574395L10.4635,98.66758101536742L14.96625,97.59913171518353L21.4065,110.45101084605957L30.618499999999997,97.04134852021073L43.7945,107.40710826777953L62.640499999999996,108.39102396574395L89.59625,107.91569567785409L128.152,110.94366159342066L183.29925,112.52277699881566L262.17775,109.95004531815238L375,106.41349199251123" stroke="#4c78a8" stroke-width="2" opacity="0.1"/></g></g><path class="foreground" aria-hidden="true" d="" display="none"/></g><g transform="translate(0,0)"><path class="background" aria-hidden="true" d="M0,0h400v200h-400Z"/><g><g class="mark-line role-mark concat_1_marks" role="graphics-symbol" aria-roledescription="line mark container"><path d="M2.5,122.34669021412516L3.5757499999999998,74.99470790201927L5.1145000000000005,89.00234152881407L7.3155,112.52277699881566L10.4635,116.53327281558892L14.96625,113.04175788457293L21.4065,116.0323072876817L30.618499999999997,120.45507763986967L43.7945,111.98508785682948L62.640499999999996,114.5640556229024L89.59625,110.94366159342066L128.152,95.46431180995228L183.29925,104.41655886467076L262.17775,108.88713920499922L375,104.9071309168953" stroke="#4c78a8" stroke-width="2" opacity="0.1"/></g></g><path class="foreground" aria-hidden="true" d="" display="none"/></g><g transform="translate(0,0)"><path class="background" aria-hidden="true" d="M0,0h400v200h-400Z"/><g><g class="mark-line role-mark concat_1_marks" role="graphics-symbol" aria-roledescription="line mark container"><path d="M2.5,120.45507763986967L3.5757499999999998,121.40088392699744L5.1145000000000005,29.788631869206128L7.3155,109.44215080645665L10.4635,119.51620033653035L14.96625,94.93493744851227L21.4065,106.90960723176653L30.618499999999997,94.36953237137213L43.7945,116.0323072876817L62.640499999999996,106.90960723176653L89.59625,100.72341050540994L128.152,106.90960723176653L183.29925,113.54272341248017L262.17775,113.54272341248017L375,103.88718450323076" stroke="#4c78a8" stroke-width="2" opacity="0.1"/></g></g><path class="foreground" aria-hidden="true" d="" display="none"/></g><g transform="translate(0,0)"><path class="background" aria-hidden="true" d="M0,0h400v200h-400Z"/><g><g class="mark-line role-mark concat_1_marks" role="graphics-symbol" aria-roledescription="line mark container"><path d="M2.5,96.49673039443607L3.5757499999999998,87.35185759039774L5.1145000000000005,73.87706281693715L7.3155,113.04175788457293L10.4635,103.34325927583494L14.96625,119.99707181145101L21.4065,113.54272341248017L30.618499999999997,107.91569567785409L43.7945,98.12781317824471L62.640499999999996,121.88591279219114L89.59625,106.41349199251123L128.152,104.41655886467076L183.29925,104.41655886467076L262.17775,102.29836852053187L375,107.40710826777953" stroke="#4c78a8" stroke-width="2" opacity="0.1"/></g></g><path class="foreground" aria-hidden="true" d="" display="none"/></g><g transform="translate(0,0)"><path class="background" aria-hidden="true" d="M0,0h400v200h-400Z"/><g><g class="mark-line role-mark concat_1_marks" role="graphics-symbol" aria-roledescription="line mark container"><path d="M2.5,128.13585616940176L3.5757499999999998,102.29836852053187L5.1145000000000005,106.90960723176653L7.3155,107.91569567785409L10.4635,129.0913630338334L14.96625,119.99707181145101L21.4065,104.41655886467076L30.618499999999997,101.7537503947572L43.7945,101.23546240737875L62.640499999999996,108.39102396574395L89.59625,113.54272341248017L128.152,103.88718450323076L183.29925,109.44215080645665L262.17775,107.40710826777953L375,107.40710826777953" stroke="#4c78a8" stroke-width="2" opacity="0.1"/></g></g><path class="foreground" aria-hidden="true" d="" display="none"/></g><g transform="translate(0,0)"><path class="background" aria-hidden="true" d="M0,0h400v200h-400Z"/><g><g class="mark-line role-mark concat_1_marks" role="graphics-symbol" aria-roledescription="line mark container"><path d="M2.5,111.98508785682948L3.5757499999999998,121.40088392699744L5.1145000000000005,84.62391667287248L7.3155,109.95004531815238L10.4635,98.66758101536742L14.96625,102.80557013384876L21.4065,125.29635861288186L30.618499999999997,100.72341050540994L43.7945,93.84085090831095L62.640499999999996,102.29836852053187L89.59625,101.23546240737875L128.152,104.9071309168953L183.29925,107.91569567785409L262.17775,108.39102396574395L375,104.41655886467076" stroke="#4c78a8" stroke-width="2" opacity="0.1"/></g></g><path class="foreground" aria-hidden="true" d="" display="none"/></g><g transform="translate(0,0)"><path class="background" aria-hidden="true" d="M0,0h400v200h-400Z"/><g><g class="mark-line role-mark concat_1_marks" role="graphics-symbol" aria-roledescription="line mark container"><path d="M2.5,98.66758101536742L3.5757499999999998,139.63796925828154L5.1145000000000005,148.3865041896187L7.3155,77.34571210145114L10.4635,111.47303595486069L14.96625,119.04433654053479L21.4065,115.52649147112253L30.618499999999997,100.19334324559115L43.7945,94.93493744851227L62.640499999999996,96.49673039443607L89.59625,109.95004531815238L128.152,102.80557013384876L183.29925,112.52277699881566L262.17775,112.52277699881566L375,107.40710826777953" stroke="#4c78a8" stroke-width="2" opacity="0.1"/></g></g><path class="foreground" aria-hidden="true" d="" display="none"/></g><g transform="translate(0,0)"><path class="background" aria-hidden="true" d="M0,0h400v200h-400Z"/><g><g class="mark-line role-mark concat_1_marks" role="graphics-symbol" aria-roledescription="line mark container"><path d="M2.5,114.05823980634327L3.5757499999999998,58.282691902579955L5.1145000000000005,71.64038685001522L7.3155,103.34325927583494L10.4635,114.5640556229024L14.96625,121.40088392699744L21.4065,112.52277699881566L30.618499999999997,92.25134202723328L43.7945,86.83564829815586L62.640499999999996,95.98259979733068L89.59625,98.66758101536742L128.152,112.52277699881566L183.29925,113.04175788457293L262.17775,107.91569567785409L375,101.7537503947572" stroke="#4c78a8" stroke-width="2" opacity="0.1"/></g></g><path class="foreground" aria-hidden="true" d="" display="none"/></g><g transform="translate(0,0)"><path class="background" aria-hidden="true" d="M0,0h400v200h-400Z"/><g><g class="mark-line role-mark concat_1_marks" role="graphics-symbol" aria-roledescription="line mark container"><path d="M2.5,60.050968565400574L3.5757499999999998,147.51275933389115L5.1145000000000005,98.66758101536742L7.3155,124.27502640245969L10.4635,83.55200288079432L14.96625,113.04175788457293L21.4065,104.9071309168953L30.618499999999997,99.68267714038002L43.7945,100.72341050540994L62.640499999999996,95.46431180995228L89.59625,107.40710826777953L128.152,103.34325927583494L183.29925,106.41349199251123L262.17775,106.41349199251123L375,103.34325927583494" stroke="#4c78a8" stroke-width="2" opacity="0.1"/></g></g><path class="foreground" aria-hidden="true" d="" display="none"/></g><g transform="translate(0,0)"><path class="background" aria-hidden="true" d="M0,0h400v200h-400Z"/><g><g class="mark-line role-mark concat_1_marks" role="graphics-symbol" aria-roledescription="line mark container"><path d="M2.5,117.04948210783084L3.5757499999999998,142.26613280925275L5.1145000000000005,107.91569567785409L7.3155,95.46431180995228L10.4635,140.50339933346297L14.96625,85.7519552336373L21.4065,102.29836852053187L30.618499999999997,102.29836852053187L43.7945,113.54272341248017L62.640499999999996,111.47303595486069L89.59625,114.5640556229024L128.152,95.98259979733068L183.29925,109.44215080645665L262.17775,103.88718450323076L375,104.41655886467076" stroke="#4c78a8" stroke-width="2" opacity="0.1"/></g></g><path class="foreground" aria-hidden="true" d="" display="none"/></g><g transform="translate(0,0)"><path class="background" aria-hidden="true" d="M0,0h400v200h-400Z"/><g><g class="mark-line role-mark concat_1_marks" role="graphics-symbol" aria-roledescription="line mark container"><path d="M2.5,129.0913630338334L3.5757499999999998,77.88270834505849L5.1145000000000005,51.63017456725858L7.3155,126.75698839549388L10.4635,98.12781317824471L14.96625,108.88713920499922L21.4065,105.94232109489448L30.618499999999997,106.41349199251123L43.7945,115.05947796377885L62.640499999999996,102.29836852053187L89.59625,102.29836852053187L128.152,113.04175788457293L183.29925,106.41349199251123L262.17775,108.88713920499922L375,104.9071309168953" stroke="#4c78a8" stroke-width="2" opacity="0.1"/></g></g><path class="foreground" aria-hidden="true" d="" display="none"/></g><g transform="translate(0,0)"><path class="background" aria-hidden="true" d="M0,0h400v200h-400Z"/><g><g class="mark-line role-mark concat_1_marks" role="graphics-symbol" aria-roledescription="line mark container"><path d="M2.5,144.01847280935976L3.5757499999999998,150.09103420158522L5.1145000000000005,91.71157419011054L7.3155,101.23546240737875L10.4635,84.07929854709776L14.96625,116.53327281558892L21.4065,63.01172333821881L30.618499999999997,107.91569567785409L43.7945,107.40710826777953L62.640499999999996,104.41655886467076L89.59625,100.19334324559115L128.152,105.94232109489448L183.29925,104.41655886467076L262.17775,109.95004531815238L375,108.39102396574395" stroke="#4c78a8" stroke-width="2" opacity="0.1"/></g></g><path class="foreground" aria-hidden="true" d="" display="none"/></g><g transform="translate(0,0)"><path class="background" aria-hidden="true" d="M0,0h400v200h-400Z"/><g><g class="mark-line role-mark concat_1_marks" role="graphics-symbol" aria-roledescription="line mark container"><path d="M2.5,48.59874415979779L3.5757499999999998,18.2317798083973L5.1145000000000005,133.31665734804963L7.3155,118.54960709803714L10.4635,92.25134202723328L14.96625,93.84085090831095L21.4065,93.84085090831095L30.618499999999997,124.27502640245969L43.7945,106.41349199251123L62.640499999999996,103.88718450323076L89.59625,104.9071309168953L128.152,109.44215080645665L183.29925,103.34325927583494L262.17775,109.44215080645665L375,101.7537503947572" stroke="#4c78a8" stroke-width="2" opacity="0.1"/></g></g><path class="foreground" aria-hidden="true" d="" display="none"/></g><g transform="translate(0,0)"><path class="background" aria-hidden="true" d="M0,0h400v200h-400Z"/><g><g class="mark-line role-mark concat_1_marks" role="graphics-symbol" aria-roledescription="line mark container"><path d="M2.5,193.126259613467L3.5757499999999998,115.05947796377885L5.1145000000000005,73.87706281693715L7.3155,105.94232109489448L10.4635,104.41655886467076L14.96625,99.16369625462266L21.4065,96.49673039443607L30.618499999999997,107.40710826777953L43.7945,112.52277699881566L62.640499999999996,104.41655886467076L89.59625,103.34325927583494L128.152,106.90960723176653L183.29925,100.19334324559115L262.17775,107.40710826777953L375,111.47303595486069" stroke="#4c78a8" stroke-width="2" opacity="0.1"/></g></g><path class="foreground" aria-hidden="true" d="" display="none"/></g><g transform="translate(0,0)"><path class="background" aria-hidden="true" d="M0,0h400v200h-400Z"/><g><g class="mark-line role-mark concat_1_marks" role="graphics-symbol" aria-roledescription="line mark container"><path d="M2.5,105.41017513993908L3.5757499999999998,101.23546240737875L5.1145000000000005,104.41655886467076L7.3155,82.97759012472916L10.4635,101.7537503947572L14.96625,87.87638166318584L21.4065,79.57961647485767L30.618499999999997,106.41349199251123L43.7945,99.16369625462266L62.640499999999996,107.40710826777953L89.59625,105.94232109489448L128.152,100.19334324559115L183.29925,99.68267714038002L262.17775,102.29836852053187L375,106.41349199251123" stroke="#4c78a8" stroke-width="2" opacity="0.1"/></g></g><path class="foreground" aria-hidden="true" d="" display="none"/></g><g transform="translate(0,0)"><path class="background" aria-hidden="true" d="M0,0h400v200h-400Z"/><g><g class="mark-line role-mark concat_1_marks" role="graphics-symbol" aria-roledescription="line mark container"><path d="M2.5,44.3263327558199L3.5757499999999998,116.53327281558892L5.1145000000000005,97.04134852021073L7.3155,89.54488095945221L10.4635,93.3017759695671L14.96625,115.52649147112253L21.4065,107.40710826777953L30.618499999999997,103.34325927583494L43.7945,119.99707181145101L62.640499999999996,111.47303595486069L89.59625,105.41017513993908L128.152,105.94232109489448L183.29925,99.16369625462266L262.17775,107.40710826777953L375,103.88718450323076" stroke="#4c78a8" stroke-width="2" opacity="0.1"/></g></g><path class="foreground" aria-hidden="true" d="" display="none"/></g><g transform="translate(0,0)"><path class="background" aria-hidden="true" d="M0,0h400v200h-400Z"/><g><g class="mark-line role-mark concat_1_marks" role="graphics-symbol" aria-roledescription="line mark container"><path d="M2.5,85.7519552336373L3.5757499999999998,77.88270834505849L5.1145000000000005,89.00234152881407L7.3155,81.31879140576663L10.4635,100.72341050540994L14.96625,116.53327281558892L21.4065,108.88713920499922L30.618499999999997,103.34325927583494L43.7945,111.47303595486069L62.640499999999996,109.44215080645665L89.59625,107.91569567785409L128.152,107.40710826777953L183.29925,104.41655886467076L262.17775,101.7537503947572L375,105.41017513993908" stroke="#4c78a8" stroke-width="2" opacity="0.1"/></g></g><path class="foreground" aria-hidden="true" d="" display="none"/></g><g transform="translate(0,0)"><path class="background" aria-hidden="true" d="M0,0h400v200h-400Z"/><g><g class="mark-line role-mark concat_1_marks" role="graphics-symbol" aria-roledescription="line mark container"><path d="M2.5,154.26574693414554L3.5757499999999998,136.50260409399354L5.1145000000000005,109.44215080645665L7.3155,103.88718450323076L10.4635,94.93493744851227L14.96625,90.63065271910735L21.4065,132.86419470666172L30.618499999999997,96.49673039443607L43.7945,113.54272341248017L62.640499999999996,113.54272341248017L89.59625,113.54272341248017L128.152,113.04175788457293L183.29925,104.41655886467076L262.17775,104.41655886467076L375,110.45101084605957" stroke="#4c78a8" stroke-width="2" opacity="0.1"/></g></g><path class="foreground" aria-hidden="true" d="" display="none"/></g><g transform="translate(0,0)"><path class="background" aria-hidden="true" d="M0,0h400v200h-400Z"/><g><g class="mark-line role-mark concat_1_marks" role="graphics-symbol" aria-roledescription="line mark container"><path d="M2.5,64.70516697612376L3.5757499999999998,130.50210413316833L5.1145000000000005,135.12096472657026L7.3155,103.88718450323076L10.4635,114.05823980634327L14.96625,111.47303595486069L21.4065,116.0323072876817L30.618499999999997,103.88718450323076L43.7945,113.54272341248017L62.640499999999996,107.40710826777953L89.59625,106.90960723176653L128.152,100.72341050540994L183.29925,102.29836852053187L262.17775,110.94366159342066L375,109.95004531815238" stroke="#4c78a8" stroke-width="2" opacity="0.1"/></g></g><path class="foreground" aria-hidden="true" d="" display="none"/></g></g></g><path class="foreground" aria-hidden="true" d="" display="none"/></g></g></g><path class="foreground" aria-hidden="true" d="" display="none"/></g></g></g></svg>