<svg xmlns="http://www.w3.org/2000/svg" xmlns:xlink="http://www.w3.org/1999/xlink" version="1.1" class="marks" width="792" height="340" viewBox="0 0 792 340"><rect width="792" height="340" fill="white"/><g fill="none" stroke-miterlimit="10" transform="translate(40,47)"><g class="mark-group role-frame root" role="graphics-object" aria-roledescription="group mark container"><g transform="translate(0,0)"><path class="background" aria-hidden="true" d="M0,0h0v0h0Z"/><g><g class="mark-group role-column-title facet-title" role="graphics-object" aria-roledescription="group mark container"><g transform="translate(311,-21)"><path class="background" aria-hidden="true" d="M0,0h0v0h0Z"/><g><g class="mark-group role-title"><g transform="translate(0,-21)"><path class="background" aria-hidden="true" d="M0,0h0v0h0Z" pointer-events="none"/><g><g class="mark-text role-title-text" role="graphics-symbol" aria-roledescription="title" aria-label="Title text 'Dataset'" pointer-events="none"><text text-anchor="middle" transform="translate(0,9)" font-family="sans-serif" font-size="11px" font-weight="bold" fill="#000" opacity="1">Dataset</text></g></g><path class="foreground" aria-hidden="true" d="" pointer-events="none" display="none"/></g></g></g><path class="foreground" aria-hidden="true" d="" display="none"/></g></g><g class="mark-group role-column-footer column_footer" role="graphics-object" aria-roledescription="group mark container"><g transform="translate(0,256)"><path class="background" aria-hidden="true" d="M0,0h300v0h-300Z"/><g><g class="mark-group role-axis" role="graphics-symbol" aria-roledescription="axis" aria-label="X-axis titled 'Training set size' for a log scale with values from 1,000 to 10,000,000"><g transform="translate(0.5,0.5)"><path class="background" aria-hidden="true" d="M0,0h0v0h0Z" pointer-events="none"/><g><g class="mark-rule role-axis-tick" pointer-events="none"><line transform="translate(0,0)" x2="0" y2="5" stroke="#888" stroke-width="1" opacity="1"/><line transform="translate(23,0)" x2="0" y2="5" stroke="#888" stroke-width="1" opacity="1"/><line transform="translate(36,0)" x2="0" y2="5" stroke="#888" stroke-width="1" opacity="1"/><line transform="translate(45,0)" x2="0" y2="5" stroke="#888" stroke-width="1" opacity="1"/><line transform="translate(52,0)" x2="0" y2="5" stroke="#888" stroke-width="1" opacity="1"/><line transform="translate(58,0)" x2="0" y2="5" stroke="#888" stroke-width="1" opacity="1"/><line transform="translate(63,0)" x2="0" y2="5" stroke="#888" stroke-width="1" opacity="1"/><line transform="translate(68,0)" x2="0" y2="5" stroke="#888" stroke-width="1" opacity="1"/><line transform="translate(72,0)" x2="0" y2="5" stroke="#888" stroke-width="1" opacity="1"/><line transform="translate(75,0)" x2="0" y2="5" stroke="#888" stroke-width="1" opacity="1"/><line transform="translate(98,0)" x2="0" y2="5" stroke="#888" stroke-width="1" opacity="1"/><line transform="translate(111,0)" x2="0" y2="5" stroke="#888" stroke-width="1" opacity="1"/><line transform="translate(120,0)" x2="0" y2="5" stroke="#888" stroke-width="1" opacity="1"/><line transform="translate(127,0)" x2="0" y2="5" stroke="#888" stroke-width="1" opacity="1"/><line transform="translate(133,0)" x2="0" y2="5" stroke="#888" stroke-width="1" opacity="1"/><line transform="translate(138,0)" x2="0" y2="5" stroke="#888" stroke-width="1" opacity="1"/><line transform="translate(143,0)" x2="0" y2="5" stroke="#888" stroke-width="1" opacity="1"/><line transform="translate(147,0)" x2="0" y2="5" stroke="#888" stroke-width="1" opacity="1"/><line transform="translate(150,0)" x2="0" y2="5" stroke="#888" stroke-width="1" opacity="1"/><line transform="translate(173,0)" x2="0" y2="5" stroke="#888" stroke-width="1" opacity="1"/><line transform="translate(186,0)" x2="0" y2="5" stroke="#888" stroke-width="1" opacity="1"/><line transform="translate(195,0)" x2="0" y2="5" stroke="#888" stroke-width="1" opacity="1"/><line transform="translate(202,0)" x2="0" y2="5" stroke="#888" stroke-width="1" opacity="1"/><line transform="translate(208,0)" x2="0" y2="5" stroke="#888" stroke-width="1" opacity="1"/><line transform="translate(213,0)" x2="0" y2="5" stroke="#888" stroke-width="1" opacity="1"/><line transform="translate(218,0)" x2="0" y2="5" stroke="#888" stroke-width="1" opacity="1"/><line transform="translate(222,0)" x2="0" y2="5" stroke="#888" stroke-width="1" opacity="1"/><line transform="translate(225,0)" x2="0" y2="5" stroke="#888" stroke-width="1" opacity="1"/><line transform="translate(248,0)" x2="0" y2="5" stroke="#888" stroke-width="1" opacity="1"/><line transform="translate(261,0)" x2="0" y2="5" stroke="#888" stroke-width="1" opacity="1"/><line transform="translate(270,0)" x2="0" y2="5" stroke="#888" stroke-width="1" opacity="1"/><line transform="translate(277,0)" x2="0" y2="5" stroke="#888" stroke-width="1" opacity="1"/><line transform="translate(283,0)" x2="0" y2="5" stroke="#888" stroke-width="1" opacity="1"/><line transform="translate(288,0)" x2="0" y2="5" stroke="#888" stroke-width="1" opacity="1"/><line transform="translate(293,0)" x2="0" y2="5" stroke="#888" stroke-width="1" opacity="1"/><line transform="translate(297,0)" x2="0" y2="5" stroke="#888" stroke-width="1" opacity="1"/><line transform="translate(300,0)" x2="0" y2="5" stroke="#888" stroke-width="1" opacity="1"/></g><g class="mark-text role-axis-label" pointer-events="none"><text text-anchor="start" transform="translate(0,15)" font-family="sans-serif" font-size="10px" fill="#000" opacity="1">1,000</text><text text-anchor="middle" transform="translate(22.57724967479859,15)" font-family="sans-serif" font-size="10px" fill="#000" opacity="0">2,000</text><text text-anchor="middle" transform="translate(35.78409410397466,15)" font-family="sans-serif" font-size="10px" fill="#000" opacity="1"/><text text-anchor="middle" transform="translate(45.15449934959718,15)" font-family="sans-serif" font-size="10px" fill="#000" opacity="1"/><text text-anchor="middle" transform="translate(52.42275032520144,15)" font-family="sans-serif" font-size="10px" fill="#000" opacity="1"/><text text-anchor="middle" transform="translate(58.36134377877325,15)" font-family="sans-serif" font-size="10px" fill="#000" opacity="1"/><text text-anchor="middle" transform="translate(63.38235300106926,15)" font-family="sans-serif" font-size="10px" fill="#000" opacity="1"/><text text-anchor="middle" transform="translate(67.73174902439577,15)" font-family="sans-serif" font-size="10px" fill="#000" opacity="1"/><text text-anchor="middle" transform="translate(71.56818820794938,15)" font-family="sans-serif" font-size="10px" fill="#000" opacity="1"/><text text-anchor="middle" transform="translate(75.00000000000003,15)" font-family="sans-serif" font-size="10px" fill="#000" opacity="1">10,000</text><text text-anchor="middle" transform="translate(97.57724967479857,15)" font-family="sans-serif" font-size="10px" fill="#000" opacity="0">20,000</text><text text-anchor="middle" transform="translate(110.7840941039747,15)" font-family="sans-serif" font-size="10px" fill="#000" opacity="1"/><text text-anchor="middle" transform="translate(120.15449934959716,15)" font-family="sans-serif" font-size="10px" fill="#000" opacity="1"/><text text-anchor="middle" transform="translate(127.4227503252014,15)" font-family="sans-serif" font-size="10px" fill="#000" opacity="1"/><text text-anchor="middle" transform="translate(133.36134377877326,15)" font-family="sans-serif" font-size="10px" fill="#000" opacity="1"/><text text-anchor="middle" transform="translate(138.38235300106925,15)" font-family="sans-serif" font-size="10px" fill="#000" opacity="1"/><text text-anchor="middle" transform="translate(142.73174902439575,15)" font-family="sans-serif" font-size="10px" fill="#000" opacity="1"/><text text-anchor="middle" transform="translate(146.56818820794936,15)" font-family="sans-serif" font-size="10px" fill="#000" opacity="1"/><text text-anchor="middle" transform="translate(150,15)" font-family="sans-serif" font-size="10px" fill="#000" opacity="1">100,000</text><text text-anchor="middle" transform="translate(172.5772496747986,15)" font-family="sans-serif" font-size="10px" fill="#000" opacity="0">200,000</text><text text-anchor="middle" transform="translate(185.78409410397467,15)" font-family="sans-serif" font-size="10px" fill="#000" opacity="1"/><text text-anchor="middle" transform="translate(195.1544993495972,15)" font-family="sans-serif" font-size="10px" fill="#000" opacity="1"/><text text-anchor="middle" transform="translate(202.42275032520138,15)" font-family="sans-serif" font-size="10px" fill="#000" opacity="1"/><text text-anchor="middle" transform="translate(208.36134377877326,15)" font-family="sans-serif" font-size="10px" fill="#000" opacity="1"/><text text-anchor="middle" transform="translate(213.38235300106928,15)" font-family="sans-serif" font-size="10px" fill="#000" opacity="1"/><text text-anchor="middle" transform="translate(217.73174902439578,15)" font-family="sans-serif" font-size="10px" fill="#000" opacity="1"/><text text-anchor="middle" transform="translate(221.5681882079494,15)" font-family="sans-serif" font-size="10px" fill="#000" opacity="1"/><text text-anchor="middle" transform="translate(224.99999999999997,15)" font-family="sans-serif" font-size="10px" fill="#000" opacity="1">1,000,000</text><text text-anchor="middle" transform="translate(247.57724967479857,15)" font-family="sans-serif" font-size="10px" fill="#000" opacity="0">2,000,000</text><text text-anchor="middle" transform="translate(260.78409410397467,15)" font-family="sans-serif" font-size="10px" fill="#000" opacity="1"/><text text-anchor="middle" transform="translate(270.15449934959713,15)" font-family="sans-serif" font-size="10px" fill="#000" opacity="1"/><text text-anchor="middle" transform="translate(277.4227503252014,15)" font-family="sans-serif" font-size="10px" fill="#000" opacity="1"/><text text-anchor="middle" transform="translate(283.3613437787733,15)" font-family="sans-serif" font-size="10px" fill="#000" opacity="1"/><text text-anchor="middle" transform="translate(288.38235300106925,15)" font-family="sans-serif" font-size="10px" fill="#000" opacity="1"/><text text-anchor="middle" transform="translate(292.73174902439575,15)" font-family="sans-serif" font-size="10px" fill="#000" opacity="1"/><text text-anchor="middle" transform="translate(296.5681882079493,15)" font-family="sans-serif" font-size="10px" fill="#000" opacity="1"/><text text-anchor="end" transform="translate(300,15)" font-family="sans-serif" font-size="10px" fill="#000" opacity="1">10,000,000</text></g><g class="mark-rule role-axis-domain" pointer-events="none"><line transform="translate(0,0)" x2="300" y2="0" stroke="#888" stroke-width="1" opacity="1"/></g><g class="mark-text role-axis-title" pointer-events="none"><text text-anchor="middle" transform="translate(150,30)" font-family="sans-serif" font-size="11px" font-weight="bold" fill="#000" opacity="1">Training set size</text></g></g><path class="foreground" aria-hidden="true" d="" pointer-events="none" display="none"/></g></g></g><path class="foreground" aria-hidden="true" d="" display="none"/></g><g transform="translate(356,256)"><path class="background" aria-hidden="true" d="M0,0h300v0h-300Z"/><g><g class="mark-group role-axis" role="graphics-symbol" aria-roledescription="axis" aria-label="X-axis titled 'Training set size' for a log scale with values from 1,000 to 10,000,000"><g transform="translate(0.5,0.5)"><path class="background" aria-hidden="true" d="M0,0h0v0h0Z" pointer-events="none"/><g><g class="mark-rule role-axis-tick" pointer-events="none"><line transform="translate(0,0)" x2="0" y2="5" stroke="#888" stroke-width="1" opacity="1"/><line transform="translate(23,0)" x2="0" y2="5" stroke="#888" stroke-width="1" opacity="1"/><line transform="translate(36,0)" x2="0" y2="5" stroke="#888" stroke-width="1" opacity="1"/><line transform="translate(45,0)" x2="0" y2="5" stroke="#888" stroke-width="1" opacity="1"/><line transform="translate(52,0)" x2="0" y2="5" stroke="#888" stroke-width="1" opacity="1"/><line transform="translate(58,0)" x2="0" y2="5" stroke="#888" stroke-width="1" opacity="1"/><line transform="translate(63,0)" x2="0" y2="5" stroke="#888" stroke-width="1" opacity="1"/><line transform="translate(68,0)" x2="0" y2="5" stroke="#888" stroke-width="1" opacity="1"/><line transform="translate(72,0)" x2="0" y2="5" stroke="#888" stroke-width="1" opacity="1"/><line transform="translate(75,0)" x2="0" y2="5" stroke="#888" stroke-width="1" opacity="1"/><line transform="translate(98,0)" x2="0" y2="5" stroke="#888" stroke-width="1" opacity="1"/><line transform="translate(111,0)" x2="0" y2="5" stroke="#888" stroke-width="1" opacity="1"/><line transform="translate(120,0)" x2="0" y2="5" stroke="#888" stroke-width="1" opacity="1"/><line transform="translate(127,0)" x2="0" y2="5" stroke="#888" stroke-width="1" opacity="1"/><line transform="translate(133,0)" x2="0" y2="5" stroke="#888" stroke-width="1" opacity="1"/><line transform="translate(138,0)" x2="0" y2="5" stroke="#888" stroke-width="1" opacity="1"/><line transform="translate(143,0)" x2="0" y2="5" stroke="#888" stroke-width="1" opacity="1"/><line transform="translate(147,0)" x2="0" y2="5" stroke="#888" stroke-width="1" opacity="1"/><line transform="translate(150,0)" x2="0" y2="5" stroke="#888" stroke-width="1" opacity="1"/><line transform="translate(173,0)" x2="0" y2="5" stroke="#888" stroke-width="1" opacity="1"/><line transform="translate(186,0)" x2="0" y2="5" stroke="#888" stroke-width="1" opacity="1"/><line transform="translate(195,0)" x2="0" y2="5" stroke="#888" stroke-width="1" opacity="1"/><line transform="translate(202,0)" x2="0" y2="5" stroke="#888" stroke-width="1" opacity="1"/><line transform="translate(208,0)" x2="0" y2="5" stroke="#888" stroke-width="1" opacity="1"/><line transform="translate(213,0)" x2="0" y2="5" stroke="#888" stroke-width="1" opacity="1"/><line transform="translate(218,0)" x2="0" y2="5" stroke="#888" stroke-width="1" opacity="1"/><line transform="translate(222,0)" x2="0" y2="5" stroke="#888" stroke-width="1" opacity="1"/><line transform="translate(225,0)" x2="0" y2="5" stroke="#888" stroke-width="1" opacity="1"/><line transform="translate(248,0)" x2="0" y2="5" stroke="#888" stroke-width="1" opacity="1"/><line transform="translate(261,0)" x2="0" y2="5" stroke="#888" stroke-width="1" opacity="1"/><line transform="translate(270,0)" x2="0" y2="5" stroke="#888" stroke-width="1" opacity="1"/><line transform="translate(277,0)" x2="0" y2="5" stroke="#888" stroke-width="1" opacity="1"/><line transform="translate(283,0)" x2="0" y2="5" stroke="#888" stroke-width="1" opacity="1"/><line transform="translate(288,0)" x2="0" y2="5" stroke="#888" stroke-width="1" opacity="1"/><line transform="translate(293,0)" x2="0" y2="5" stroke="#888" stroke-width="1" opacity="1"/><line transform="translate(297,0)" x2="0" y2="5" stroke="#888" stroke-width="1" opacity="1"/><line transform="translate(300,0)" x2="0" y2="5" stroke="#888" stroke-width="1" opacity="1"/></g><g class="mark-text role-axis-label" pointer-events="none"><text text-anchor="start" transform="translate(0,15)" font-family="sans-serif" font-size="10px" fill="#000" opacity="1">1,000</text><text text-anchor="middle" transform="translate(22.57724967479859,15)" font-family="sans-serif" font-size="10px" fill="#000" opacity="0">2,000</text><text text-anchor="middle" transform="translate(35.78409410397466,15)" font-family="sans-serif" font-size="10px" fill="#000" opacity="1"/><text text-anchor="middle" transform="translate(45.15449934959718,15)" font-family="sans-serif" font-size="10px" fill="#000" opacity="1"/><text text-anchor="middle" transform="translate(52.42275032520144,15)" font-family="sans-serif" font-size="10px" fill="#000" opacity="1"/><text text-anchor="middle" transform="translate(58.36134377877325,15)" font-family="sans-serif" font-size="10px" fill="#000" opacity="1"/><text text-anchor="middle" transform="translate(63.38235300106926,15)" font-family="sans-serif" font-size="10px" fill="#000" opacity="1"/><text text-anchor="middle" transform="translate(67.73174902439577,15)" font-family="sans-serif" font-size="10px" fill="#000" opacity="1"/><text text-anchor="middle" transform="translate(71.56818820794938,15)" font-family="sans-serif" font-size="10px" fill="#000" opacity="1"/><text text-anchor="middle" transform="translate(75.00000000000003,15)" font-family="sans-serif" font-size="10px" fill="#000" opacity="1">10,000</text><text text-anchor="middle" transform="translate(97.57724967479857,15)" font-family="sans-serif" font-size="10px" fill="#000" opacity="0">20,000</text><text text-anchor="middle" transform="translate(110.7840941039747,15)" font-family="sans-serif" font-size="10px" fill="#000" opacity="1"/><text text-anchor="middle" transform="translate(120.15449934959716,15)" font-family="sans-serif" font-size="10px" fill="#000" opacity="1"/><text text-anchor="middle" transform="translate(127.4227503252014,15)" font-family="sans-serif" font-size="10px" fill="#000" opacity="1"/><text text-anchor="middle" transform="translate(133.36134377877326,15)" font-family="sans-serif" font-size="10px" fill="#000" opacity="1"/><text text-anchor="middle" transform="translate(138.38235300106925,15)" font-family="sans-serif" font-size="10px" fill="#000" opacity="1"/><text text-anchor="middle" transform="translate(142.73174902439575,15)" font-family="sans-serif" font-size="10px" fill="#000" opacity="1"/><text text-anchor="middle" transform="translate(146.56818820794936,15)" font-family="sans-serif" font-size="10px" fill="#000" opacity="1"/><text text-anchor="middle" transform="translate(150,15)" font-family="sans-serif" font-size="10px" fill="#000" opacity="1">100,000</text><text text-anchor="middle" transform="translate(172.5772496747986,15)" font-family="sans-serif" font-size="10px" fill="#000" opacity="0">200,000</text><text text-anchor="middle" transform="translate(185.78409410397467,15)" font-family="sans-serif" font-size="10px" fill="#000" opacity="1"/><text text-anchor="middle" transform="translate(195.1544993495972,15)" font-family="sans-serif" font-size="10px" fill="#000" opacity="1"/><text text-anchor="middle" transform="translate(202.42275032520138,15)" font-family="sans-serif" font-size="10px" fill="#000" opacity="1"/><text text-anchor="middle" transform="translate(208.36134377877326,15)" font-family="sans-serif" font-size="10px" fill="#000" opacity="1"/><text text-anchor="middle" transform="translate(213.38235300106928,15)" font-family="sans-serif" font-size="10px" fill="#000" opacity="1"/><text text-anchor="middle" transform="translate(217.73174902439578,15)" font-family="sans-serif" font-size="10px" fill="#000" opacity="1"/><text text-anchor="middle" transform="translate(221.5681882079494,15)" font-family="sans-serif" font-size="10px" fill="#000" opacity="1"/><text text-anchor="middle" transform="translate(224.99999999999997,15)" font-family="sans-serif" font-size="10px" fill="#000" opacity="1">1,000,000</text><text text-anchor="middle" transform="translate(247.57724967479857,15)" font-family="sans-serif" font-size="10px" fill="#000" opacity="0">2,000,000</text><text text-anchor="middle" transform="translate(260.78409410397467,15)" font-family="sans-serif" font-size="10px" fill="#000" opacity="1"/><text text-anchor="middle" transform="translate(270.15449934959713,15)" font-family="sans-serif" font-size="10px" fill="#000" opacity="1"/><text text-anchor="middle" transform="translate(277.4227503252014,15)" font-family="sans-serif" font-size="10px" fill="#000" opacity="1"/><text text-anchor="middle" transform="translate(283.3613437787733,15)" font-family="sans-serif" font-size="10px" fill="#000" opacity="1"/><text text-anchor="middle" transform="translate(288.38235300106925,15)" font-family="sans-serif" font-size="10px" fill="#000" opacity="1"/><text text-anchor="middle" transform="translate(292.73174902439575,15)" font-family="sans-serif" font-size="10px" fill="#000" opacity="1"/><text text-anchor="middle" transform="translate(296.5681882079493,15)" font-family="sans-serif" font-size="10px" fill="#000" opacity="1"/><text text-anchor="end" transform="translate(300,15)" font-family="sans-serif" font-size="10px" fill="#000" opacity="1">10,000,000</text></g><g class="mark-rule role-axis-domain" pointer-events="none"><line transform="translate(0,0)" x2="300" y2="0" stroke="#888" stroke-width="1" opacity="1"/></g><g class="mark-text role-axis-title" pointer-events="none"><text text-anchor="middle" transform="translate(150,30)" font-family="sans-serif" font-size="11px" font-weight="bold" fill="#000" opacity="1">Training set size</text></g></g><path class="foreground" aria-hidden="true" d="" pointer-events="none" display="none"/></g></g></g><path class="foreground" aria-hidden="true" d="" display="none"/></g></g><g class="mark-group role-scope cell" role="graphics-object" aria-roledescription="group mark container"><g transform="translate(0,0)"><path class="background" aria-hidden="true" d="M0.5,0.5h300v250h-300Z" stroke="#ddd"/><g><g class="mark-group role-axis" role="graphics-symbol" aria-roledescription="axis" aria-label="X-axis for a log scale with values from 1,000 to 10,000,000"><g transform="translate(0.5,250.5)"><path class="background" aria-hidden="true" d="M0,0h0v0h0Z" pointer-events="none"/><g><g class="mark-rule role-axis-grid" pointer-events="none"><line transform="translate(0,-250)" x2="0" y2="250" stroke="#ddd" stroke-width="1" opacity="1"/><line transform="translate(23,-250)" x2="0" y2="250" stroke="#ddd" stroke-width="1" opacity="1"/><line transform="translate(36,-250)" x2="0" y2="250" stroke="#ddd" stroke-width="1" opacity="1"/><line transform="translate(45,-250)" x2="0" y2="250" stroke="#ddd" stroke-width="1" opacity="1"/><line transform="translate(52,-250)" x2="0" y2="250" stroke="#ddd" stroke-width="1" opacity="1"/><line transform="translate(58,-250)" x2="0" y2="250" stroke="#ddd" stroke-width="1" opacity="1"/><line transform="translate(63,-250)" x2="0" y2="250" stroke="#ddd" stroke-width="1" opacity="1"/><line transform="translate(68,-250)" x2="0" y2="250" stroke="#ddd" stroke-width="1" opacity="1"/><line transform="translate(72,-250)" x2="0" y2="250" stroke="#ddd" stroke-width="1" opacity="1"/><line transform="translate(75,-250)" x2="0" y2="250" stroke="#ddd" stroke-width="1" opacity="1"/><line transform="translate(98,-250)" x2="0" y2="250" stroke="#ddd" stroke-width="1" opacity="1"/><line transform="translate(111,-250)" x2="0" y2="250" stroke="#ddd" stroke-width="1" opacity="1"/><line transform="translate(120,-250)" x2="0" y2="250" stroke="#ddd" stroke-width="1" opacity="1"/><line transform="translate(127,-250)" x2="0" y2="250" stroke="#ddd" stroke-width="1" opacity="1"/><line transform="translate(133,-250)" x2="0" y2="250" stroke="#ddd" stroke-width="1" opacity="1"/><line transform="translate(138,-250)" x2="0" y2="250" stroke="#ddd" stroke-width="1" opacity="1"/><line transform="translate(143,-250)" x2="0" y2="250" stroke="#ddd" stroke-width="1" opacity="1"/><line transform="translate(147,-250)" x2="0" y2="250" stroke="#ddd" stroke-width="1" opacity="1"/><line transform="translate(150,-250)" x2="0" y2="250" stroke="#ddd" stroke-width="1" opacity="1"/><line transform="translate(173,-250)" x2="0" y2="250" stroke="#ddd" stroke-width="1" opacity="1"/><line transform="translate(186,-250)" x2="0" y2="250" stroke="#ddd" stroke-width="1" opacity="1"/><line transform="translate(195,-250)" x2="0" y2="250" stroke="#ddd" stroke-width="1" opacity="1"/><line transform="translate(202,-250)" x2="0" y2="250" stroke="#ddd" stroke-width="1" opacity="1"/><line transform="translate(208,-250)" x2="0" y2="250" stroke="#ddd" stroke-width="1" opacity="1"/><line transform="translate(213,-250)" x2="0" y2="250" stroke="#ddd" stroke-width="1" opacity="1"/><line transform="translate(218,-250)" x2="0" y2="250" stroke="#ddd" stroke-width="1" opacity="1"/><line transform="translate(222,-250)" x2="0" y2="250" stroke="#ddd" stroke-width="1" opacity="1"/><line transform="translate(225,-250)" x2="0" y2="250" stroke="#ddd" stroke-width="1" opacity="1"/><line transform="translate(248,-250)" x2="0" y2="250" stroke="#ddd" stroke-width="1" opacity="1"/><line transform="translate(261,-250)" x2="0" y2="250" stroke="#ddd" stroke-width="1" opacity="1"/><line transform="translate(270,-250)" x2="0" y2="250" stroke="#ddd" stroke-width="1" opacity="1"/><line transform="translate(277,-250)" x2="0" y2="250" stroke="#ddd" stroke-width="1" opacity="1"/><line transform="translate(283,-250)" x2="0" y2="250" stroke="#ddd" stroke-width="1" opacity="1"/><line transform="translate(288,-250)" x2="0" y2="250" stroke="#ddd" stroke-width="1" opacity="1"/><line transform="translate(293,-250)" x2="0" y2="250" stroke="#ddd" stroke-width="1" opacity="1"/><line transform="translate(297,-250)" x2="0" y2="250" stroke="#ddd" stroke-width="1" opacity="1"/><line transform="translate(300,-250)" x2="0" y2="250" stroke="#ddd" stroke-width="1" opacity="1"/></g></g><path class="foreground" aria-hidden="true" d="" pointer-events="none" display="none"/></g></g><g class="mark-group role-axis" role="graphics-symbol" aria-roledescription="axis" aria-label="Y-axis for a linear scale with values from 0 to 55"><g transform="translate(0.5,0.5)"><path class="background" aria-hidden="true" d="M0,0h0v0h0Z" pointer-events="none"/><g><g class="mark-rule role-axis-grid" pointer-events="none"><line transform="translate(0,250)" x2="300" y2="0" stroke="#ddd" stroke-width="1" opacity="1"/><line transform="translate(0,205)" x2="300" y2="0" stroke="#ddd" stroke-width="1" opacity="1"/><line transform="translate(0,159)" x2="300" y2="0" stroke="#ddd" stroke-width="1" opacity="1"/><line transform="translate(0,114)" x2="300" y2="0" stroke="#ddd" stroke-width="1" opacity="1"/><line transform="translate(0,68)" x2="300" y2="0" stroke="#ddd" stroke-width="1" opacity="1"/><line transform="translate(0,23)" x2="300" y2="0" stroke="#ddd" stroke-width="1" opacity="1"/></g></g><path class="foreground" aria-hidden="true" d="" pointer-events="none" display="none"/></g></g><g class="mark-group role-axis" role="graphics-symbol" aria-roledescription="axis" aria-label="Y-axis titled 'Enrichment' for a linear scale with values from 0 to 55"><g transform="translate(0.5,0.5)"><path class="background" aria-hidden="true" d="M0,0h0v0h0Z" pointer-events="none"/><g><g class="mark-rule role-axis-tick" pointer-events="none"><line transform="translate(0,250)" x2="-5" y2="0" stroke="#888" stroke-width="1" opacity="1"/><line transform="translate(0,205)" x2="-5" y2="0" stroke="#888" stroke-width="1" opacity="1"/><line transform="translate(0,159)" x2="-5" y2="0" stroke="#888" stroke-width="1" opacity="1"/><line transform="translate(0,114)" x2="-5" y2="0" stroke="#888" stroke-width="1" opacity="1"/><line transform="translate(0,68)" x2="-5" y2="0" stroke="#888" stroke-width="1" opacity="1"/><line transform="translate(0,23)" x2="-5" y2="0" stroke="#888" stroke-width="1" opacity="1"/></g><g class="mark-text role-axis-label" pointer-events="none"><text text-anchor="end" transform="translate(-7,253)" font-family="sans-serif" font-size="10px" fill="#000" opacity="1">0</text><text text-anchor="end" transform="translate(-7,207.54545454545453)" font-family="sans-serif" font-size="10px" fill="#000" opacity="1">10</text><text text-anchor="end" transform="translate(-7,162.0909090909091)" font-family="sans-serif" font-size="10px" fill="#000" opacity="1">20</text><text text-anchor="end" transform="translate(-7,116.63636363636364)" font-family="sans-serif" font-size="10px" fill="#000" opacity="1">30</text><text text-anchor="end" transform="translate(-7,71.18181818181817)" font-family="sans-serif" font-size="10px" fill="#000" opacity="1">40</text><text text-anchor="end" transform="translate(-7,25.727272727272734)" font-family="sans-serif" font-size="10px" fill="#000" opacity="1">50</text></g><g class="mark-rule role-axis-domain" pointer-events="none"><line transform="translate(0,250)" x2="0" y2="-250" stroke="#888" stroke-width="1" opacity="1"/></g><g class="mark-text role-axis-title" pointer-events="none"><text text-anchor="middle" transform="translate(-22.133333206176758,125) rotate(-90) translate(0,-2)" font-family="sans-serif" font-size="11px" font-weight="bold" fill="#000" opacity="1">Enrichment</text></g></g><path class="foreground" aria-hidden="true" d="" pointer-events="none" display="none"/></g></g><g class="mark-group role-scope child_layer_0_pathgroup" role="graphics-object" aria-roledescription="group mark container"><g transform="translate(0,0)"><path class="background" aria-hidden="true" d="M0,0h300v250h-300Z"/><g><g class="mark-line role-mark child_layer_0_marks" role="graphics-symbol" aria-roledescription="line mark container"><path d="M52.42275032520144,40.11381350757784L75.00000000000003,36.797531591827166L97.57724967479857,23.914971387492574L120.15449934959716,10.315575567988677L142.73174902439575,20.585916127291465L165.30899869919435,48.08778652497672L187.88624837399294,99.18661448696753L210.4634980487915,155.2394347281467L233.0407477235901,196.55643821167075L255.6179973983887,221.67544305178725" stroke="#4c78a8" stroke-width="2" opacity="0.5"/></g></g><path class="foreground" aria-hidden="true" d="" display="none"/></g><g transform="translate(0,0)"><path class="background" aria-hidden="true" d="M0,0h300v250h-300Z"/><g><g class="mark-line role-mark child_layer_0_marks" role="graphics-symbol" aria-roledescription="line mark container"><path d="M52.42275032520144,94.43641603160793L75.00000000000003,68.5529619484025L97.57724967479857,48.924531724116235L120.15449934959716,31.109930874722053L142.73174902439575,29.668164655366454L165.30899869919435,34.593687624674075L187.88624837399294,57.03627469878369L210.4634980487915,105.28671224405173L233.0407477235901,157.76387433877326L255.6179973983887,197.3723281270663" stroke="#f58518" stroke-width="2" opacity="0.5"/></g></g><path class="foreground" aria-hidden="true" d="" display="none"/></g><g transform="translate(0,0)"><path class="background" aria-hidden="true" d="M0,0h300v250h-300Z"/><g><g class="mark-line role-mark child_layer_0_marks" role="graphics-symbol" aria-roledescription="line mark container"><path d="M52.42275032520144,108.774465643341L75.00000000000003,98.0354202813212L97.57724967479857,85.03558674094849L120.15449934959716,66.49050566545885L142.73174902439575,54.78067061898923L165.30899869919435,50.19508207022688L187.88624837399294,59.72969543669196L210.4634980487915,89.12397969384406L233.0407477235901,134.50807243967677L255.6179973983887,178.45151258819024" stroke="#e45756" stroke-width="2" opacity="0.5"/></g></g><path class="foreground" aria-hidden="true" d="" display="none"/></g><g transform="translate(0,0)"><path class="background" aria-hidden="true" d="M0,0h300v250h-300Z"/><g><g class="mark-line role-mark child_layer_0_marks" role="graphics-symbol" aria-roledescription="line mark container"><path d="M52.42275032520144,130.95531893189556L75.00000000000003,120.30630234171998L97.57724967479857,115.05031566019045L120.15449934959716,102.28940502247957L142.73174902439575,86.12088241607077L165.30899869919435,78.51713345228862L187.88624837399294,78.19185141167259L210.4634980487915,93.0603919129768L233.0407477235901,126.87097493008747L255.6179973983887,166.5461962800303" stroke="#72b7b2" stroke-width="2" opacity="0.5"/></g></g><path class="foreground" aria-hidden="true" d="" display="none"/></g></g><g class="mark-symbol role-mark child_layer_1_marks" role="graphics-symbol" aria-roledescription="symbol mark container"><path transform="translate(52.42275032520144,40.11381350757784)" d="M3.1622776601683795,0A3.1622776601683795,3.1622776601683795,0,1,1,-3.1622776601683795,0A3.1622776601683795,3.1622776601683795,0,1,1,3.1622776601683795,0" stroke="#4c78a8" stroke-width="2"/><path transform="translate(75.00000000000003,36.797531591827166)" d="M3.1622776601683795,0A3.1622776601683795,3.1622776601683795,0,1,1,-3.1622776601683795,0A3.1622776601683795,3.1622776601683795,0,1,1,3.1622776601683795,0" stroke="#4c78a8" stroke-width="2"/><path transform="translate(97.57724967479857,23.914971387492574)" d="M3.1622776601683795,0A3.1622776601683795,3.1622776601683795,0,1,1,-3.1622776601683795,0A3.1622776601683795,3.1622776601683795,0,1,1,3.1622776601683795,0" stroke="#4c78a8" stroke-width="2"/><path transform="translate(120.15449934959716,10.315575567988677)" d="M3.1622776601683795,0A3.1622776601683795,3.1622776601683795,0,1,1,-3.1622776601683795,0A3.1622776601683795,3.1622776601683795,0,1,1,3.1622776601683795,0" stroke="#4c78a8" stroke-width="2"/><path transform="translate(142.73174902439575,20.585916127291465)" d="M3.1622776601683795,0A3.1622776601683795,3.1622776601683795,0,1,1,-3.1622776601683795,0A3.1622776601683795,3.1622776601683795,0,1,1,3.1622776601683795,0" stroke="#4c78a8" stroke-width="2"/><path transform="translate(165.30899869919435,48.08778652497672)" d="M3.1622776601683795,0A3.1622776601683795,3.1622776601683795,0,1,1,-3.1622776601683795,0A3.1622776601683795,3.1622776601683795,0,1,1,3.1622776601683795,0" stroke="#4c78a8" stroke-width="2"/><path transform="translate(187.88624837399294,99.18661448696753)" d="M3.1622776601683795,0A3.1622776601683795,3.1622776601683795,0,1,1,-3.1622776601683795,0A3.1622776601683795,3.1622776601683795,0,1,1,3.1622776601683795,0" stroke="#4c78a8" stroke-width="2"/><path transform="translate(210.4634980487915,155.2394347281467)" d="M3.1622776601683795,0A3.1622776601683795,3.1622776601683795,0,1,1,-3.1622776601683795,0A3.1622776601683795,3.1622776601683795,0,1,1,3.1622776601683795,0" stroke="#4c78a8" stroke-width="2"/><path transform="translate(233.0407477235901,196.55643821167075)" d="M3.1622776601683795,0A3.1622776601683795,3.1622776601683795,0,1,1,-3.1622776601683795,0A3.1622776601683795,3.1622776601683795,0,1,1,3.1622776601683795,0" stroke="#4c78a8" stroke-width="2"/><path transform="translate(255.6179973983887,221.67544305178725)" d="M3.1622776601683795,0A3.1622776601683795,3.1622776601683795,0,1,1,-3.1622776601683795,0A3.1622776601683795,3.1622776601683795,0,1,1,3.1622776601683795,0" stroke="#4c78a8" stroke-width="2"/><path transform="translate(52.42275032520144,94.43641603160793)" d="M3.1622776601683795,0A3.1622776601683795,3.1622776601683795,0,1,1,-3.1622776601683795,0A3.1622776601683795,3.1622776601683795,0,1,1,3.1622776601683795,0" stroke="#f58518" stroke-width="2"/><path transform="translate(75.00000000000003,68.5529619484025)" d="M3.1622776601683795,0A3.1622776601683795,3.1622776601683795,0,1,1,-3.1622776601683795,0A3.1622776601683795,3.1622776601683795,0,1,1,3.1622776601683795,0" stroke="#f58518" stroke-width="2"/><path transform="translate(97.57724967479857,48.924531724116235)" d="M3.1622776601683795,0A3.1622776601683795,3.1622776601683795,0,1,1,-3.1622776601683795,0A3.1622776601683795,3.1622776601683795,0,1,1,3.1622776601683795,0" stroke="#f58518" stroke-width="2"/><path transform="translate(120.15449934959716,31.109930874722053)" d="M3.1622776601683795,0A3.1622776601683795,3.1622776601683795,0,1,1,-3.1622776601683795,0A3.1622776601683795,3.1622776601683795,0,1,1,3.1622776601683795,0" stroke="#f58518" stroke-width="2"/><path transform="translate(142.73174902439575,29.668164655366454)" d="M3.1622776601683795,0A3.1622776601683795,3.1622776601683795,0,1,1,-3.1622776601683795,0A3.1622776601683795,3.1622776601683795,0,1,1,3.1622776601683795,0" stroke="#f58518" stroke-width="2"/><path transform="translate(165.30899869919435,34.593687624674075)" d="M3.1622776601683795,0A3.1622776601683795,3.1622776601683795,0,1,1,-3.1622776601683795,0A3.1622776601683795,3.1622776601683795,0,1,1,3.1622776601683795,0" stroke="#f58518" stroke-width="2"/><path transform="translate(187.88624837399294,57.03627469878369)" d="M3.1622776601683795,0A3.1622776601683795,3.1622776601683795,0,1,1,-3.1622776601683795,0A3.1622776601683795,3.1622776601683795,0,1,1,3.1622776601683795,0" stroke="#f58518" stroke-width="2"/><path transform="translate(210.4634980487915,105.28671224405173)" d="M3.1622776601683795,0A3.1622776601683795,3.1622776601683795,0,1,1,-3.1622776601683795,0A3.1622776601683795,3.1622776601683795,0,1,1,3.1622776601683795,0" stroke="#f58518" stroke-width="2"/><path transform="translate(233.0407477235901,157.76387433877326)" d="M3.1622776601683795,0A3.1622776601683795,3.1622776601683795,0,1,1,-3.1622776601683795,0A3.1622776601683795,3.1622776601683795,0,1,1,3.1622776601683795,0" stroke="#f58518" stroke-width="2"/><path transform="translate(255.6179973983887,197.3723281270663)" d="M3.1622776601683795,0A3.1622776601683795,3.1622776601683795,0,1,1,-3.1622776601683795,0A3.1622776601683795,3.1622776601683795,0,1,1,3.1622776601683795,0" stroke="#f58518" stroke-width="2"/><path transform="translate(52.42275032520144,108.774465643341)" d="M3.1622776601683795,0A3.1622776601683795,3.1622776601683795,0,1,1,-3.1622776601683795,0A3.1622776601683795,3.1622776601683795,0,1,1,3.1622776601683795,0" stroke="#e45756" stroke-width="2"/><path transform="translate(75.00000000000003,98.0354202813212)" d="M3.1622776601683795,0A3.1622776601683795,3.1622776601683795,0,1,1,-3.1622776601683795,0A3.1622776601683795,3.1622776601683795,0,1,1,3.1622776601683795,0" stroke="#e45756" stroke-width="2"/><path transform="translate(97.57724967479857,85.03558674094849)" d="M3.1622776601683795,0A3.1622776601683795,3.1622776601683795,0,1,1,-3.1622776601683795,0A3.1622776601683795,3.1622776601683795,0,1,1,3.1622776601683795,0" stroke="#e45756" stroke-width="2"/><path transform="translate(120.15449934959716,66.49050566545885)" d="M3.1622776601683795,0A3.1622776601683795,3.1622776601683795,0,1,1,-3.1622776601683795,0A3.1622776601683795,3.1622776601683795,0,1,1,3.1622776601683795,0" stroke="#e45756" stroke-width="2"/><path transform="translate(142.73174902439575,54.78067061898923)" d="M3.1622776601683795,0A3.1622776601683795,3.1622776601683795,0,1,1,-3.1622776601683795,0A3.1622776601683795,3.1622776601683795,0,1,1,3.1622776601683795,0" stroke="#e45756" stroke-width="2"/><path transform="translate(165.30899869919435,50.19508207022688)" d="M3.1622776601683795,0A3.1622776601683795,3.1622776601683795,0,1,1,-3.1622776601683795,0A3.1622776601683795,3.1622776601683795,0,1,1,3.1622776601683795,0" stroke="#e45756" stroke-width="2"/><path transform="translate(187.88624837399294,59.72969543669196)" d="M3.1622776601683795,0A3.1622776601683795,3.1622776601683795,0,1,1,-3.1622776601683795,0A3.1622776601683795,3.1622776601683795,0,1,1,3.1622776601683795,0" stroke="#e45756" stroke-width="2"/><path transform="translate(210.4634980487915,89.12397969384406)" d="M3.1622776601683795,0A3.1622776601683795,3.1622776601683795,0,1,1,-3.1622776601683795,0A3.1622776601683795,3.1622776601683795,0,1,1,3.1622776601683795,0" stroke="#e45756" stroke-width="2"/><path transform="translate(233.0407477235901,134.50807243967677)" d="M3.1622776601683795,0A3.1622776601683795,3.1622776601683795,0,1,1,-3.1622776601683795,0A3.1622776601683795,3.1622776601683795,0,1,1,3.1622776601683795,0" stroke="#e45756" stroke-width="2"/><path transform="translate(255.6179973983887,178.45151258819024)" d="M3.1622776601683795,0A3.1622776601683795,3.1622776601683795,0,1,1,-3.1622776601683795,0A3.1622776601683795,3.1622776601683795,0,1,1,3.1622776601683795,0" stroke="#e45756" stroke-width="2"/><path transform="translate(52.42275032520144,130.95531893189556)" d="M3.1622776601683795,0A3.1622776601683795,3.1622776601683795,0,1,1,-3.1622776601683795,0A3.1622776601683795,3.1622776601683795,0,1,1,3.1622776601683795,0" stroke="#72b7b2" stroke-width="2"/><path transform="translate(75.00000000000003,120.30630234171998)" d="M3.1622776601683795,0A3.1622776601683795,3.1622776601683795,0,1,1,-3.1622776601683795,0A3.1622776601683795,3.1622776601683795,0,1,1,3.1622776601683795,0" stroke="#72b7b2" stroke-width="2"/><path transform="translate(97.57724967479857,115.05031566019045)" d="M3.1622776601683795,0A3.1622776601683795,3.1622776601683795,0,1,1,-3.1622776601683795,0A3.1622776601683795,3.1622776601683795,0,1,1,3.1622776601683795,0" stroke="#72b7b2" stroke-width="2"/><path transform="translate(120.15449934959716,102.28940502247957)" d="M3.1622776601683795,0A3.1622776601683795,3.1622776601683795,0,1,1,-3.1622776601683795,0A3.1622776601683795,3.1622776601683795,0,1,1,3.1622776601683795,0" stroke="#72b7b2" stroke-width="2"/><path transform="translate(142.73174902439575,86.12088241607077)" d="M3.1622776601683795,0A3.1622776601683795,3.1622776601683795,0,1,1,-3.1622776601683795,0A3.1622776601683795,3.1622776601683795,0,1,1,3.1622776601683795,0" stroke="#72b7b2" stroke-width="2"/><path transform="translate(165.30899869919435,78.51713345228862)" d="M3.1622776601683795,0A3.1622776601683795,3.1622776601683795,0,1,1,-3.1622776601683795,0A3.1622776601683795,3.1622776601683795,0,1,1,3.1622776601683795,0" stroke="#72b7b2" stroke-width="2"/><path transform="translate(187.88624837399294,78.19185141167259)" d="M3.1622776601683795,0A3.1622776601683795,3.1622776601683795,0,1,1,-3.1622776601683795,0A3.1622776601683795,3.1622776601683795,0,1,1,3.1622776601683795,0" stroke="#72b7b2" stroke-width="2"/><path transform="translate(210.4634980487915,93.0603919129768)" d="M3.1622776601683795,0A3.1622776601683795,3.1622776601683795,0,1,1,-3.1622776601683795,0A3.1622776601683795,3.1622776601683795,0,1,1,3.1622776601683795,0" stroke="#72b7b2" stroke-width="2"/><path transform="translate(233.0407477235901,126.87097493008747)" d="M3.1622776601683795,0A3.1622776601683795,3.1622776601683795,0,1,1,-3.1622776601683795,0A3.1622776601683795,3.1622776601683795,0,1,1,3.1622776601683795,0" stroke="#72b7b2" stroke-width="2"/><path transform="translate(255.6179973983887,166.5461962800303)" d="M3.1622776601683795,0A3.1622776601683795,3.1622776601683795,0,1,1,-3.1622776601683795,0A3.1622776601683795,3.1622776601683795,0,1,1,3.1622776601683795,0" stroke="#72b7b2" stroke-width="2"/></g><g class="mark-rule role-mark child_layer_2_marks" role="graphics-symbol" aria-roledescription="rule mark container"><line transform="translate(52.42275032520144,53.11508167613329)" x2="0" y2="-23.13017119103258" stroke="#4c78a8"/><line transform="translate(75.00000000000003,65.60096934882434)" x2="0" y2="-45.591727400202785" stroke="#4c78a8"/><line transform="translate(97.57724967479857,28.876496243244343)" x2="0" y2="-12.318632287345118" stroke="#4c78a8"/><line transform="translate(120.15449934959716,17.469288273718103)" x2="0" y2="-11.52027696820246" stroke="#4c78a8"/><line transform="translate(142.73174902439575,24.60548521894332)" x2="0" y2="-7.558778549537099" stroke="#4c78a8"/><line transform="translate(165.30899869919435,51.129378305776626)" x2="0" y2="-4.804633557352133" stroke="#4c78a8"/><line transform="translate(187.88624837399294,100.48446919384996)" x2="0" y2="-2.3221238875709247" stroke="#4c78a8"/><line transform="translate(210.4634980487915,155.515030952331)" x2="0" y2="-0.6451996550306092" stroke="#4c78a8"/><line transform="translate(233.0407477235901,196.64493536225996)" x2="0" y2="-0.18476625520497691" stroke="#4c78a8"/><line transform="translate(255.6179973983887,221.68157054281625)" x2="0" y2="-0.009975073702065629" stroke="#4c78a8"/><line transform="translate(52.42275032520144,104.19388684541622)" x2="0" y2="-17.877083518011815" stroke="#f58518"/><line transform="translate(75.00000000000003,78.76664242687256)" x2="0" y2="-16.375019095864808" stroke="#f58518"/><line transform="translate(97.57724967479857,50.895484504710986)" x2="0" y2="-5.3555769615648" stroke="#f58518"/><line transform="translate(120.15449934959716,43.602239068957886)" x2="0" y2="-22.54833334474685" stroke="#f58518"/><line transform="translate(142.73174902439575,34.94609781468677)" x2="0" y2="-9.514460578826878" stroke="#f58518"/><line transform="translate(165.30899869919435,36.86044973553432)" x2="0" y2="-4.775992557267763" stroke="#f58518"/><line transform="translate(187.88624837399294,59.46235841243125)" x2="0" y2="-4.107832702722696" stroke="#f58518"/><line transform="translate(210.4634980487915,106.1024946244209)" x2="0" y2="-1.362739974785697" stroke="#f58518"/><line transform="translate(233.0407477235901,157.91155073891218)" x2="0" y2="-0.2575640848688465" stroke="#f58518"/><line transform="translate(255.6179973983887,197.37993875319543)" x2="0" y2="-0.018701506449076533" stroke="#f58518"/><line transform="translate(52.42275032520144,120.56757361521022)" x2="0" y2="-18.23241364811703" stroke="#e45756"/><line transform="translate(75.00000000000003,119.68441422466553)" x2="0" y2="-45.92083608954296" stroke="#e45756"/><line transform="translate(97.57724967479857,92.83910527673991)" x2="0" y2="-17.57247787615674" stroke="#e45756"/><line transform="translate(120.15449934959716,72.81181629724465)" x2="0" y2="-18.705508394987135" stroke="#e45756"/><line transform="translate(142.73174902439575,60.37914765275173)" x2="0" y2="-8.88933662492314" stroke="#e45756"/><line transform="translate(165.30899869919435,54.88814510515477)" x2="0" y2="-9.495124969454508" stroke="#e45756"/><line transform="translate(187.88624837399294,63.94923776119016)" x2="0" y2="-6.724290942044078" stroke="#e45756"/><line transform="translate(210.4634980487915,90.1194729621564)" x2="0" y2="-2.2769088924561913" stroke="#e45756"/><line transform="translate(233.0407477235901,134.7531772627054)" x2="0" y2="-0.4894010758223146" stroke="#e45756"/><line transform="translate(255.6179973983887,178.50322677806972)" x2="0" y2="-0.09154651945374326" stroke="#e45756"/><line transform="translate(52.42275032520144,147.4813021785572)" x2="0" y2="-38.80747276238252" stroke="#72b7b2"/><line transform="translate(75.00000000000003,130.76906765214372)" x2="0" y2="-22.289151000679823" stroke="#72b7b2"/><line transform="translate(97.57724967479857,121.3520258839724)" x2="0" y2="-11.629480380666507" stroke="#72b7b2"/><line transform="translate(120.15449934959716,111.37832748848913)" x2="0" y2="-14.982495691197471" stroke="#72b7b2"/><line transform="translate(142.73174902439575,86.5481212301663)" x2="0" y2="-0.8319009570287506" stroke="#72b7b2"/><line transform="translate(165.30899869919435,81.24613490366231)" x2="0" y2="-4.988294658396754" stroke="#72b7b2"/><line transform="translate(187.88624837399294,82.11078082824655)" x2="0" y2="-6.610815108778283" stroke="#72b7b2"/><line transform="translate(210.4634980487915,95.17729359659945)" x2="0" y2="-3.6807847865712375" stroke="#72b7b2"/><line transform="translate(233.0407477235901,127.15791168646415)" x2="0" y2="-0.6216157773500584" stroke="#72b7b2"/><line transform="translate(255.6179973983887,166.58039619790466)" x2="0" y2="-0.06000249739597052" stroke="#72b7b2"/></g><g class="mark-group role-title"><g transform="translate(150,-20)"><path class="background" aria-hidden="true" d="M0,0h0v0h0Z" pointer-events="none"/><g><g class="mark-text role-title-text" role="graphics-symbol" aria-roledescription="title" aria-label="Title text 'AmpC'" pointer-events="none"><text text-anchor="middle" transform="translate(0,8)" font-family="sans-serif" font-size="10px" fill="#000" opacity="1">AmpC</text></g></g><path class="foreground" aria-hidden="true" d="" pointer-events="none" display="none"/></g></g></g><path class="foreground" aria-hidden="true" d="" display="none"/></g><g transform="translate(356,0)"><path class="background" aria-hidden="true" d="M0.5,0.5h300v250h-300Z" stroke="#ddd"/><g><g class="mark-group role-axis" role="graphics-symbol" aria-roledescription="axis" aria-label="X-axis for a log scale with values from 1,000 to 10,000,000"><g transform="translate(0.5,250.5)"><path class="background" aria-hidden="true" d="M0,0h0v0h0Z" pointer-events="none"/><g><g class="mark-rule role-axis-grid" pointer-events="none"><line transform="translate(0,-250)" x2="0" y2="250" stroke="#ddd" stroke-width="1" opacity="1"/><line transform="translate(23,-250)" x2="0" y2="250" stroke="#ddd" stroke-width="1" opacity="1"/><line transform="translate(36,-250)" x2="0" y2="250" stroke="#ddd" stroke-width="1" opacity="1"/><line transform="translate(45,-250)" x2="0" y2="250" stroke="#ddd" stroke-width="1" opacity="1"/><line transform="translate(52,-250)" x2="0" y2="250" stroke="#ddd" stroke-width="1" opacity="1"/><line transform="translate(58,-250)" x2="0" y2="250" stroke="#ddd" stroke-width="1" opacity="1"/><line transform="translate(63,-250)" x2="0" y2="250" stroke="#ddd" stroke-width="1" opacity="1"/><line transform="translate(68,-250)" x2="0" y2="250" stroke="#ddd" stroke-width="1" opacity="1"/><line transform="translate(72,-250)" x2="0" y2="250" stroke="#ddd" stroke-width="1" opacity="1"/><line transform="translate(75,-250)" x2="0" y2="250" stroke="#ddd" stroke-width="1" opacity="1"/><line transform="translate(98,-250)" x2="0" y2="250" stroke="#ddd" stroke-width="1" opacity="1"/><line transform="translate(111,-250)" x2="0" y2="250" stroke="#ddd" stroke-width="1" opacity="1"/><line transform="translate(120,-250)" x2="0" y2="250" stroke="#ddd" stroke-width="1" opacity="1"/><line transform="translate(127,-250)" x2="0" y2="250" stroke="#ddd" stroke-width="1" opacity="1"/><line transform="translate(133,-250)" x2="0" y2="250" stroke="#ddd" stroke-width="1" opacity="1"/><line transform="translate(138,-250)" x2="0" y2="250" stroke="#ddd" stroke-width="1" opacity="1"/><line transform="translate(143,-250)" x2="0" y2="250" stroke="#ddd" stroke-width="1" opacity="1"/><line transform="translate(147,-250)" x2="0" y2="250" stroke="#ddd" stroke-width="1" opacity="1"/><line transform="translate(150,-250)" x2="0" y2="250" stroke="#ddd" stroke-width="1" opacity="1"/><line transform="translate(173,-250)" x2="0" y2="250" stroke="#ddd" stroke-width="1" opacity="1"/><line transform="translate(186,-250)" x2="0" y2="250" stroke="#ddd" stroke-width="1" opacity="1"/><line transform="translate(195,-250)" x2="0" y2="250" stroke="#ddd" stroke-width="1" opacity="1"/><line transform="translate(202,-250)" x2="0" y2="250" stroke="#ddd" stroke-width="1" opacity="1"/><line transform="translate(208,-250)" x2="0" y2="250" stroke="#ddd" stroke-width="1" opacity="1"/><line transform="translate(213,-250)" x2="0" y2="250" stroke="#ddd" stroke-width="1" opacity="1"/><line transform="translate(218,-250)" x2="0" y2="250" stroke="#ddd" stroke-width="1" opacity="1"/><line transform="translate(222,-250)" x2="0" y2="250" stroke="#ddd" stroke-width="1" opacity="1"/><line transform="translate(225,-250)" x2="0" y2="250" stroke="#ddd" stroke-width="1" opacity="1"/><line transform="translate(248,-250)" x2="0" y2="250" stroke="#ddd" stroke-width="1" opacity="1"/><line transform="translate(261,-250)" x2="0" y2="250" stroke="#ddd" stroke-width="1" opacity="1"/><line transform="translate(270,-250)" x2="0" y2="250" stroke="#ddd" stroke-width="1" opacity="1"/><line transform="translate(277,-250)" x2="0" y2="250" stroke="#ddd" stroke-width="1" opacity="1"/><line transform="translate(283,-250)" x2="0" y2="250" stroke="#ddd" stroke-width="1" opacity="1"/><line transform="translate(288,-250)" x2="0" y2="250" stroke="#ddd" stroke-width="1" opacity="1"/><line transform="translate(293,-250)" x2="0" y2="250" stroke="#ddd" stroke-width="1" opacity="1"/><line transform="translate(297,-250)" x2="0" y2="250" stroke="#ddd" stroke-width="1" opacity="1"/><line transform="translate(300,-250)" x2="0" y2="250" stroke="#ddd" stroke-width="1" opacity="1"/></g></g><path class="foreground" aria-hidden="true" d="" pointer-events="none" display="none"/></g></g><g class="mark-group role-axis" role="graphics-symbol" aria-roledescription="axis" aria-label="Y-axis for a linear scale with values from 0 to 28"><g transform="translate(0.5,0.5)"><path class="background" aria-hidden="true" d="M0,0h0v0h0Z" pointer-events="none"/><g><g class="mark-rule role-axis-grid" pointer-events="none"><line transform="translate(0,250)" x2="300" y2="0" stroke="#ddd" stroke-width="1" opacity="1"/><line transform="translate(0,205)" x2="300" y2="0" stroke="#ddd" stroke-width="1" opacity="1"/><line transform="translate(0,161)" x2="300" y2="0" stroke="#ddd" stroke-width="1" opacity="1"/><line transform="translate(0,116)" x2="300" y2="0" stroke="#ddd" stroke-width="1" opacity="1"/><line transform="translate(0,71)" x2="300" y2="0" stroke="#ddd" stroke-width="1" opacity="1"/><line transform="translate(0,27)" x2="300" y2="0" stroke="#ddd" stroke-width="1" opacity="1"/></g></g><path class="foreground" aria-hidden="true" d="" pointer-events="none" display="none"/></g></g><g class="mark-group role-axis" role="graphics-symbol" aria-roledescription="axis" aria-label="Y-axis titled 'Enrichment' for a linear scale with values from 0 to 28"><g transform="translate(0.5,0.5)"><path class="background" aria-hidden="true" d="M0,0h0v0h0Z" pointer-events="none"/><g><g class="mark-rule role-axis-tick" pointer-events="none"><line transform="translate(0,250)" x2="-5" y2="0" stroke="#888" stroke-width="1" opacity="1"/><line transform="translate(0,205)" x2="-5" y2="0" stroke="#888" stroke-width="1" opacity="1"/><line transform="translate(0,161)" x2="-5" y2="0" stroke="#888" stroke-width="1" opacity="1"/><line transform="translate(0,116)" x2="-5" y2="0" stroke="#888" stroke-width="1" opacity="1"/><line transform="translate(0,71)" x2="-5" y2="0" stroke="#888" stroke-width="1" opacity="1"/><line transform="translate(0,27)" x2="-5" y2="0" stroke="#888" stroke-width="1" opacity="1"/></g><g class="mark-text role-axis-label" pointer-events="none"><text text-anchor="end" transform="translate(-7,253)" font-family="sans-serif" font-size="10px" fill="#000" opacity="1">0</text><text text-anchor="end" transform="translate(-7,208.35714285714286)" font-family="sans-serif" font-size="10px" fill="#000" opacity="1">5</text><text text-anchor="end" transform="translate(-7,163.7142857142857)" font-family="sans-serif" font-size="10px" fill="#000" opacity="1">10</text><text text-anchor="end" transform="translate(-7,119.07142857142857)" font-family="sans-serif" font-size="10px" fill="#000" opacity="1">15</text><text text-anchor="end" transform="translate(-7,74.42857142857143)" font-family="sans-serif" font-size="10px" fill="#000" opacity="1">20</text><text text-anchor="end" transform="translate(-7,29.785714285714274)" font-family="sans-serif" font-size="10px" fill="#000" opacity="1">25</text></g><g class="mark-rule role-axis-domain" pointer-events="none"><line transform="translate(0,250)" x2="0" y2="-250" stroke="#888" stroke-width="1" opacity="1"/></g><g class="mark-text role-axis-title" pointer-events="none"><text text-anchor="middle" transform="translate(-22.133333206176758,125) rotate(-90) translate(0,-2)" font-family="sans-serif" font-size="11px" font-weight="bold" fill="#000" opacity="1">Enrichment</text></g></g><path class="foreground" aria-hidden="true" d="" pointer-events="none" display="none"/></g></g><g class="mark-group role-scope child_layer_0_pathgroup" role="graphics-object" aria-roledescription="group mark container"><g transform="translate(0,0)"><path class="background" aria-hidden="true" d="M0,0h300v250h-300Z"/><g><g class="mark-line role-mark child_layer_0_marks" role="graphics-symbol" aria-roledescription="line mark container"><path d="M52.42275032520144,149.10029433506767L75.00000000000003,124.94888981345423L97.57724967479857,117.25183455017226L120.15449934959716,83.49972239222848L142.73174902439575,32.09937245124661L165.30899869919435,11.147058776274948L187.88624837399294,30.594564122000513L210.4634980487915,89.12290745498821L233.0407477235901,151.69606110715625L255.6179973983887,195.9268023643466" stroke="#4c78a8" stroke-width="2" opacity="0.5"/></g></g><path class="foreground" aria-hidden="true" d="" display="none"/></g><g transform="translate(0,0)"><path class="background" aria-hidden="true" d="M0,0h300v250h-300Z"/><g><g class="mark-line role-mark child_layer_0_marks" role="graphics-symbol" aria-roledescription="line mark container"><path d="M52.42275032520144,192.68302080718658L75.00000000000003,169.03661188705436L97.57724967479857,152.26880944323352L120.15449934959716,120.80872277542129L142.73174902439575,92.05822652525278L165.30899869919435,54.60523401117154L187.88624837399294,40.63381684516368L210.4634980487915,56.981668796877244L233.0407477235901,103.94067258434173L255.6179973983887,156.83631089753678" stroke="#f58518" stroke-width="2" opacity="0.5"/></g></g><path class="foreground" aria-hidden="true" d="" display="none"/></g><g transform="translate(0,0)"><path class="background" aria-hidden="true" d="M0,0h300v250h-300Z"/><g><g class="mark-line role-mark child_layer_0_marks" role="graphics-symbol" aria-roledescription="line mark container"><path d="M52.42275032520144,195.19917488531124L75.00000000000003,186.94973455073298L97.57724967479857,168.94812552779825L120.15449934959716,150.56779527045305L142.73174902439575,132.74912397759275L165.30899869919435,104.32381133692786L187.88624837399294,81.36344803039263L210.4634980487915,74.72068220635958L233.0407477235901,95.99114551883744L255.6179973983887,137.29721062691337" stroke="#e45756" stroke-width="2" opacity="0.5"/></g></g><path class="foreground" aria-hidden="true" d="" display="none"/></g><g transform="translate(0,0)"><path class="background" aria-hidden="true" d="M0,0h300v250h-300Z"/><g><g class="mark-line role-mark child_layer_0_marks" role="graphics-symbol" aria-roledescription="line mark container"><path d="M52.42275032520144,214.4401059530018L75.00000000000003,208.60859931891994L97.57724967479857,191.44349436422232L120.15449934959716,178.3732362800692L142.73174902439575,160.57005606350057L165.30899869919435,140.69588510374228L187.88624837399294,122.35755551597796L210.4634980487915,111.2616503577531L233.0407477235901,115.00845415217698L255.6179973983887,137.21115993249146" stroke="#72b7b2" stroke-width="2" opacity="0.5"/></g></g><path class="foreground" aria-hidden="true" d="" display="none"/></g></g><g class="mark-symbol role-mark child_layer_1_marks" role="graphics-symbol" aria-roledescription="symbol mark container"><path transform="translate(52.42275032520144,149.10029433506767)" d="M3.1622776601683795,0A3.1622776601683795,3.1622776601683795,0,1,1,-3.1622776601683795,0A3.1622776601683795,3.1622776601683795,0,1,1,3.1622776601683795,0" stroke="#4c78a8" stroke-width="2"/><path transform="translate(75.00000000000003,124.94888981345423)" d="M3.1622776601683795,0A3.1622776601683795,3.1622776601683795,0,1,1,-3.1622776601683795,0A3.1622776601683795,3.1622776601683795,0,1,1,3.1622776601683795,0" stroke="#4c78a8" stroke-width="2"/><path transform="translate(97.57724967479857,117.25183455017226)" d="M3.1622776601683795,0A3.1622776601683795,3.1622776601683795,0,1,1,-3.1622776601683795,0A3.1622776601683795,3.1622776601683795,0,1,1,3.1622776601683795,0" stroke="#4c78a8" stroke-width="2"/><path transform="translate(120.15449934959716,83.49972239222848)" d="M3.1622776601683795,0A3.1622776601683795,3.1622776601683795,0,1,1,-3.1622776601683795,0A3.1622776601683795,3.1622776601683795,0,1,1,3.1622776601683795,0" stroke="#4c78a8" stroke-width="2"/><path transform="translate(142.73174902439575,32.09937245124661)" d="M3.1622776601683795,0A3.1622776601683795,3.1622776601683795,0,1,1,-3.1622776601683795,0A3.1622776601683795,3.1622776601683795,0,1,1,3.1622776601683795,0" stroke="#4c78a8" stroke-width="2"/><path transform="translate(165.30899869919435,11.147058776274948)" d="M3.1622776601683795,0A3.1622776601683795,3.1622776601683795,0,1,1,-3.1622776601683795,0A3.1622776601683795,3.1622776601683795,0,1,1,3.1622776601683795,0" stroke="#4c78a8" stroke-width="2"/><path transform="translate(187.88624837399294,30.594564122000513)" d="M3.1622776601683795,0A3.1622776601683795,3.1622776601683795,0,1,1,-3.1622776601683795,0A3.1622776601683795,3.1622776601683795,0,1,1,3.1622776601683795,0" stroke="#4c78a8" stroke-width="2"/><path transform="translate(210.4634980487915,89.12290745498821)" d="M3.1622776601683795,0A3.1622776601683795,3.1622776601683795,0,1,1,-3.1622776601683795,0A3.1622776601683795,3.1622776601683795,0,1,1,3.1622776601683795,0" stroke="#4c78a8" stroke-width="2"/><path transform="translate(233.0407477235901,151.69606110715625)" d="M3.1622776601683795,0A3.1622776601683795,3.1622776601683795,0,1,1,-3.1622776601683795,0A3.1622776601683795,3.1622776601683795,0,1,1,3.1622776601683795,0" stroke="#4c78a8" stroke-width="2"/><path transform="translate(255.6179973983887,195.9268023643466)" d="M3.1622776601683795,0A3.1622776601683795,3.1622776601683795,0,1,1,-3.1622776601683795,0A3.1622776601683795,3.1622776601683795,0,1,1,3.1622776601683795,0" stroke="#4c78a8" stroke-width="2"/><path transform="translate(52.42275032520144,192.68302080718658)" d="M3.1622776601683795,0A3.1622776601683795,3.1622776601683795,0,1,1,-3.1622776601683795,0A3.1622776601683795,3.1622776601683795,0,1,1,3.1622776601683795,0" stroke="#f58518" stroke-width="2"/><path transform="translate(75.00000000000003,169.03661188705436)" d="M3.1622776601683795,0A3.1622776601683795,3.1622776601683795,0,1,1,-3.1622776601683795,0A3.1622776601683795,3.1622776601683795,0,1,1,3.1622776601683795,0" stroke="#f58518" stroke-width="2"/><path transform="translate(97.57724967479857,152.26880944323352)" d="M3.1622776601683795,0A3.1622776601683795,3.1622776601683795,0,1,1,-3.1622776601683795,0A3.1622776601683795,3.1622776601683795,0,1,1,3.1622776601683795,0" stroke="#f58518" stroke-width="2"/><path transform="translate(120.15449934959716,120.80872277542129)" d="M3.1622776601683795,0A3.1622776601683795,3.1622776601683795,0,1,1,-3.1622776601683795,0A3.1622776601683795,3.1622776601683795,0,1,1,3.1622776601683795,0" stroke="#f58518" stroke-width="2"/><path transform="translate(142.73174902439575,92.05822652525278)" d="M3.1622776601683795,0A3.1622776601683795,3.1622776601683795,0,1,1,-3.1622776601683795,0A3.1622776601683795,3.1622776601683795,0,1,1,3.1622776601683795,0" stroke="#f58518" stroke-width="2"/><path transform="translate(165.30899869919435,54.60523401117154)" d="M3.1622776601683795,0A3.1622776601683795,3.1622776601683795,0,1,1,-3.1622776601683795,0A3.1622776601683795,3.1622776601683795,0,1,1,3.1622776601683795,0" stroke="#f58518" stroke-width="2"/><path transform="translate(187.88624837399294,40.63381684516368)" d="M3.1622776601683795,0A3.1622776601683795,3.1622776601683795,0,1,1,-3.1622776601683795,0A3.1622776601683795,3.1622776601683795,0,1,1,3.1622776601683795,0" stroke="#f58518" stroke-width="2"/><path transform="translate(210.4634980487915,56.981668796877244)" d="M3.1622776601683795,0A3.1622776601683795,3.1622776601683795,0,1,1,-3.1622776601683795,0A3.1622776601683795,3.1622776601683795,0,1,1,3.1622776601683795,0" stroke="#f58518" stroke-width="2"/><path transform="translate(233.0407477235901,103.94067258434173)" d="M3.1622776601683795,0A3.1622776601683795,3.1622776601683795,0,1,1,-3.1622776601683795,0A3.1622776601683795,3.1622776601683795,0,1,1,3.1622776601683795,0" stroke="#f58518" stroke-width="2"/><path transform="translate(255.6179973983887,156.83631089753678)" d="M3.1622776601683795,0A3.1622776601683795,3.1622776601683795,0,1,1,-3.1622776601683795,0A3.1622776601683795,3.1622776601683795,0,1,1,3.1622776601683795,0" stroke="#f58518" stroke-width="2"/><path transform="translate(52.42275032520144,195.19917488531124)" d="M3.1622776601683795,0A3.1622776601683795,3.1622776601683795,0,1,1,-3.1622776601683795,0A3.1622776601683795,3.1622776601683795,0,1,1,3.1622776601683795,0" stroke="#e45756" stroke-width="2"/><path transform="translate(75.00000000000003,186.94973455073298)" d="M3.1622776601683795,0A3.1622776601683795,3.1622776601683795,0,1,1,-3.1622776601683795,0A3.1622776601683795,3.1622776601683795,0,1,1,3.1622776601683795,0" stroke="#e45756" stroke-width="2"/><path transform="translate(97.57724967479857,168.94812552779825)" d="M3.1622776601683795,0A3.1622776601683795,3.1622776601683795,0,1,1,-3.1622776601683795,0A3.1622776601683795,3.1622776601683795,0,1,1,3.1622776601683795,0" stroke="#e45756" stroke-width="2"/><path transform="translate(120.15449934959716,150.56779527045305)" d="M3.1622776601683795,0A3.1622776601683795,3.1622776601683795,0,1,1,-3.1622776601683795,0A3.1622776601683795,3.1622776601683795,0,1,1,3.1622776601683795,0" stroke="#e45756" stroke-width="2"/><path transform="translate(142.73174902439575,132.74912397759275)" d="M3.1622776601683795,0A3.1622776601683795,3.1622776601683795,0,1,1,-3.1622776601683795,0A3.1622776601683795,3.1622776601683795,0,1,1,3.1622776601683795,0" stroke="#e45756" stroke-width="2"/><path transform="translate(165.30899869919435,104.32381133692786)" d="M3.1622776601683795,0A3.1622776601683795,3.1622776601683795,0,1,1,-3.1622776601683795,0A3.1622776601683795,3.1622776601683795,0,1,1,3.1622776601683795,0" stroke="#e45756" stroke-width="2"/><path transform="translate(187.88624837399294,81.36344803039263)" d="M3.1622776601683795,0A3.1622776601683795,3.1622776601683795,0,1,1,-3.1622776601683795,0A3.1622776601683795,3.1622776601683795,0,1,1,3.1622776601683795,0" stroke="#e45756" stroke-width="2"/><path transform="translate(210.4634980487915,74.72068220635958)" d="M3.1622776601683795,0A3.1622776601683795,3.1622776601683795,0,1,1,-3.1622776601683795,0A3.1622776601683795,3.1622776601683795,0,1,1,3.1622776601683795,0" stroke="#e45756" stroke-width="2"/><path transform="translate(233.0407477235901,95.99114551883744)" d="M3.1622776601683795,0A3.1622776601683795,3.1622776601683795,0,1,1,-3.1622776601683795,0A3.1622776601683795,3.1622776601683795,0,1,1,3.1622776601683795,0" stroke="#e45756" stroke-width="2"/><path transform="translate(255.6179973983887,137.29721062691337)" d="M3.1622776601683795,0A3.1622776601683795,3.1622776601683795,0,1,1,-3.1622776601683795,0A3.1622776601683795,3.1622776601683795,0,1,1,3.1622776601683795,0" stroke="#e45756" stroke-width="2"/><path transform="translate(52.42275032520144,214.4401059530018)" d="M3.1622776601683795,0A3.1622776601683795,3.1622776601683795,0,1,1,-3.1622776601683795,0A3.1622776601683795,3.1622776601683795,0,1,1,3.1622776601683795,0" stroke="#72b7b2" stroke-width="2"/><path transform="translate(75.00000000000003,208.60859931891994)" d="M3.1622776601683795,0A3.1622776601683795,3.1622776601683795,0,1,1,-3.1622776601683795,0A3.1622776601683795,3.1622776601683795,0,1,1,3.1622776601683795,0" stroke="#72b7b2" stroke-width="2"/><path transform="translate(97.57724967479857,191.44349436422232)" d="M3.1622776601683795,0A3.1622776601683795,3.1622776601683795,0,1,1,-3.1622776601683795,0A3.1622776601683795,3.1622776601683795,0,1,1,3.1622776601683795,0" stroke="#72b7b2" stroke-width="2"/><path transform="translate(120.15449934959716,178.3732362800692)" d="M3.1622776601683795,0A3.1622776601683795,3.1622776601683795,0,1,1,-3.1622776601683795,0A3.1622776601683795,3.1622776601683795,0,1,1,3.1622776601683795,0" stroke="#72b7b2" stroke-width="2"/><path transform="translate(142.73174902439575,160.57005606350057)" d="M3.1622776601683795,0A3.1622776601683795,3.1622776601683795,0,1,1,-3.1622776601683795,0A3.1622776601683795,3.1622776601683795,0,1,1,3.1622776601683795,0" stroke="#72b7b2" stroke-width="2"/><path transform="translate(165.30899869919435,140.69588510374228)" d="M3.1622776601683795,0A3.1622776601683795,3.1622776601683795,0,1,1,-3.1622776601683795,0A3.1622776601683795,3.1622776601683795,0,1,1,3.1622776601683795,0" stroke="#72b7b2" stroke-width="2"/><path transform="translate(187.88624837399294,122.35755551597796)" d="M3.1622776601683795,0A3.1622776601683795,3.1622776601683795,0,1,1,-3.1622776601683795,0A3.1622776601683795,3.1622776601683795,0,1,1,3.1622776601683795,0" stroke="#72b7b2" stroke-width="2"/><path transform="translate(210.4634980487915,111.2616503577531)" d="M3.1622776601683795,0A3.1622776601683795,3.1622776601683795,0,1,1,-3.1622776601683795,0A3.1622776601683795,3.1622776601683795,0,1,1,3.1622776601683795,0" stroke="#72b7b2" stroke-width="2"/><path transform="translate(233.0407477235901,115.00845415217698)" d="M3.1622776601683795,0A3.1622776601683795,3.1622776601683795,0,1,1,-3.1622776601683795,0A3.1622776601683795,3.1622776601683795,0,1,1,3.1622776601683795,0" stroke="#72b7b2" stroke-width="2"/><path transform="translate(255.6179973983887,137.21115993249146)" d="M3.1622776601683795,0A3.1622776601683795,3.1622776601683795,0,1,1,-3.1622776601683795,0A3.1622776601683795,3.1622776601683795,0,1,1,3.1622776601683795,0" stroke="#72b7b2" stroke-width="2"/></g><g class="mark-rule role-mark child_layer_2_marks" role="graphics-symbol" aria-roledescription="rule mark container"><line transform="translate(52.42275032520144,168.60356961245427)" x2="0" y2="-31.715611632654884" stroke="#4c78a8"/><line transform="translate(75.00000000000003,162.9715428084626)" x2="0" y2="-64.61436103370688" stroke="#4c78a8"/><line transform="translate(97.57724967479857,135.88296712173252)" x2="0" y2="-36.42401405306046" stroke="#4c78a8"/><line transform="translate(120.15449934959716,99.89900724884527)" x2="0" y2="-38.98521743054168" stroke="#4c78a8"/><line transform="translate(142.73174902439575,47.54549994826881)" x2="0" y2="-35.29989334513317" stroke="#4c78a8"/><line transform="translate(165.30899869919435,14.82990165600387)" x2="0" y2="-5.834547839974835" stroke="#4c78a8"/><line transform="translate(187.88624837399294,36.1391331579195)" x2="0" y2="-10.012502070283205" stroke="#4c78a8"/><line transform="translate(210.4634980487915,90.64192797055942)" x2="0" y2="-2.3993224186832975" stroke="#4c78a8"/><line transform="translate(233.0407477235901,151.79332923096572)" x2="0" y2="-0.19267262238082594" stroke="#4c78a8"/><line transform="translate(255.6179973983887,195.9424077158192)" x2="0" y2="-0.02388955880536514" stroke="#4c78a8"/><line transform="translate(52.42275032520144,194.51740922968256)" x2="0" y2="-4.977147595340142" stroke="#f58518"/><line transform="translate(75.00000000000003,178.52232054653686)" x2="0" y2="-15.104094684112084" stroke="#f58518"/><line transform="translate(97.57724967479857,165.1912867989417)" x2="0" y2="-21.793368636967642" stroke="#f58518"/><line transform="translate(120.15449934959716,127.90684034057232)" x2="0" y2="-14.675082920955347" stroke="#f58518"/><line transform="translate(142.73174902439575,100.0838702789402)" x2="0" y2="-12.176301503834836" stroke="#f58518"/><line transform="translate(165.30899869919435,59.94843034280042)" x2="0" y2="-10.916776220577901" stroke="#f58518"/><line transform="translate(187.88624837399294,41.357562896097235)" x2="0" y2="-1.35171901072556" stroke="#f58518"/><line transform="translate(210.4634980487915,57.37877961358645)" x2="0" y2="-0.8815390093760982" stroke="#f58518"/><line transform="translate(233.0407477235901,104.32339721007631)" x2="0" y2="-0.7022273556183194" stroke="#f58518"/><line transform="translate(255.6179973983887,156.92732614597853)" x2="0" y2="-0.15726345130693176" stroke="#f58518"/><line transform="translate(52.42275032520144,207.20512402975285)" x2="0" y2="-20.326444864701074" stroke="#e45756"/><line transform="translate(75.00000000000003,193.06116790235774)" x2="0" y2="-12.668998941498643" stroke="#e45756"/><line transform="translate(97.57724967479857,169.73395749577858)" x2="0" y2="-1.5504030202291972" stroke="#e45756"/><line transform="translate(120.15449934959716,154.52496372788804)" x2="0" y2="-8.546589574249566" stroke="#e45756"/><line transform="translate(142.73174902439575,140.12730746718023)" x2="0" y2="-15.91127870906007" stroke="#e45756"/><line transform="translate(165.30899869919435,108.16709495665336)" x2="0" y2="-7.653393066486402" stroke="#e45756"/><line transform="translate(187.88624837399294,83.22091978582685)" x2="0" y2="-4.6028095297422595" stroke="#e45756"/><line transform="translate(210.4634980487915,75.08259599816967)" x2="0" y2="-0.8735046099047139" stroke="#e45756"/><line transform="translate(233.0407477235901,96.76983706656766)" x2="0" y2="-1.2346791632146221" stroke="#e45756"/><line transform="translate(255.6179973983887,137.54045757296785)" x2="0" y2="-0.6197514877639492" stroke="#e45756"/><line transform="translate(52.42275032520144,219.8172633779209)" x2="0" y2="-8.080627634633856" stroke="#72b7b2"/><line transform="translate(75.00000000000003,210.61700475377012)" x2="0" y2="-3.0228114154794525" stroke="#72b7b2"/><line transform="translate(97.57724967479857,196.3849738338942)" x2="0" y2="-10.207655838121468" stroke="#72b7b2"/><line transform="translate(120.15449934959716,180.8569707629088)" x2="0" y2="-5.977016351762046" stroke="#72b7b2"/><line transform="translate(142.73174902439575,164.96890174649795)" x2="0" y2="-7.486994658762342" stroke="#72b7b2"/><line transform="translate(165.30899869919435,141.50529228938612)" x2="0" y2="-1.577146050774303" stroke="#72b7b2"/><line transform="translate(187.88624837399294,122.97311068385363)" x2="0" y2="-1.6777196957771139" stroke="#72b7b2"/><line transform="translate(210.4634980487915,111.82603701300215)" x2="0" y2="-1.5649671297196903" stroke="#72b7b2"/><line transform="translate(233.0407477235901,115.8680342118065)" x2="0" y2="-1.490139208791021" stroke="#72b7b2"/><line transform="translate(255.6179973983887,137.76500052642703)" x2="0" y2="-0.9151220881286122" stroke="#72b7b2"/></g><g class="mark-group role-title"><g transform="translate(150,-20)"><path class="background" aria-hidden="true" d="M0,0h0v0h0Z" pointer-events="none"/><g><g class="mark-text role-title-text" role="graphics-symbol" aria-roledescription="title" aria-label="Title text 'D4'" pointer-events="none"><text text-anchor="middle" transform="translate(0,8)" font-family="sans-serif" font-size="10px" fill="#000" opacity="1">D4</text></g></g><path class="foreground" aria-hidden="true" d="" pointer-events="none" display="none"/></g></g></g><path class="foreground" aria-hidden="true" d="" display="none"/></g></g><g class="mark-group role-legend" role="graphics-symbol" aria-roledescription="legend" aria-label="Symbol legend titled 'N hits wanted' for stroke color with 4 values: 50000, 100000, 150000, 200000"><g transform="translate(675,0)"><path class="background" aria-hidden="true" d="M0,0h72v77h-72Z" pointer-events="none"/><g><g class="mark-group role-legend-entry"><g transform="translate(0,16)"><path class="background" aria-hidden="true" d="M0,0h0v0h0Z" pointer-events="none"/><g><g class="mark-group role-scope" role="graphics-object" aria-roledescription="group mark container"><g transform="translate(0,0)"><path class="background" aria-hidden="true" d="M0,0h49.400001525878906v12.5h-49.400001525878906Z" pointer-events="none" opacity="1"/><g><g class="mark-symbol role-legend-symbol" pointer-events="none"><path transform="translate(6,6)" d="M5,0A5,5,0,1,1,-5,0A5,5,0,1,1,5,0" stroke="#4c78a8" stroke-width="1.5" opacity="0.5"/></g><g class="mark-text role-legend-label" pointer-events="none"><text text-anchor="start" transform="translate(16,9)" font-family="sans-serif" font-size="10px" fill="#000" opacity="1">50000</text></g></g><path class="foreground" aria-hidden="true" d="" pointer-events="none" display="none"/></g><g transform="translate(0,16)"><path class="background" aria-hidden="true" d="M0,0h49.400001525878906v12.5h-49.400001525878906Z" pointer-events="none" opacity="1"/><g><g class="mark-symbol role-legend-symbol" pointer-events="none"><path transform="translate(6,6)" d="M5,0A5,5,0,1,1,-5,0A5,5,0,1,1,5,0" stroke="#f58518" stroke-width="1.5" opacity="0.5"/></g><g class="mark-text role-legend-label" pointer-events="none"><text text-anchor="start" transform="translate(16,9)" font-family="sans-serif" font-size="10px" fill="#000" opacity="1">100000</text></g></g><path class="foreground" aria-hidden="true" d="" pointer-events="none" display="none"/></g><g transform="translate(0,32)"><path class="background" aria-hidden="true" d="M0,0h49.400001525878906v12.5h-49.400001525878906Z" pointer-events="none" opacity="1"/><g><g class="mark-symbol role-legend-symbol" pointer-events="none"><path transform="translate(6,6)" d="M5,0A5,5,0,1,1,-5,0A5,5,0,1,1,5,0" stroke="#e45756" stroke-width="1.5" opacity="0.5"/></g><g class="mark-text role-legend-label" pointer-events="none"><text text-anchor="start" transform="translate(16,9)" font-family="sans-serif" font-size="10px" fill="#000" opacity="1">150000</text></g></g><path class="foreground" aria-hidden="true" d="" pointer-events="none" display="none"/></g><g transform="translate(0,48)"><path class="background" aria-hidden="true" d="M0,0h49.400001525878906v12.5h-49.400001525878906Z" pointer-events="none" opacity="1"/><g><g class="mark-symbol role-legend-symbol" pointer-events="none"><path transform="translate(6,6)" d="M5,0A5,5,0,1,1,-5,0A5,5,0,1,1,5,0" stroke="#72b7b2" stroke-width="1.5" opacity="0.5"/></g><g class="mark-text role-legend-label" pointer-events="none"><text text-anchor="start" transform="translate(16,9)" font-family="sans-serif" font-size="10px" fill="#000" opacity="1">200000</text></g></g><path class="foreground" aria-hidden="true" d="" pointer-events="none" display="none"/></g></g></g><path class="foreground" aria-hidden="true" d="" pointer-events="none" display="none"/></g></g><g class="mark-text role-legend-title" pointer-events="none"><text text-anchor="start" transform="translate(0,9)" font-family="sans-serif" font-size="11px" font-weight="bold" fill="#000" opacity="1">N hits wanted</text></g></g><path class="foreground" aria-hidden="true" d="" pointer-events="none" display="none"/></g></g></g><path class="foreground" aria-hidden="true" d="" display="none"/></g></g></g></svg>