<svg xmlns="http://www.w3.org/2000/svg" xmlns:xlink="http://www.w3.org/1999/xlink" version="1.1" class="marks" width="797" height="345" viewBox="0 0 797 345"><rect width="797" height="345" fill="white"/><g fill="none" stroke-miterlimit="10" transform="translate(40,52)"><g class="mark-group role-frame root" role="graphics-object" aria-roledescription="group mark container"><g transform="translate(0,0)"><path class="background" aria-hidden="true" d="M0,0h0v0h0Z"/><g><g class="mark-group role-column-title facet-title" role="graphics-object" aria-roledescription="group mark container"><g transform="translate(314,-26)"><path class="background" aria-hidden="true" d="M0,0h0v0h0Z"/><g><g class="mark-group role-title"><g transform="translate(0,-21)"><path class="background" aria-hidden="true" d="M0,0h0v0h0Z" pointer-events="none"/><g><g class="mark-text role-title-text" role="graphics-symbol" aria-roledescription="title" aria-label="Title text 'Dataset'" pointer-events="none"><text text-anchor="middle" transform="translate(0,9)" font-family="sans-serif" font-size="11px" font-weight="bold" fill="#000" opacity="1">Dataset</text></g></g><path class="foreground" aria-hidden="true" d="" pointer-events="none" display="none"/></g></g></g><path class="foreground" aria-hidden="true" d="" display="none"/></g></g><g class="mark-group role-column-footer column_footer" role="graphics-object" aria-roledescription="group mark container"><g transform="translate(0,256)"><path class="background" aria-hidden="true" d="M0,0h300v0h-300Z"/><g><g class="mark-group role-axis" role="graphics-symbol" aria-roledescription="axis" aria-label="X-axis titled 'Training set size' for a log scale with values from 1,000 to 10,000,000"><g transform="translate(0.5,0.5)"><path class="background" aria-hidden="true" d="M0,0h0v0h0Z" pointer-events="none"/><g><g class="mark-rule role-axis-tick" pointer-events="none"><line transform="translate(0,0)" x2="0" y2="5" stroke="#888" stroke-width="1" opacity="1"/><line transform="translate(23,0)" x2="0" y2="5" stroke="#888" stroke-width="1" opacity="1"/><line transform="translate(36,0)" x2="0" y2="5" stroke="#888" stroke-width="1" opacity="1"/><line transform="translate(45,0)" x2="0" y2="5" stroke="#888" stroke-width="1" opacity="1"/><line transform="translate(52,0)" x2="0" y2="5" stroke="#888" stroke-width="1" opacity="1"/><line transform="translate(58,0)" x2="0" y2="5" stroke="#888" stroke-width="1" opacity="1"/><line transform="translate(63,0)" x2="0" y2="5" stroke="#888" stroke-width="1" opacity="1"/><line transform="translate(68,0)" x2="0" y2="5" stroke="#888" stroke-width="1" opacity="1"/><line transform="translate(72,0)" x2="0" y2="5" stroke="#888" stroke-width="1" opacity="1"/><line transform="translate(75,0)" x2="0" y2="5" stroke="#888" stroke-width="1" opacity="1"/><line transform="translate(98,0)" x2="0" y2="5" stroke="#888" stroke-width="1" opacity="1"/><line transform="translate(111,0)" x2="0" y2="5" stroke="#888" stroke-width="1" opacity="1"/><line transform="translate(120,0)" x2="0" y2="5" stroke="#888" stroke-width="1" opacity="1"/><line transform="translate(127,0)" x2="0" y2="5" stroke="#888" stroke-width="1" opacity="1"/><line transform="translate(133,0)" x2="0" y2="5" stroke="#888" stroke-width="1" opacity="1"/><line transform="translate(138,0)" x2="0" y2="5" stroke="#888" stroke-width="1" opacity="1"/><line transform="translate(143,0)" x2="0" y2="5" stroke="#888" stroke-width="1" opacity="1"/><line transform="translate(147,0)" x2="0" y2="5" stroke="#888" stroke-width="1" opacity="1"/><line transform="translate(150,0)" x2="0" y2="5" stroke="#888" stroke-width="1" opacity="1"/><line transform="translate(173,0)" x2="0" y2="5" stroke="#888" stroke-width="1" opacity="1"/><line transform="translate(186,0)" x2="0" y2="5" stroke="#888" stroke-width="1" opacity="1"/><line transform="translate(195,0)" x2="0" y2="5" stroke="#888" stroke-width="1" opacity="1"/><line transform="translate(202,0)" x2="0" y2="5" stroke="#888" stroke-width="1" opacity="1"/><line transform="translate(208,0)" x2="0" y2="5" stroke="#888" stroke-width="1" opacity="1"/><line transform="translate(213,0)" x2="0" y2="5" stroke="#888" stroke-width="1" opacity="1"/><line transform="translate(218,0)" x2="0" y2="5" stroke="#888" stroke-width="1" opacity="1"/><line transform="translate(222,0)" x2="0" y2="5" stroke="#888" stroke-width="1" opacity="1"/><line transform="translate(225,0)" x2="0" y2="5" stroke="#888" stroke-width="1" opacity="1"/><line transform="translate(248,0)" x2="0" y2="5" stroke="#888" stroke-width="1" opacity="1"/><line transform="translate(261,0)" x2="0" y2="5" stroke="#888" stroke-width="1" opacity="1"/><line transform="translate(270,0)" x2="0" y2="5" stroke="#888" stroke-width="1" opacity="1"/><line transform="translate(277,0)" x2="0" y2="5" stroke="#888" stroke-width="1" opacity="1"/><line transform="translate(283,0)" x2="0" y2="5" stroke="#888" stroke-width="1" opacity="1"/><line transform="translate(288,0)" x2="0" y2="5" stroke="#888" stroke-width="1" opacity="1"/><line transform="translate(293,0)" x2="0" y2="5" stroke="#888" stroke-width="1" opacity="1"/><line transform="translate(297,0)" x2="0" y2="5" stroke="#888" stroke-width="1" opacity="1"/><line transform="translate(300,0)" x2="0" y2="5" stroke="#888" stroke-width="1" opacity="1"/></g><g class="mark-text role-axis-label" pointer-events="none"><text text-anchor="start" transform="translate(0,15)" font-family="sans-serif" font-size="10px" fill="#000" opacity="1">1,000</text><text text-anchor="middle" transform="translate(22.57724967479859,15)" font-family="sans-serif" font-size="10px" fill="#000" opacity="0">2,000</text><text text-anchor="middle" transform="translate(35.78409410397466,15)" font-family="sans-serif" font-size="10px" fill="#000" opacity="1"/><text text-anchor="middle" transform="translate(45.15449934959718,15)" font-family="sans-serif" font-size="10px" fill="#000" opacity="1"/><text text-anchor="middle" transform="translate(52.42275032520144,15)" font-family="sans-serif" font-size="10px" fill="#000" opacity="1"/><text text-anchor="middle" transform="translate(58.36134377877325,15)" font-family="sans-serif" font-size="10px" fill="#000" opacity="1"/><text text-anchor="middle" transform="translate(63.38235300106926,15)" font-family="sans-serif" font-size="10px" fill="#000" opacity="1"/><text text-anchor="middle" transform="translate(67.73174902439577,15)" font-family="sans-serif" font-size="10px" fill="#000" opacity="1"/><text text-anchor="middle" transform="translate(71.56818820794938,15)" font-family="sans-serif" font-size="10px" fill="#000" opacity="1"/><text text-anchor="middle" transform="translate(75.00000000000003,15)" font-family="sans-serif" font-size="10px" fill="#000" opacity="1">10,000</text><text text-anchor="middle" transform="translate(97.57724967479857,15)" font-family="sans-serif" font-size="10px" fill="#000" opacity="0">20,000</text><text text-anchor="middle" transform="translate(110.7840941039747,15)" font-family="sans-serif" font-size="10px" fill="#000" opacity="1"/><text text-anchor="middle" transform="translate(120.15449934959716,15)" font-family="sans-serif" font-size="10px" fill="#000" opacity="1"/><text text-anchor="middle" transform="translate(127.4227503252014,15)" font-family="sans-serif" font-size="10px" fill="#000" opacity="1"/><text text-anchor="middle" transform="translate(133.36134377877326,15)" font-family="sans-serif" font-size="10px" fill="#000" opacity="1"/><text text-anchor="middle" transform="translate(138.38235300106925,15)" font-family="sans-serif" font-size="10px" fill="#000" opacity="1"/><text text-anchor="middle" transform="translate(142.73174902439575,15)" font-family="sans-serif" font-size="10px" fill="#000" opacity="1"/><text text-anchor="middle" transform="translate(146.56818820794936,15)" font-family="sans-serif" font-size="10px" fill="#000" opacity="1"/><text text-anchor="middle" transform="translate(150,15)" font-family="sans-serif" font-size="10px" fill="#000" opacity="1">100,000</text><text text-anchor="middle" transform="translate(172.5772496747986,15)" font-family="sans-serif" font-size="10px" fill="#000" opacity="0">200,000</text><text text-anchor="middle" transform="translate(185.78409410397467,15)" font-family="sans-serif" font-size="10px" fill="#000" opacity="1"/><text text-anchor="middle" transform="translate(195.1544993495972,15)" font-family="sans-serif" font-size="10px" fill="#000" opacity="1"/><text text-anchor="middle" transform="translate(202.42275032520138,15)" font-family="sans-serif" font-size="10px" fill="#000" opacity="1"/><text text-anchor="middle" transform="translate(208.36134377877326,15)" font-family="sans-serif" font-size="10px" fill="#000" opacity="1"/><text text-anchor="middle" transform="translate(213.38235300106928,15)" font-family="sans-serif" font-size="10px" fill="#000" opacity="1"/><text text-anchor="middle" transform="translate(217.73174902439578,15)" font-family="sans-serif" font-size="10px" fill="#000" opacity="1"/><text text-anchor="middle" transform="translate(221.5681882079494,15)" font-family="sans-serif" font-size="10px" fill="#000" opacity="1"/><text text-anchor="middle" transform="translate(224.99999999999997,15)" font-family="sans-serif" font-size="10px" fill="#000" opacity="1">1,000,000</text><text text-anchor="middle" transform="translate(247.57724967479857,15)" font-family="sans-serif" font-size="10px" fill="#000" opacity="0">2,000,000</text><text text-anchor="middle" transform="translate(260.78409410397467,15)" font-family="sans-serif" font-size="10px" fill="#000" opacity="1"/><text text-anchor="middle" transform="translate(270.15449934959713,15)" font-family="sans-serif" font-size="10px" fill="#000" opacity="1"/><text text-anchor="middle" transform="translate(277.4227503252014,15)" font-family="sans-serif" font-size="10px" fill="#000" opacity="1"/><text text-anchor="middle" transform="translate(283.3613437787733,15)" font-family="sans-serif" font-size="10px" fill="#000" opacity="1"/><text text-anchor="middle" transform="translate(288.38235300106925,15)" font-family="sans-serif" font-size="10px" fill="#000" opacity="1"/><text text-anchor="middle" transform="translate(292.73174902439575,15)" font-family="sans-serif" font-size="10px" fill="#000" opacity="1"/><text text-anchor="middle" transform="translate(296.5681882079493,15)" font-family="sans-serif" font-size="10px" fill="#000" opacity="1"/><text text-anchor="end" transform="translate(300,15)" font-family="sans-serif" font-size="10px" fill="#000" opacity="1">10,000,000</text></g><g class="mark-rule role-axis-domain" pointer-events="none"><line transform="translate(0,0)" x2="300" y2="0" stroke="#888" stroke-width="1" opacity="1"/></g><g class="mark-text role-axis-title" pointer-events="none"><text text-anchor="middle" transform="translate(150,30)" font-family="sans-serif" font-size="11px" font-weight="bold" fill="#000" opacity="1">Training set size</text></g></g><path class="foreground" aria-hidden="true" d="" pointer-events="none" display="none"/></g></g></g><path class="foreground" aria-hidden="true" d="" display="none"/></g><g transform="translate(361,256)"><path class="background" aria-hidden="true" d="M0,0h300v0h-300Z"/><g><g class="mark-group role-axis" role="graphics-symbol" aria-roledescription="axis" aria-label="X-axis titled 'Training set size' for a log scale with values from 1,000 to 10,000,000"><g transform="translate(0.5,0.5)"><path class="background" aria-hidden="true" d="M0,0h0v0h0Z" pointer-events="none"/><g><g class="mark-rule role-axis-tick" pointer-events="none"><line transform="translate(0,0)" x2="0" y2="5" stroke="#888" stroke-width="1" opacity="1"/><line transform="translate(23,0)" x2="0" y2="5" stroke="#888" stroke-width="1" opacity="1"/><line transform="translate(36,0)" x2="0" y2="5" stroke="#888" stroke-width="1" opacity="1"/><line transform="translate(45,0)" x2="0" y2="5" stroke="#888" stroke-width="1" opacity="1"/><line transform="translate(52,0)" x2="0" y2="5" stroke="#888" stroke-width="1" opacity="1"/><line transform="translate(58,0)" x2="0" y2="5" stroke="#888" stroke-width="1" opacity="1"/><line transform="translate(63,0)" x2="0" y2="5" stroke="#888" stroke-width="1" opacity="1"/><line transform="translate(68,0)" x2="0" y2="5" stroke="#888" stroke-width="1" opacity="1"/><line transform="translate(72,0)" x2="0" y2="5" stroke="#888" stroke-width="1" opacity="1"/><line transform="translate(75,0)" x2="0" y2="5" stroke="#888" stroke-width="1" opacity="1"/><line transform="translate(98,0)" x2="0" y2="5" stroke="#888" stroke-width="1" opacity="1"/><line transform="translate(111,0)" x2="0" y2="5" stroke="#888" stroke-width="1" opacity="1"/><line transform="translate(120,0)" x2="0" y2="5" stroke="#888" stroke-width="1" opacity="1"/><line transform="translate(127,0)" x2="0" y2="5" stroke="#888" stroke-width="1" opacity="1"/><line transform="translate(133,0)" x2="0" y2="5" stroke="#888" stroke-width="1" opacity="1"/><line transform="translate(138,0)" x2="0" y2="5" stroke="#888" stroke-width="1" opacity="1"/><line transform="translate(143,0)" x2="0" y2="5" stroke="#888" stroke-width="1" opacity="1"/><line transform="translate(147,0)" x2="0" y2="5" stroke="#888" stroke-width="1" opacity="1"/><line transform="translate(150,0)" x2="0" y2="5" stroke="#888" stroke-width="1" opacity="1"/><line transform="translate(173,0)" x2="0" y2="5" stroke="#888" stroke-width="1" opacity="1"/><line transform="translate(186,0)" x2="0" y2="5" stroke="#888" stroke-width="1" opacity="1"/><line transform="translate(195,0)" x2="0" y2="5" stroke="#888" stroke-width="1" opacity="1"/><line transform="translate(202,0)" x2="0" y2="5" stroke="#888" stroke-width="1" opacity="1"/><line transform="translate(208,0)" x2="0" y2="5" stroke="#888" stroke-width="1" opacity="1"/><line transform="translate(213,0)" x2="0" y2="5" stroke="#888" stroke-width="1" opacity="1"/><line transform="translate(218,0)" x2="0" y2="5" stroke="#888" stroke-width="1" opacity="1"/><line transform="translate(222,0)" x2="0" y2="5" stroke="#888" stroke-width="1" opacity="1"/><line transform="translate(225,0)" x2="0" y2="5" stroke="#888" stroke-width="1" opacity="1"/><line transform="translate(248,0)" x2="0" y2="5" stroke="#888" stroke-width="1" opacity="1"/><line transform="translate(261,0)" x2="0" y2="5" stroke="#888" stroke-width="1" opacity="1"/><line transform="translate(270,0)" x2="0" y2="5" stroke="#888" stroke-width="1" opacity="1"/><line transform="translate(277,0)" x2="0" y2="5" stroke="#888" stroke-width="1" opacity="1"/><line transform="translate(283,0)" x2="0" y2="5" stroke="#888" stroke-width="1" opacity="1"/><line transform="translate(288,0)" x2="0" y2="5" stroke="#888" stroke-width="1" opacity="1"/><line transform="translate(293,0)" x2="0" y2="5" stroke="#888" stroke-width="1" opacity="1"/><line transform="translate(297,0)" x2="0" y2="5" stroke="#888" stroke-width="1" opacity="1"/><line transform="translate(300,0)" x2="0" y2="5" stroke="#888" stroke-width="1" opacity="1"/></g><g class="mark-text role-axis-label" pointer-events="none"><text text-anchor="start" transform="translate(0,15)" font-family="sans-serif" font-size="10px" fill="#000" opacity="1">1,000</text><text text-anchor="middle" transform="translate(22.57724967479859,15)" font-family="sans-serif" font-size="10px" fill="#000" opacity="0">2,000</text><text text-anchor="middle" transform="translate(35.78409410397466,15)" font-family="sans-serif" font-size="10px" fill="#000" opacity="1"/><text text-anchor="middle" transform="translate(45.15449934959718,15)" font-family="sans-serif" font-size="10px" fill="#000" opacity="1"/><text text-anchor="middle" transform="translate(52.42275032520144,15)" font-family="sans-serif" font-size="10px" fill="#000" opacity="1"/><text text-anchor="middle" transform="translate(58.36134377877325,15)" font-family="sans-serif" font-size="10px" fill="#000" opacity="1"/><text text-anchor="middle" transform="translate(63.38235300106926,15)" font-family="sans-serif" font-size="10px" fill="#000" opacity="1"/><text text-anchor="middle" transform="translate(67.73174902439577,15)" font-family="sans-serif" font-size="10px" fill="#000" opacity="1"/><text text-anchor="middle" transform="translate(71.56818820794938,15)" font-family="sans-serif" font-size="10px" fill="#000" opacity="1"/><text text-anchor="middle" transform="translate(75.00000000000003,15)" font-family="sans-serif" font-size="10px" fill="#000" opacity="1">10,000</text><text text-anchor="middle" transform="translate(97.57724967479857,15)" font-family="sans-serif" font-size="10px" fill="#000" opacity="0">20,000</text><text text-anchor="middle" transform="translate(110.7840941039747,15)" font-family="sans-serif" font-size="10px" fill="#000" opacity="1"/><text text-anchor="middle" transform="translate(120.15449934959716,15)" font-family="sans-serif" font-size="10px" fill="#000" opacity="1"/><text text-anchor="middle" transform="translate(127.4227503252014,15)" font-family="sans-serif" font-size="10px" fill="#000" opacity="1"/><text text-anchor="middle" transform="translate(133.36134377877326,15)" font-family="sans-serif" font-size="10px" fill="#000" opacity="1"/><text text-anchor="middle" transform="translate(138.38235300106925,15)" font-family="sans-serif" font-size="10px" fill="#000" opacity="1"/><text text-anchor="middle" transform="translate(142.73174902439575,15)" font-family="sans-serif" font-size="10px" fill="#000" opacity="1"/><text text-anchor="middle" transform="translate(146.56818820794936,15)" font-family="sans-serif" font-size="10px" fill="#000" opacity="1"/><text text-anchor="middle" transform="translate(150,15)" font-family="sans-serif" font-size="10px" fill="#000" opacity="1">100,000</text><text text-anchor="middle" transform="translate(172.5772496747986,15)" font-family="sans-serif" font-size="10px" fill="#000" opacity="0">200,000</text><text text-anchor="middle" transform="translate(185.78409410397467,15)" font-family="sans-serif" font-size="10px" fill="#000" opacity="1"/><text text-anchor="middle" transform="translate(195.1544993495972,15)" font-family="sans-serif" font-size="10px" fill="#000" opacity="1"/><text text-anchor="middle" transform="translate(202.42275032520138,15)" font-family="sans-serif" font-size="10px" fill="#000" opacity="1"/><text text-anchor="middle" transform="translate(208.36134377877326,15)" font-family="sans-serif" font-size="10px" fill="#000" opacity="1"/><text text-anchor="middle" transform="translate(213.38235300106928,15)" font-family="sans-serif" font-size="10px" fill="#000" opacity="1"/><text text-anchor="middle" transform="translate(217.73174902439578,15)" font-family="sans-serif" font-size="10px" fill="#000" opacity="1"/><text text-anchor="middle" transform="translate(221.5681882079494,15)" font-family="sans-serif" font-size="10px" fill="#000" opacity="1"/><text text-anchor="middle" transform="translate(224.99999999999997,15)" font-family="sans-serif" font-size="10px" fill="#000" opacity="1">1,000,000</text><text text-anchor="middle" transform="translate(247.57724967479857,15)" font-family="sans-serif" font-size="10px" fill="#000" opacity="0">2,000,000</text><text text-anchor="middle" transform="translate(260.78409410397467,15)" font-family="sans-serif" font-size="10px" fill="#000" opacity="1"/><text text-anchor="middle" transform="translate(270.15449934959713,15)" font-family="sans-serif" font-size="10px" fill="#000" opacity="1"/><text text-anchor="middle" transform="translate(277.4227503252014,15)" font-family="sans-serif" font-size="10px" fill="#000" opacity="1"/><text text-anchor="middle" transform="translate(283.3613437787733,15)" font-family="sans-serif" font-size="10px" fill="#000" opacity="1"/><text text-anchor="middle" transform="translate(288.38235300106925,15)" font-family="sans-serif" font-size="10px" fill="#000" opacity="1"/><text text-anchor="middle" transform="translate(292.73174902439575,15)" font-family="sans-serif" font-size="10px" fill="#000" opacity="1"/><text text-anchor="middle" transform="translate(296.5681882079493,15)" font-family="sans-serif" font-size="10px" fill="#000" opacity="1"/><text text-anchor="end" transform="translate(300,15)" font-family="sans-serif" font-size="10px" fill="#000" opacity="1">10,000,000</text></g><g class="mark-rule role-axis-domain" pointer-events="none"><line transform="translate(0,0)" x2="300" y2="0" stroke="#888" stroke-width="1" opacity="1"/></g><g class="mark-text role-axis-title" pointer-events="none"><text text-anchor="middle" transform="translate(150,30)" font-family="sans-serif" font-size="11px" font-weight="bold" fill="#000" opacity="1">Training set size</text></g></g><path class="foreground" aria-hidden="true" d="" pointer-events="none" display="none"/></g></g></g><path class="foreground" aria-hidden="true" d="" display="none"/></g></g><g class="mark-group role-scope cell" role="graphics-object" aria-roledescription="group mark container"><g transform="translate(0,0)"><path class="background" aria-hidden="true" d="M0.5,0.5h300v250h-300Z" stroke="#ddd"/><g><g class="mark-group role-axis" role="graphics-symbol" aria-roledescription="axis" aria-label="X-axis for a log scale with values from 1,000 to 10,000,000"><g transform="translate(0.5,250.5)"><path class="background" aria-hidden="true" d="M0,0h0v0h0Z" pointer-events="none"/><g><g class="mark-rule role-axis-grid" pointer-events="none"><line transform="translate(0,-250)" x2="0" y2="250" stroke="#ddd" stroke-width="1" opacity="1"/><line transform="translate(23,-250)" x2="0" y2="250" stroke="#ddd" stroke-width="1" opacity="1"/><line transform="translate(36,-250)" x2="0" y2="250" stroke="#ddd" stroke-width="1" opacity="1"/><line transform="translate(45,-250)" x2="0" y2="250" stroke="#ddd" stroke-width="1" opacity="1"/><line transform="translate(52,-250)" x2="0" y2="250" stroke="#ddd" stroke-width="1" opacity="1"/><line transform="translate(58,-250)" x2="0" y2="250" stroke="#ddd" stroke-width="1" opacity="1"/><line transform="translate(63,-250)" x2="0" y2="250" stroke="#ddd" stroke-width="1" opacity="1"/><line transform="translate(68,-250)" x2="0" y2="250" stroke="#ddd" stroke-width="1" opacity="1"/><line transform="translate(72,-250)" x2="0" y2="250" stroke="#ddd" stroke-width="1" opacity="1"/><line transform="translate(75,-250)" x2="0" y2="250" stroke="#ddd" stroke-width="1" opacity="1"/><line transform="translate(98,-250)" x2="0" y2="250" stroke="#ddd" stroke-width="1" opacity="1"/><line transform="translate(111,-250)" x2="0" y2="250" stroke="#ddd" stroke-width="1" opacity="1"/><line transform="translate(120,-250)" x2="0" y2="250" stroke="#ddd" stroke-width="1" opacity="1"/><line transform="translate(127,-250)" x2="0" y2="250" stroke="#ddd" stroke-width="1" opacity="1"/><line transform="translate(133,-250)" x2="0" y2="250" stroke="#ddd" stroke-width="1" opacity="1"/><line transform="translate(138,-250)" x2="0" y2="250" stroke="#ddd" stroke-width="1" opacity="1"/><line transform="translate(143,-250)" x2="0" y2="250" stroke="#ddd" stroke-width="1" opacity="1"/><line transform="translate(147,-250)" x2="0" y2="250" stroke="#ddd" stroke-width="1" opacity="1"/><line transform="translate(150,-250)" x2="0" y2="250" stroke="#ddd" stroke-width="1" opacity="1"/><line transform="translate(173,-250)" x2="0" y2="250" stroke="#ddd" stroke-width="1" opacity="1"/><line transform="translate(186,-250)" x2="0" y2="250" stroke="#ddd" stroke-width="1" opacity="1"/><line transform="translate(195,-250)" x2="0" y2="250" stroke="#ddd" stroke-width="1" opacity="1"/><line transform="translate(202,-250)" x2="0" y2="250" stroke="#ddd" stroke-width="1" opacity="1"/><line transform="translate(208,-250)" x2="0" y2="250" stroke="#ddd" stroke-width="1" opacity="1"/><line transform="translate(213,-250)" x2="0" y2="250" stroke="#ddd" stroke-width="1" opacity="1"/><line transform="translate(218,-250)" x2="0" y2="250" stroke="#ddd" stroke-width="1" opacity="1"/><line transform="translate(222,-250)" x2="0" y2="250" stroke="#ddd" stroke-width="1" opacity="1"/><line transform="translate(225,-250)" x2="0" y2="250" stroke="#ddd" stroke-width="1" opacity="1"/><line transform="translate(248,-250)" x2="0" y2="250" stroke="#ddd" stroke-width="1" opacity="1"/><line transform="translate(261,-250)" x2="0" y2="250" stroke="#ddd" stroke-width="1" opacity="1"/><line transform="translate(270,-250)" x2="0" y2="250" stroke="#ddd" stroke-width="1" opacity="1"/><line transform="translate(277,-250)" x2="0" y2="250" stroke="#ddd" stroke-width="1" opacity="1"/><line transform="translate(283,-250)" x2="0" y2="250" stroke="#ddd" stroke-width="1" opacity="1"/><line transform="translate(288,-250)" x2="0" y2="250" stroke="#ddd" stroke-width="1" opacity="1"/><line transform="translate(293,-250)" x2="0" y2="250" stroke="#ddd" stroke-width="1" opacity="1"/><line transform="translate(297,-250)" x2="0" y2="250" stroke="#ddd" stroke-width="1" opacity="1"/><line transform="translate(300,-250)" x2="0" y2="250" stroke="#ddd" stroke-width="1" opacity="1"/></g></g><path class="foreground" aria-hidden="true" d="" pointer-events="none" display="none"/></g></g><g class="mark-group role-axis" role="graphics-symbol" aria-roledescription="axis" aria-label="Y-axis for a linear scale with values from 0 to 45"><g transform="translate(0.5,0.5)"><path class="background" aria-hidden="true" d="M0,0h0v0h0Z" pointer-events="none"/><g><g class="mark-rule role-axis-grid" pointer-events="none"><line transform="translate(0,250)" x2="300" y2="0" stroke="#ddd" stroke-width="1" opacity="1"/><line transform="translate(0,222)" x2="300" y2="0" stroke="#ddd" stroke-width="1" opacity="1"/><line transform="translate(0,194)" x2="300" y2="0" stroke="#ddd" stroke-width="1" opacity="1"/><line transform="translate(0,167)" x2="300" y2="0" stroke="#ddd" stroke-width="1" opacity="1"/><line transform="translate(0,139)" x2="300" y2="0" stroke="#ddd" stroke-width="1" opacity="1"/><line transform="translate(0,111)" x2="300" y2="0" stroke="#ddd" stroke-width="1" opacity="1"/><line transform="translate(0,83)" x2="300" y2="0" stroke="#ddd" stroke-width="1" opacity="1"/><line transform="translate(0,56)" x2="300" y2="0" stroke="#ddd" stroke-width="1" opacity="1"/><line transform="translate(0,28)" x2="300" y2="0" stroke="#ddd" stroke-width="1" opacity="1"/><line transform="translate(0,0)" x2="300" y2="0" stroke="#ddd" stroke-width="1" opacity="1"/></g></g><path class="foreground" aria-hidden="true" d="" pointer-events="none" display="none"/></g></g><g class="mark-group role-axis" role="graphics-symbol" aria-roledescription="axis" aria-label="Y-axis titled 'Computation days (single cpu)' for a linear scale with values from 0 to 45"><g transform="translate(0.5,0.5)"><path class="background" aria-hidden="true" d="M0,0h0v0h0Z" pointer-events="none"/><g><g class="mark-rule role-axis-tick" pointer-events="none"><line transform="translate(0,250)" x2="-5" y2="0" stroke="#888" stroke-width="1" opacity="1"/><line transform="translate(0,222)" x2="-5" y2="0" stroke="#888" stroke-width="1" opacity="1"/><line transform="translate(0,194)" x2="-5" y2="0" stroke="#888" stroke-width="1" opacity="1"/><line transform="translate(0,167)" x2="-5" y2="0" stroke="#888" stroke-width="1" opacity="1"/><line transform="translate(0,139)" x2="-5" y2="0" stroke="#888" stroke-width="1" opacity="1"/><line transform="translate(0,111)" x2="-5" y2="0" stroke="#888" stroke-width="1" opacity="1"/><line transform="translate(0,83)" x2="-5" y2="0" stroke="#888" stroke-width="1" opacity="1"/><line transform="translate(0,56)" x2="-5" y2="0" stroke="#888" stroke-width="1" opacity="1"/><line transform="translate(0,28)" x2="-5" y2="0" stroke="#888" stroke-width="1" opacity="1"/><line transform="translate(0,0)" x2="-5" y2="0" stroke="#888" stroke-width="1" opacity="1"/></g><g class="mark-text role-axis-label" pointer-events="none"><text text-anchor="end" transform="translate(-7,253)" font-family="sans-serif" font-size="10px" fill="#000" opacity="1">0</text><text text-anchor="end" transform="translate(-7,225.2222222222222)" font-family="sans-serif" font-size="10px" fill="#000" opacity="1">5</text><text text-anchor="end" transform="translate(-7,197.44444444444446)" font-family="sans-serif" font-size="10px" fill="#000" opacity="1">10</text><text text-anchor="end" transform="translate(-7,169.66666666666669)" font-family="sans-serif" font-size="10px" fill="#000" opacity="1">15</text><text text-anchor="end" transform="translate(-7,141.88888888888889)" font-family="sans-serif" font-size="10px" fill="#000" opacity="1">20</text><text text-anchor="end" transform="translate(-7,114.1111111111111)" font-family="sans-serif" font-size="10px" fill="#000" opacity="1">25</text><text text-anchor="end" transform="translate(-7,86.33333333333334)" font-family="sans-serif" font-size="10px" fill="#000" opacity="1">30</text><text text-anchor="end" transform="translate(-7,58.55555555555555)" font-family="sans-serif" font-size="10px" fill="#000" opacity="1">35</text><text text-anchor="end" transform="translate(-7,30.77777777777779)" font-family="sans-serif" font-size="10px" fill="#000" opacity="1">40</text><text text-anchor="end" transform="translate(-7,3)" font-family="sans-serif" font-size="10px" fill="#000" opacity="1">45</text></g><g class="mark-rule role-axis-domain" pointer-events="none"><line transform="translate(0,250)" x2="0" y2="-250" stroke="#888" stroke-width="1" opacity="1"/></g><g class="mark-text role-axis-title" pointer-events="none"><text text-anchor="middle" transform="translate(-22.1304349899292,125) rotate(-90) translate(0,-2)" font-family="sans-serif" font-size="11px" font-weight="bold" fill="#000" opacity="1">Computation days (single cpu)</text></g></g><path class="foreground" aria-hidden="true" d="" pointer-events="none" display="none"/></g></g><g class="mark-group role-scope child_layer_0_pathgroup" role="graphics-object" aria-roledescription="group mark container"><g transform="translate(0,0)"><path class="background" aria-hidden="true" d="M0,0h300v250h-300Z"/><g><g class="mark-line role-mark child_layer_0_marks" role="graphics-symbol" aria-roledescription="line mark container"><path d="M52.42275032520144,226.74076217421123L75.00000000000003,226.92463991769546L97.57724967479857,228.44221536351168L120.15449934959716,229.6670953360768L142.73174902439575,228.76268861454048L165.30899869919435,225.87150634430728L187.88624837399294,217.698859739369L210.4634980487915,198.59377143347052L233.0407477235901,158.85238768861453L255.6179973983887,78.0204903978052" stroke="#4c78a8" stroke-width="2" opacity="0.5"/></g></g><path class="foreground" aria-hidden="true" d="" display="none"/></g><g transform="translate(0,0)"><path class="background" aria-hidden="true" d="M0,0h300v250h-300Z"/><g><g class="mark-line role-mark child_layer_0_marks" role="graphics-symbol" aria-roledescription="line mark container"><path d="M52.42275032520144,187.22899519890262L75.00000000000003,196.21793552812073L97.57724967479857,201.5412379972565L120.15449934959716,205.40841478052124L142.73174902439575,205.76832561728395L165.30899869919435,204.76785408093278L187.88624837399294,199.507094478738L210.4634980487915,182.67620456104254L233.0407477235901,144.3743569958848L255.6179973983887,64.8790080589849" stroke="#f58518" stroke-width="2" opacity="0.5"/></g></g><path class="foreground" aria-hidden="true" d="" display="none"/></g><g transform="translate(0,0)"><path class="background" aria-hidden="true" d="M0,0h300v250h-300Z"/><g><g class="mark-line role-mark child_layer_0_marks" role="graphics-symbol" aria-roledescription="line mark container"><path d="M52.42275032520144,146.14326131687244L75.00000000000003,152.3611539780521L97.57724967479857,161.241469478738L120.15449934959716,170.18942901234567L142.73174902439575,175.1104466735254L165.30899869919435,176.832475994513L187.88624837399294,173.1755829903978L210.4634980487915,159.15837191358023L233.0407477235901,123.46497770919068L255.6179973983887,45.750621570644746" stroke="#e45756" stroke-width="2" opacity="0.5"/></g></g><path class="foreground" aria-hidden="true" d="" display="none"/></g><g transform="translate(0,0)"><path class="background" aria-hidden="true" d="M0,0h300v250h-300Z"/><g><g class="mark-line role-mark child_layer_0_marks" role="graphics-symbol" aria-roledescription="line mark container"><path d="M52.42275032520144,83.35725308641975L75.00000000000003,99.0198688271605L97.57724967479857,105.42830504115227L120.15449934959716,117.82197359396434L142.73174902439575,131.10103737997258L165.30899869919435,136.35712448559673L187.88624837399294,136.5575917352538L210.4634980487915,125.83191872427984L233.0407477235901,91.75090020576133L255.6179973983887,16.51783264746226" stroke="#72b7b2" stroke-width="2" opacity="0.5"/></g></g><path class="foreground" aria-hidden="true" d="" display="none"/></g></g><g class="mark-symbol role-mark child_layer_1_marks" role="graphics-symbol" aria-roledescription="symbol mark container"><path transform="translate(52.42275032520144,226.74076217421123)" d="M3.1622776601683795,0A3.1622776601683795,3.1622776601683795,0,1,1,-3.1622776601683795,0A3.1622776601683795,3.1622776601683795,0,1,1,3.1622776601683795,0" stroke="#4c78a8" stroke-width="2"/><path transform="translate(75.00000000000003,226.92463991769546)" d="M3.1622776601683795,0A3.1622776601683795,3.1622776601683795,0,1,1,-3.1622776601683795,0A3.1622776601683795,3.1622776601683795,0,1,1,3.1622776601683795,0" stroke="#4c78a8" stroke-width="2"/><path transform="translate(97.57724967479857,228.44221536351168)" d="M3.1622776601683795,0A3.1622776601683795,3.1622776601683795,0,1,1,-3.1622776601683795,0A3.1622776601683795,3.1622776601683795,0,1,1,3.1622776601683795,0" stroke="#4c78a8" stroke-width="2"/><path transform="translate(120.15449934959716,229.6670953360768)" d="M3.1622776601683795,0A3.1622776601683795,3.1622776601683795,0,1,1,-3.1622776601683795,0A3.1622776601683795,3.1622776601683795,0,1,1,3.1622776601683795,0" stroke="#4c78a8" stroke-width="2"/><path transform="translate(142.73174902439575,228.76268861454048)" d="M3.1622776601683795,0A3.1622776601683795,3.1622776601683795,0,1,1,-3.1622776601683795,0A3.1622776601683795,3.1622776601683795,0,1,1,3.1622776601683795,0" stroke="#4c78a8" stroke-width="2"/><path transform="translate(165.30899869919435,225.87150634430728)" d="M3.1622776601683795,0A3.1622776601683795,3.1622776601683795,0,1,1,-3.1622776601683795,0A3.1622776601683795,3.1622776601683795,0,1,1,3.1622776601683795,0" stroke="#4c78a8" stroke-width="2"/><path transform="translate(187.88624837399294,217.698859739369)" d="M3.1622776601683795,0A3.1622776601683795,3.1622776601683795,0,1,1,-3.1622776601683795,0A3.1622776601683795,3.1622776601683795,0,1,1,3.1622776601683795,0" stroke="#4c78a8" stroke-width="2"/><path transform="translate(210.4634980487915,198.59377143347052)" d="M3.1622776601683795,0A3.1622776601683795,3.1622776601683795,0,1,1,-3.1622776601683795,0A3.1622776601683795,3.1622776601683795,0,1,1,3.1622776601683795,0" stroke="#4c78a8" stroke-width="2"/><path transform="translate(233.0407477235901,158.85238768861453)" d="M3.1622776601683795,0A3.1622776601683795,3.1622776601683795,0,1,1,-3.1622776601683795,0A3.1622776601683795,3.1622776601683795,0,1,1,3.1622776601683795,0" stroke="#4c78a8" stroke-width="2"/><path transform="translate(255.6179973983887,78.0204903978052)" d="M3.1622776601683795,0A3.1622776601683795,3.1622776601683795,0,1,1,-3.1622776601683795,0A3.1622776601683795,3.1622776601683795,0,1,1,3.1622776601683795,0" stroke="#4c78a8" stroke-width="2"/><path transform="translate(52.42275032520144,187.22899519890262)" d="M3.1622776601683795,0A3.1622776601683795,3.1622776601683795,0,1,1,-3.1622776601683795,0A3.1622776601683795,3.1622776601683795,0,1,1,3.1622776601683795,0" stroke="#f58518" stroke-width="2"/><path transform="translate(75.00000000000003,196.21793552812073)" d="M3.1622776601683795,0A3.1622776601683795,3.1622776601683795,0,1,1,-3.1622776601683795,0A3.1622776601683795,3.1622776601683795,0,1,1,3.1622776601683795,0" stroke="#f58518" stroke-width="2"/><path transform="translate(97.57724967479857,201.5412379972565)" d="M3.1622776601683795,0A3.1622776601683795,3.1622776601683795,0,1,1,-3.1622776601683795,0A3.1622776601683795,3.1622776601683795,0,1,1,3.1622776601683795,0" stroke="#f58518" stroke-width="2"/><path transform="translate(120.15449934959716,205.40841478052124)" d="M3.1622776601683795,0A3.1622776601683795,3.1622776601683795,0,1,1,-3.1622776601683795,0A3.1622776601683795,3.1622776601683795,0,1,1,3.1622776601683795,0" stroke="#f58518" stroke-width="2"/><path transform="translate(142.73174902439575,205.76832561728395)" d="M3.1622776601683795,0A3.1622776601683795,3.1622776601683795,0,1,1,-3.1622776601683795,0A3.1622776601683795,3.1622776601683795,0,1,1,3.1622776601683795,0" stroke="#f58518" stroke-width="2"/><path transform="translate(165.30899869919435,204.76785408093278)" d="M3.1622776601683795,0A3.1622776601683795,3.1622776601683795,0,1,1,-3.1622776601683795,0A3.1622776601683795,3.1622776601683795,0,1,1,3.1622776601683795,0" stroke="#f58518" stroke-width="2"/><path transform="translate(187.88624837399294,199.507094478738)" d="M3.1622776601683795,0A3.1622776601683795,3.1622776601683795,0,1,1,-3.1622776601683795,0A3.1622776601683795,3.1622776601683795,0,1,1,3.1622776601683795,0" stroke="#f58518" stroke-width="2"/><path transform="translate(210.4634980487915,182.67620456104254)" d="M3.1622776601683795,0A3.1622776601683795,3.1622776601683795,0,1,1,-3.1622776601683795,0A3.1622776601683795,3.1622776601683795,0,1,1,3.1622776601683795,0" stroke="#f58518" stroke-width="2"/><path transform="translate(233.0407477235901,144.3743569958848)" d="M3.1622776601683795,0A3.1622776601683795,3.1622776601683795,0,1,1,-3.1622776601683795,0A3.1622776601683795,3.1622776601683795,0,1,1,3.1622776601683795,0" stroke="#f58518" stroke-width="2"/><path transform="translate(255.6179973983887,64.8790080589849)" d="M3.1622776601683795,0A3.1622776601683795,3.1622776601683795,0,1,1,-3.1622776601683795,0A3.1622776601683795,3.1622776601683795,0,1,1,3.1622776601683795,0" stroke="#f58518" stroke-width="2"/><path transform="translate(52.42275032520144,146.14326131687244)" d="M3.1622776601683795,0A3.1622776601683795,3.1622776601683795,0,1,1,-3.1622776601683795,0A3.1622776601683795,3.1622776601683795,0,1,1,3.1622776601683795,0" stroke="#e45756" stroke-width="2"/><path transform="translate(75.00000000000003,152.3611539780521)" d="M3.1622776601683795,0A3.1622776601683795,3.1622776601683795,0,1,1,-3.1622776601683795,0A3.1622776601683795,3.1622776601683795,0,1,1,3.1622776601683795,0" stroke="#e45756" stroke-width="2"/><path transform="translate(97.57724967479857,161.241469478738)" d="M3.1622776601683795,0A3.1622776601683795,3.1622776601683795,0,1,1,-3.1622776601683795,0A3.1622776601683795,3.1622776601683795,0,1,1,3.1622776601683795,0" stroke="#e45756" stroke-width="2"/><path transform="translate(120.15449934959716,170.18942901234567)" d="M3.1622776601683795,0A3.1622776601683795,3.1622776601683795,0,1,1,-3.1622776601683795,0A3.1622776601683795,3.1622776601683795,0,1,1,3.1622776601683795,0" stroke="#e45756" stroke-width="2"/><path transform="translate(142.73174902439575,175.1104466735254)" d="M3.1622776601683795,0A3.1622776601683795,3.1622776601683795,0,1,1,-3.1622776601683795,0A3.1622776601683795,3.1622776601683795,0,1,1,3.1622776601683795,0" stroke="#e45756" stroke-width="2"/><path transform="translate(165.30899869919435,176.832475994513)" d="M3.1622776601683795,0A3.1622776601683795,3.1622776601683795,0,1,1,-3.1622776601683795,0A3.1622776601683795,3.1622776601683795,0,1,1,3.1622776601683795,0" stroke="#e45756" stroke-width="2"/><path transform="translate(187.88624837399294,173.1755829903978)" d="M3.1622776601683795,0A3.1622776601683795,3.1622776601683795,0,1,1,-3.1622776601683795,0A3.1622776601683795,3.1622776601683795,0,1,1,3.1622776601683795,0" stroke="#e45756" stroke-width="2"/><path transform="translate(210.4634980487915,159.15837191358023)" d="M3.1622776601683795,0A3.1622776601683795,3.1622776601683795,0,1,1,-3.1622776601683795,0A3.1622776601683795,3.1622776601683795,0,1,1,3.1622776601683795,0" stroke="#e45756" stroke-width="2"/><path transform="translate(233.0407477235901,123.46497770919068)" d="M3.1622776601683795,0A3.1622776601683795,3.1622776601683795,0,1,1,-3.1622776601683795,0A3.1622776601683795,3.1622776601683795,0,1,1,3.1622776601683795,0" stroke="#e45756" stroke-width="2"/><path transform="translate(255.6179973983887,45.750621570644746)" d="M3.1622776601683795,0A3.1622776601683795,3.1622776601683795,0,1,1,-3.1622776601683795,0A3.1622776601683795,3.1622776601683795,0,1,1,3.1622776601683795,0" stroke="#e45756" stroke-width="2"/><path transform="translate(52.42275032520144,83.35725308641975)" d="M3.1622776601683795,0A3.1622776601683795,3.1622776601683795,0,1,1,-3.1622776601683795,0A3.1622776601683795,3.1622776601683795,0,1,1,3.1622776601683795,0" stroke="#72b7b2" stroke-width="2"/><path transform="translate(75.00000000000003,99.0198688271605)" d="M3.1622776601683795,0A3.1622776601683795,3.1622776601683795,0,1,1,-3.1622776601683795,0A3.1622776601683795,3.1622776601683795,0,1,1,3.1622776601683795,0" stroke="#72b7b2" stroke-width="2"/><path transform="translate(97.57724967479857,105.42830504115227)" d="M3.1622776601683795,0A3.1622776601683795,3.1622776601683795,0,1,1,-3.1622776601683795,0A3.1622776601683795,3.1622776601683795,0,1,1,3.1622776601683795,0" stroke="#72b7b2" stroke-width="2"/><path transform="translate(120.15449934959716,117.82197359396434)" d="M3.1622776601683795,0A3.1622776601683795,3.1622776601683795,0,1,1,-3.1622776601683795,0A3.1622776601683795,3.1622776601683795,0,1,1,3.1622776601683795,0" stroke="#72b7b2" stroke-width="2"/><path transform="translate(142.73174902439575,131.10103737997258)" d="M3.1622776601683795,0A3.1622776601683795,3.1622776601683795,0,1,1,-3.1622776601683795,0A3.1622776601683795,3.1622776601683795,0,1,1,3.1622776601683795,0" stroke="#72b7b2" stroke-width="2"/><path transform="translate(165.30899869919435,136.35712448559673)" d="M3.1622776601683795,0A3.1622776601683795,3.1622776601683795,0,1,1,-3.1622776601683795,0A3.1622776601683795,3.1622776601683795,0,1,1,3.1622776601683795,0" stroke="#72b7b2" stroke-width="2"/><path transform="translate(187.88624837399294,136.5575917352538)" d="M3.1622776601683795,0A3.1622776601683795,3.1622776601683795,0,1,1,-3.1622776601683795,0A3.1622776601683795,3.1622776601683795,0,1,1,3.1622776601683795,0" stroke="#72b7b2" stroke-width="2"/><path transform="translate(210.4634980487915,125.83191872427984)" d="M3.1622776601683795,0A3.1622776601683795,3.1622776601683795,0,1,1,-3.1622776601683795,0A3.1622776601683795,3.1622776601683795,0,1,1,3.1622776601683795,0" stroke="#72b7b2" stroke-width="2"/><path transform="translate(233.0407477235901,91.75090020576133)" d="M3.1622776601683795,0A3.1622776601683795,3.1622776601683795,0,1,1,-3.1622776601683795,0A3.1622776601683795,3.1622776601683795,0,1,1,3.1622776601683795,0" stroke="#72b7b2" stroke-width="2"/><path transform="translate(255.6179973983887,16.51783264746226)" d="M3.1622776601683795,0A3.1622776601683795,3.1622776601683795,0,1,1,-3.1622776601683795,0A3.1622776601683795,3.1622776601683795,0,1,1,3.1622776601683795,0" stroke="#72b7b2" stroke-width="2"/></g><g class="mark-rule role-mark child_layer_2_marks" role="graphics-symbol" aria-roledescription="rule mark container"><line transform="translate(52.42275032520144,227.85950360082305)" x2="0" y2="-2.6010802469135683" stroke="#4c78a8"/><line transform="translate(75.00000000000003,228.81983024691357)" x2="0" y2="-5.2366898148148096" stroke="#4c78a8"/><line transform="translate(97.57724967479857,229.1329732510288)" x2="0" y2="-1.1624871399176868" stroke="#4c78a8"/><line transform="translate(120.15449934959716,230.0400591563786)" x2="0" y2="-0.9888760288065725" stroke="#4c78a8"/><line transform="translate(142.73174902439575,229.0891846707819)" x2="0" y2="-0.7012602880658392" stroke="#4c78a8"/><line transform="translate(165.30899869919435,226.13599537037038)" x2="0" y2="-0.6305298353909734" stroke="#4c78a8"/><line transform="translate(187.88624837399294,217.91808127572014)" x2="0" y2="-0.4982638888888573" stroke="#4c78a8"/><line transform="translate(210.4634980487915,198.79391718106996)" x2="0" y2="-0.34966563786008464" stroke="#4c78a8"/><line transform="translate(233.0407477235901,159.0164609053498)" x2="0" y2="-0.31507201646087424" stroke="#4c78a8"/><line transform="translate(255.6179973983887,78.04385288065846)" x2="0" y2="-0.06057098765433011" stroke="#4c78a8"/><line transform="translate(52.42275032520144,190.47961676954733)" x2="0" y2="-7.297710905349817" stroke="#f58518"/><line transform="translate(75.00000000000003,198.07008744855966)" x2="0" y2="-4.966049382716022" stroke="#f58518"/><line transform="translate(97.57724967479857,202.35018004115227)" x2="0" y2="-1.2817001028806772" stroke="#f58518"/><line transform="translate(120.15449934959716,207.44637345679013)" x2="0" y2="-4.648855452674923" stroke="#f58518"/><line transform="translate(142.73174902439575,206.61683384773664)" x2="0" y2="-1.9193672839506348" stroke="#f58518"/><line transform="translate(165.30899869919435,205.2923739711934)" x2="0" y2="-1.0018004115226233" stroke="#f58518"/><line transform="translate(187.88624837399294,199.94753086419752)" x2="0" y2="-1.0790895061728065" stroke="#f58518"/><line transform="translate(210.4634980487915,182.93081275720164)" x2="0" y2="-0.6351594650205641" stroke="#f58518"/><line transform="translate(233.0407477235901,144.50019290123456)" x2="0" y2="-0.29507458847734824" stroke="#f58518"/><line transform="translate(255.6179973983887,64.91801697530863)" x2="0" y2="-0.06577932098767292" stroke="#f58518"/><line transform="translate(52.42275032520144,151.03446502057614)" x2="0" y2="-13.940715020576135" stroke="#e45756"/><line transform="translate(75.00000000000003,167.07883230452674)" x2="0" y2="-29.21990740740742" stroke="#e45756"/><line transform="translate(97.57724967479857,166.36554783950615)" x2="0" y2="-9.351337448559661" stroke="#e45756"/><line transform="translate(120.15449934959716,175.39969135802468)" x2="0" y2="-7.875450102880649" stroke="#e45756"/><line transform="translate(142.73174902439575,176.3829732510288)" x2="0" y2="-3.4511316872427926" stroke="#e45756"/><line transform="translate(165.30899869919435,178.57658179012344)" x2="0" y2="-3.4758230452675036" stroke="#e45756"/><line transform="translate(187.88624837399294,174.1928369341564)" x2="0" y2="-2.7398405349794643" stroke="#e45756"/><line transform="translate(210.4634980487915,159.87937242798353)" x2="0" y2="-1.283436213991763" stroke="#e45756"/><line transform="translate(233.0407477235901,123.73244598765434)" x2="0" y2="-0.5362011316872639" stroke="#e45756"/><line transform="translate(255.6179973983887,45.86432613168726)" x2="0" y2="-0.26138117283952766" stroke="#e45756"/><line transform="translate(52.42275032520144,112.12763631687243)" x2="0" y2="-52.19026491769544" stroke="#72b7b2"/><line transform="translate(75.00000000000003,112.31655092592591)" x2="0" y2="-25.738683127572017" stroke="#72b7b2"/><line transform="translate(97.57724967479857,111.0969007201646)" x2="0" y2="-12.556520061728392" stroke="#72b7b2"/><line transform="translate(120.15449934959716,123.14814814814815)" x2="0" y2="-13.710390946502073" stroke="#72b7b2"/><line transform="translate(142.73174902439575,131.39441872427983)" x2="0" y2="-0.603652263374471" stroke="#72b7b2"/><line transform="translate(165.30899869919435,137.85120884773661)" x2="0" y2="-3.3150720164609027" stroke="#72b7b2"/><line transform="translate(187.88624837399294,138.3382844650206)" x2="0" y2="-4.396797839506178" stroke="#72b7b2"/><line transform="translate(210.4634980487915,127.06912294238681)" x2="0" y2="-2.9225823045267134" stroke="#72b7b2"/><line transform="translate(233.0407477235901,92.18055555555554)" x2="0" y2="-0.7986111111111001" stroke="#72b7b2"/><line transform="translate(255.6179973983887,16.590020576131682)" x2="0" y2="-0.16788837448556038" stroke="#72b7b2"/></g><g class="mark-group role-title"><g transform="translate(150,-25)"><path class="background" aria-hidden="true" d="M0,0h0v0h0Z" pointer-events="none"/><g><g class="mark-text role-title-text" role="graphics-symbol" aria-roledescription="title" aria-label="Title text 'AmpC'" pointer-events="none"><text text-anchor="middle" transform="translate(0,8)" font-family="sans-serif" font-size="10px" fill="#000" opacity="1">AmpC</text></g></g><path class="foreground" aria-hidden="true" d="" pointer-events="none" display="none"/></g></g></g><path class="foreground" aria-hidden="true" d="" display="none"/></g><g transform="translate(361,0)"><path class="background" aria-hidden="true" d="M0.5,0.5h300v250h-300Z" stroke="#ddd"/><g><g class="mark-group role-axis" role="graphics-symbol" aria-roledescription="axis" aria-label="X-axis for a log scale with values from 1,000 to 10,000,000"><g transform="translate(0.5,250.5)"><path class="background" aria-hidden="true" d="M0,0h0v0h0Z" pointer-events="none"/><g><g class="mark-rule role-axis-grid" pointer-events="none"><line transform="translate(0,-250)" x2="0" y2="250" stroke="#ddd" stroke-width="1" opacity="1"/><line transform="translate(23,-250)" x2="0" y2="250" stroke="#ddd" stroke-width="1" opacity="1"/><line transform="translate(36,-250)" x2="0" y2="250" stroke="#ddd" stroke-width="1" opacity="1"/><line transform="translate(45,-250)" x2="0" y2="250" stroke="#ddd" stroke-width="1" opacity="1"/><line transform="translate(52,-250)" x2="0" y2="250" stroke="#ddd" stroke-width="1" opacity="1"/><line transform="translate(58,-250)" x2="0" y2="250" stroke="#ddd" stroke-width="1" opacity="1"/><line transform="translate(63,-250)" x2="0" y2="250" stroke="#ddd" stroke-width="1" opacity="1"/><line transform="translate(68,-250)" x2="0" y2="250" stroke="#ddd" stroke-width="1" opacity="1"/><line transform="translate(72,-250)" x2="0" y2="250" stroke="#ddd" stroke-width="1" opacity="1"/><line transform="translate(75,-250)" x2="0" y2="250" stroke="#ddd" stroke-width="1" opacity="1"/><line transform="translate(98,-250)" x2="0" y2="250" stroke="#ddd" stroke-width="1" opacity="1"/><line transform="translate(111,-250)" x2="0" y2="250" stroke="#ddd" stroke-width="1" opacity="1"/><line transform="translate(120,-250)" x2="0" y2="250" stroke="#ddd" stroke-width="1" opacity="1"/><line transform="translate(127,-250)" x2="0" y2="250" stroke="#ddd" stroke-width="1" opacity="1"/><line transform="translate(133,-250)" x2="0" y2="250" stroke="#ddd" stroke-width="1" opacity="1"/><line transform="translate(138,-250)" x2="0" y2="250" stroke="#ddd" stroke-width="1" opacity="1"/><line transform="translate(143,-250)" x2="0" y2="250" stroke="#ddd" stroke-width="1" opacity="1"/><line transform="translate(147,-250)" x2="0" y2="250" stroke="#ddd" stroke-width="1" opacity="1"/><line transform="translate(150,-250)" x2="0" y2="250" stroke="#ddd" stroke-width="1" opacity="1"/><line transform="translate(173,-250)" x2="0" y2="250" stroke="#ddd" stroke-width="1" opacity="1"/><line transform="translate(186,-250)" x2="0" y2="250" stroke="#ddd" stroke-width="1" opacity="1"/><line transform="translate(195,-250)" x2="0" y2="250" stroke="#ddd" stroke-width="1" opacity="1"/><line transform="translate(202,-250)" x2="0" y2="250" stroke="#ddd" stroke-width="1" opacity="1"/><line transform="translate(208,-250)" x2="0" y2="250" stroke="#ddd" stroke-width="1" opacity="1"/><line transform="translate(213,-250)" x2="0" y2="250" stroke="#ddd" stroke-width="1" opacity="1"/><line transform="translate(218,-250)" x2="0" y2="250" stroke="#ddd" stroke-width="1" opacity="1"/><line transform="translate(222,-250)" x2="0" y2="250" stroke="#ddd" stroke-width="1" opacity="1"/><line transform="translate(225,-250)" x2="0" y2="250" stroke="#ddd" stroke-width="1" opacity="1"/><line transform="translate(248,-250)" x2="0" y2="250" stroke="#ddd" stroke-width="1" opacity="1"/><line transform="translate(261,-250)" x2="0" y2="250" stroke="#ddd" stroke-width="1" opacity="1"/><line transform="translate(270,-250)" x2="0" y2="250" stroke="#ddd" stroke-width="1" opacity="1"/><line transform="translate(277,-250)" x2="0" y2="250" stroke="#ddd" stroke-width="1" opacity="1"/><line transform="translate(283,-250)" x2="0" y2="250" stroke="#ddd" stroke-width="1" opacity="1"/><line transform="translate(288,-250)" x2="0" y2="250" stroke="#ddd" stroke-width="1" opacity="1"/><line transform="translate(293,-250)" x2="0" y2="250" stroke="#ddd" stroke-width="1" opacity="1"/><line transform="translate(297,-250)" x2="0" y2="250" stroke="#ddd" stroke-width="1" opacity="1"/><line transform="translate(300,-250)" x2="0" y2="250" stroke="#ddd" stroke-width="1" opacity="1"/></g></g><path class="foreground" aria-hidden="true" d="" pointer-events="none" display="none"/></g></g><g class="mark-group role-axis" role="graphics-symbol" aria-roledescription="axis" aria-label="Y-axis for a linear scale with values from 0 to 240"><g transform="translate(0.5,0.5)"><path class="background" aria-hidden="true" d="M0,0h0v0h0Z" pointer-events="none"/><g><g class="mark-rule role-axis-grid" pointer-events="none"><line transform="translate(0,250)" x2="300" y2="0" stroke="#ddd" stroke-width="1" opacity="1"/><line transform="translate(0,198)" x2="300" y2="0" stroke="#ddd" stroke-width="1" opacity="1"/><line transform="translate(0,146)" x2="300" y2="0" stroke="#ddd" stroke-width="1" opacity="1"/><line transform="translate(0,94)" x2="300" y2="0" stroke="#ddd" stroke-width="1" opacity="1"/><line transform="translate(0,42)" x2="300" y2="0" stroke="#ddd" stroke-width="1" opacity="1"/></g></g><path class="foreground" aria-hidden="true" d="" pointer-events="none" display="none"/></g></g><g class="mark-group role-axis" role="graphics-symbol" aria-roledescription="axis" aria-label="Y-axis titled 'Computation days (single cpu)' for a linear scale with values from 0 to 240"><g transform="translate(0.5,0.5)"><path class="background" aria-hidden="true" d="M0,0h0v0h0Z" pointer-events="none"/><g><g class="mark-rule role-axis-tick" pointer-events="none"><line transform="translate(0,250)" x2="-5" y2="0" stroke="#888" stroke-width="1" opacity="1"/><line transform="translate(0,198)" x2="-5" y2="0" stroke="#888" stroke-width="1" opacity="1"/><line transform="translate(0,146)" x2="-5" y2="0" stroke="#888" stroke-width="1" opacity="1"/><line transform="translate(0,94)" x2="-5" y2="0" stroke="#888" stroke-width="1" opacity="1"/><line transform="translate(0,42)" x2="-5" y2="0" stroke="#888" stroke-width="1" opacity="1"/></g><g class="mark-text role-axis-label" pointer-events="none"><text text-anchor="end" transform="translate(-7,253)" font-family="sans-serif" font-size="10px" fill="#000" opacity="1">0</text><text text-anchor="end" transform="translate(-7,200.91666666666666)" font-family="sans-serif" font-size="10px" fill="#000" opacity="1">50</text><text text-anchor="end" transform="translate(-7,148.83333333333331)" font-family="sans-serif" font-size="10px" fill="#000" opacity="1">100</text><text text-anchor="end" transform="translate(-7,96.75)" font-family="sans-serif" font-size="10px" fill="#000" opacity="1">150</text><text text-anchor="end" transform="translate(-7,44.66666666666666)" font-family="sans-serif" font-size="10px" fill="#000" opacity="1">200</text></g><g class="mark-rule role-axis-domain" pointer-events="none"><line transform="translate(0,250)" x2="0" y2="-250" stroke="#888" stroke-width="1" opacity="1"/></g><g class="mark-text role-axis-title" pointer-events="none"><text text-anchor="middle" transform="translate(-27.69565200805664,125) rotate(-90) translate(0,-2)" font-family="sans-serif" font-size="11px" font-weight="bold" fill="#000" opacity="1">Computation days (single cpu)</text></g></g><path class="foreground" aria-hidden="true" d="" pointer-events="none" display="none"/></g></g><g class="mark-group role-scope child_layer_0_pathgroup" role="graphics-object" aria-roledescription="group mark container"><g transform="translate(0,0)"><path class="background" aria-hidden="true" d="M0,0h300v250h-300Z"/><g><g class="mark-line role-mark child_layer_0_marks" role="graphics-symbol" aria-roledescription="line mark container"><path d="M52.42275032520144,231.838192033179L75.00000000000003,234.80286297582305L97.57724967479857,236.3101892039609L120.15449934959716,239.12266509130657L142.73174902439575,241.72957658179013L165.30899869919435,242.48779095936212L187.88624837399294,241.81995884773664L210.4634980487915,238.84752764917695L233.0407477235901,231.7494855967078L255.6179973983887,216.8209675604424" stroke="#4c78a8" stroke-width="2" opacity="0.5"/></g></g><path class="foreground" aria-hidden="true" d="" display="none"/></g><g transform="translate(0,0)"><path class="background" aria-hidden="true" d="M0,0h300v250h-300Z"/><g><g class="mark-line role-mark child_layer_0_marks" role="graphics-symbol" aria-roledescription="line mark container"><path d="M52.42275032520144,187.30470357510288L75.00000000000003,205.35290878986626L97.57724967479857,212.92587770061726L120.15449934959716,222.1659553433642L142.73174902439575,227.25140255272632L165.30899869919435,231.6266316229424L187.88624837399294,232.86152102623456L210.4634980487915,231.41002764917695L233.0407477235901,225.43322402263374L255.6179973983887,211.4850541730967" stroke="#f58518" stroke-width="2" opacity="0.5"/></g></g><path class="foreground" aria-hidden="true" d="" display="none"/></g><g transform="translate(0,0)"><path class="background" aria-hidden="true" d="M0,0h300v250h-300Z"/><g><g class="mark-line role-mark child_layer_0_marks" role="graphics-symbol" aria-roledescription="line mark container"><path d="M52.42275032520144,148.97835085519546L75.00000000000003,164.0586741255144L97.57724967479857,183.5904626414609L120.15449934959716,195.80252137988685L142.73174902439575,203.9542582947531L165.30899869919435,213.0360484182099L187.88624837399294,218.07912165637862L210.4634980487915,219.29293659979425L233.0407477235901,215.05162921167695L255.6179973983887,202.24318817515433" stroke="#e45756" stroke-width="2" opacity="0.5"/></g></g><path class="foreground" aria-hidden="true" d="" display="none"/></g><g transform="translate(0,0)"><path class="background" aria-hidden="true" d="M0,0h300v250h-300Z"/><g><g class="mark-line role-mark child_layer_0_marks" role="graphics-symbol" aria-roledescription="line mark container"><path d="M52.42275032520144,45.661522633744845L75.00000000000003,76.41191245498969L97.57724967479857,126.82298498585392L120.15449934959716,149.6845341435185L142.73174902439575,169.6495547196502L165.30899869919435,184.34250016075106L187.88624837399294,193.77548305684155L210.4634980487915,198.27261365097738L233.0407477235901,196.83710294495884L255.6179973983887,186.37247620884773" stroke="#72b7b2" stroke-width="2" opacity="0.5"/></g></g><path class="foreground" aria-hidden="true" d="" display="none"/></g></g><g class="mark-symbol role-mark child_layer_1_marks" role="graphics-symbol" aria-roledescription="symbol mark container"><path transform="translate(52.42275032520144,231.838192033179)" d="M3.1622776601683795,0A3.1622776601683795,3.1622776601683795,0,1,1,-3.1622776601683795,0A3.1622776601683795,3.1622776601683795,0,1,1,3.1622776601683795,0" stroke="#4c78a8" stroke-width="2"/><path transform="translate(75.00000000000003,234.80286297582305)" d="M3.1622776601683795,0A3.1622776601683795,3.1622776601683795,0,1,1,-3.1622776601683795,0A3.1622776601683795,3.1622776601683795,0,1,1,3.1622776601683795,0" stroke="#4c78a8" stroke-width="2"/><path transform="translate(97.57724967479857,236.3101892039609)" d="M3.1622776601683795,0A3.1622776601683795,3.1622776601683795,0,1,1,-3.1622776601683795,0A3.1622776601683795,3.1622776601683795,0,1,1,3.1622776601683795,0" stroke="#4c78a8" stroke-width="2"/><path transform="translate(120.15449934959716,239.12266509130657)" d="M3.1622776601683795,0A3.1622776601683795,3.1622776601683795,0,1,1,-3.1622776601683795,0A3.1622776601683795,3.1622776601683795,0,1,1,3.1622776601683795,0" stroke="#4c78a8" stroke-width="2"/><path transform="translate(142.73174902439575,241.72957658179013)" d="M3.1622776601683795,0A3.1622776601683795,3.1622776601683795,0,1,1,-3.1622776601683795,0A3.1622776601683795,3.1622776601683795,0,1,1,3.1622776601683795,0" stroke="#4c78a8" stroke-width="2"/><path transform="translate(165.30899869919435,242.48779095936212)" d="M3.1622776601683795,0A3.1622776601683795,3.1622776601683795,0,1,1,-3.1622776601683795,0A3.1622776601683795,3.1622776601683795,0,1,1,3.1622776601683795,0" stroke="#4c78a8" stroke-width="2"/><path transform="translate(187.88624837399294,241.81995884773664)" d="M3.1622776601683795,0A3.1622776601683795,3.1622776601683795,0,1,1,-3.1622776601683795,0A3.1622776601683795,3.1622776601683795,0,1,1,3.1622776601683795,0" stroke="#4c78a8" stroke-width="2"/><path transform="translate(210.4634980487915,238.84752764917695)" d="M3.1622776601683795,0A3.1622776601683795,3.1622776601683795,0,1,1,-3.1622776601683795,0A3.1622776601683795,3.1622776601683795,0,1,1,3.1622776601683795,0" stroke="#4c78a8" stroke-width="2"/><path transform="translate(233.0407477235901,231.7494855967078)" d="M3.1622776601683795,0A3.1622776601683795,3.1622776601683795,0,1,1,-3.1622776601683795,0A3.1622776601683795,3.1622776601683795,0,1,1,3.1622776601683795,0" stroke="#4c78a8" stroke-width="2"/><path transform="translate(255.6179973983887,216.8209675604424)" d="M3.1622776601683795,0A3.1622776601683795,3.1622776601683795,0,1,1,-3.1622776601683795,0A3.1622776601683795,3.1622776601683795,0,1,1,3.1622776601683795,0" stroke="#4c78a8" stroke-width="2"/><path transform="translate(52.42275032520144,187.30470357510288)" d="M3.1622776601683795,0A3.1622776601683795,3.1622776601683795,0,1,1,-3.1622776601683795,0A3.1622776601683795,3.1622776601683795,0,1,1,3.1622776601683795,0" stroke="#f58518" stroke-width="2"/><path transform="translate(75.00000000000003,205.35290878986626)" d="M3.1622776601683795,0A3.1622776601683795,3.1622776601683795,0,1,1,-3.1622776601683795,0A3.1622776601683795,3.1622776601683795,0,1,1,3.1622776601683795,0" stroke="#f58518" stroke-width="2"/><path transform="translate(97.57724967479857,212.92587770061726)" d="M3.1622776601683795,0A3.1622776601683795,3.1622776601683795,0,1,1,-3.1622776601683795,0A3.1622776601683795,3.1622776601683795,0,1,1,3.1622776601683795,0" stroke="#f58518" stroke-width="2"/><path transform="translate(120.15449934959716,222.1659553433642)" d="M3.1622776601683795,0A3.1622776601683795,3.1622776601683795,0,1,1,-3.1622776601683795,0A3.1622776601683795,3.1622776601683795,0,1,1,3.1622776601683795,0" stroke="#f58518" stroke-width="2"/><path transform="translate(142.73174902439575,227.25140255272632)" d="M3.1622776601683795,0A3.1622776601683795,3.1622776601683795,0,1,1,-3.1622776601683795,0A3.1622776601683795,3.1622776601683795,0,1,1,3.1622776601683795,0" stroke="#f58518" stroke-width="2"/><path transform="translate(165.30899869919435,231.6266316229424)" d="M3.1622776601683795,0A3.1622776601683795,3.1622776601683795,0,1,1,-3.1622776601683795,0A3.1622776601683795,3.1622776601683795,0,1,1,3.1622776601683795,0" stroke="#f58518" stroke-width="2"/><path transform="translate(187.88624837399294,232.86152102623456)" d="M3.1622776601683795,0A3.1622776601683795,3.1622776601683795,0,1,1,-3.1622776601683795,0A3.1622776601683795,3.1622776601683795,0,1,1,3.1622776601683795,0" stroke="#f58518" stroke-width="2"/><path transform="translate(210.4634980487915,231.41002764917695)" d="M3.1622776601683795,0A3.1622776601683795,3.1622776601683795,0,1,1,-3.1622776601683795,0A3.1622776601683795,3.1622776601683795,0,1,1,3.1622776601683795,0" stroke="#f58518" stroke-width="2"/><path transform="translate(233.0407477235901,225.43322402263374)" d="M3.1622776601683795,0A3.1622776601683795,3.1622776601683795,0,1,1,-3.1622776601683795,0A3.1622776601683795,3.1622776601683795,0,1,1,3.1622776601683795,0" stroke="#f58518" stroke-width="2"/><path transform="translate(255.6179973983887,211.4850541730967)" d="M3.1622776601683795,0A3.1622776601683795,3.1622776601683795,0,1,1,-3.1622776601683795,0A3.1622776601683795,3.1622776601683795,0,1,1,3.1622776601683795,0" stroke="#f58518" stroke-width="2"/><path transform="translate(52.42275032520144,148.97835085519546)" d="M3.1622776601683795,0A3.1622776601683795,3.1622776601683795,0,1,1,-3.1622776601683795,0A3.1622776601683795,3.1622776601683795,0,1,1,3.1622776601683795,0" stroke="#e45756" stroke-width="2"/><path transform="translate(75.00000000000003,164.0586741255144)" d="M3.1622776601683795,0A3.1622776601683795,3.1622776601683795,0,1,1,-3.1622776601683795,0A3.1622776601683795,3.1622776601683795,0,1,1,3.1622776601683795,0" stroke="#e45756" stroke-width="2"/><path transform="translate(97.57724967479857,183.5904626414609)" d="M3.1622776601683795,0A3.1622776601683795,3.1622776601683795,0,1,1,-3.1622776601683795,0A3.1622776601683795,3.1622776601683795,0,1,1,3.1622776601683795,0" stroke="#e45756" stroke-width="2"/><path transform="translate(120.15449934959716,195.80252137988685)" d="M3.1622776601683795,0A3.1622776601683795,3.1622776601683795,0,1,1,-3.1622776601683795,0A3.1622776601683795,3.1622776601683795,0,1,1,3.1622776601683795,0" stroke="#e45756" stroke-width="2"/><path transform="translate(142.73174902439575,203.9542582947531)" d="M3.1622776601683795,0A3.1622776601683795,3.1622776601683795,0,1,1,-3.1622776601683795,0A3.1622776601683795,3.1622776601683795,0,1,1,3.1622776601683795,0" stroke="#e45756" stroke-width="2"/><path transform="translate(165.30899869919435,213.0360484182099)" d="M3.1622776601683795,0A3.1622776601683795,3.1622776601683795,0,1,1,-3.1622776601683795,0A3.1622776601683795,3.1622776601683795,0,1,1,3.1622776601683795,0" stroke="#e45756" stroke-width="2"/><path transform="translate(187.88624837399294,218.07912165637862)" d="M3.1622776601683795,0A3.1622776601683795,3.1622776601683795,0,1,1,-3.1622776601683795,0A3.1622776601683795,3.1622776601683795,0,1,1,3.1622776601683795,0" stroke="#e45756" stroke-width="2"/><path transform="translate(210.4634980487915,219.29293659979425)" d="M3.1622776601683795,0A3.1622776601683795,3.1622776601683795,0,1,1,-3.1622776601683795,0A3.1622776601683795,3.1622776601683795,0,1,1,3.1622776601683795,0" stroke="#e45756" stroke-width="2"/><path transform="translate(233.0407477235901,215.05162921167695)" d="M3.1622776601683795,0A3.1622776601683795,3.1622776601683795,0,1,1,-3.1622776601683795,0A3.1622776601683795,3.1622776601683795,0,1,1,3.1622776601683795,0" stroke="#e45756" stroke-width="2"/><path transform="translate(255.6179973983887,202.24318817515433)" d="M3.1622776601683795,0A3.1622776601683795,3.1622776601683795,0,1,1,-3.1622776601683795,0A3.1622776601683795,3.1622776601683795,0,1,1,3.1622776601683795,0" stroke="#e45756" stroke-width="2"/><path transform="translate(52.42275032520144,45.661522633744845)" d="M3.1622776601683795,0A3.1622776601683795,3.1622776601683795,0,1,1,-3.1622776601683795,0A3.1622776601683795,3.1622776601683795,0,1,1,3.1622776601683795,0" stroke="#72b7b2" stroke-width="2"/><path transform="translate(75.00000000000003,76.41191245498969)" d="M3.1622776601683795,0A3.1622776601683795,3.1622776601683795,0,1,1,-3.1622776601683795,0A3.1622776601683795,3.1622776601683795,0,1,1,3.1622776601683795,0" stroke="#72b7b2" stroke-width="2"/><path transform="translate(97.57724967479857,126.82298498585392)" d="M3.1622776601683795,0A3.1622776601683795,3.1622776601683795,0,1,1,-3.1622776601683795,0A3.1622776601683795,3.1622776601683795,0,1,1,3.1622776601683795,0" stroke="#72b7b2" stroke-width="2"/><path transform="translate(120.15449934959716,149.6845341435185)" d="M3.1622776601683795,0A3.1622776601683795,3.1622776601683795,0,1,1,-3.1622776601683795,0A3.1622776601683795,3.1622776601683795,0,1,1,3.1622776601683795,0" stroke="#72b7b2" stroke-width="2"/><path transform="translate(142.73174902439575,169.6495547196502)" d="M3.1622776601683795,0A3.1622776601683795,3.1622776601683795,0,1,1,-3.1622776601683795,0A3.1622776601683795,3.1622776601683795,0,1,1,3.1622776601683795,0" stroke="#72b7b2" stroke-width="2"/><path transform="translate(165.30899869919435,184.34250016075106)" d="M3.1622776601683795,0A3.1622776601683795,3.1622776601683795,0,1,1,-3.1622776601683795,0A3.1622776601683795,3.1622776601683795,0,1,1,3.1622776601683795,0" stroke="#72b7b2" stroke-width="2"/><path transform="translate(187.88624837399294,193.77548305684155)" d="M3.1622776601683795,0A3.1622776601683795,3.1622776601683795,0,1,1,-3.1622776601683795,0A3.1622776601683795,3.1622776601683795,0,1,1,3.1622776601683795,0" stroke="#72b7b2" stroke-width="2"/><path transform="translate(210.4634980487915,198.27261365097738)" d="M3.1622776601683795,0A3.1622776601683795,3.1622776601683795,0,1,1,-3.1622776601683795,0A3.1622776601683795,3.1622776601683795,0,1,1,3.1622776601683795,0" stroke="#72b7b2" stroke-width="2"/><path transform="translate(233.0407477235901,196.83710294495884)" d="M3.1622776601683795,0A3.1622776601683795,3.1622776601683795,0,1,1,-3.1622776601683795,0A3.1622776601683795,3.1622776601683795,0,1,1,3.1622776601683795,0" stroke="#72b7b2" stroke-width="2"/><path transform="translate(255.6179973983887,186.37247620884773)" d="M3.1622776601683795,0A3.1622776601683795,3.1622776601683795,0,1,1,-3.1622776601683795,0A3.1622776601683795,3.1622776601683795,0,1,1,3.1622776601683795,0" stroke="#72b7b2" stroke-width="2"/></g><g class="mark-rule role-mark child_layer_2_marks" role="graphics-symbol" aria-roledescription="rule mark container"><line transform="translate(52.42275032520144,234.1387683256173)" x2="0" y2="-6.1802300347222285" stroke="#4c78a8"/><line transform="translate(75.00000000000003,238.16893325617283)" x2="0" y2="-8.783986786265444" stroke="#4c78a8"/><line transform="translate(97.57724967479857,238.08234471450618)" x2="0" y2="-3.803891782407419" stroke="#4c78a8"/><line transform="translate(120.15449934959716,240.51175491898147)" x2="0" y2="-2.4643494405864033" stroke="#4c78a8"/><line transform="translate(142.73174902439575,242.45399305555557)" x2="0" y2="-1.315719039351876" stroke="#4c78a8"/><line transform="translate(165.30899869919435,242.5557605131173)" x2="0" y2="-0.18469087577162213" stroke="#4c78a8"/><line transform="translate(187.88624837399294,241.98611111111111)" x2="0" y2="-0.37519290123458404" stroke="#4c78a8"/><line transform="translate(210.4634980487915,238.9087215470679)" x2="0" y2="-0.1669921875" stroke="#4c78a8"/><line transform="translate(233.0407477235901,231.76719232253086)" x2="0" y2="-0.03577112268516203" stroke="#4c78a8"/><line transform="translate(255.6179973983887,216.82605131172838)" x2="0" y2="-0.014660493827136634" stroke="#4c78a8"/><line transform="translate(52.42275032520144,190.65153597608025)" x2="0" y2="-5.323941454475317" stroke="#f58518"/><line transform="translate(75.00000000000003,208.55718315972223)" x2="0" y2="-8.757366415895063" stroke="#f58518"/><line transform="translate(97.57724967479857,216.34031394675927)" x2="0" y2="-8.649558738425952" stroke="#f58518"/><line transform="translate(120.15449934959716,223.76443142361111)" x2="0" y2="-2.662205825617292" stroke="#f58518"/><line transform="translate(142.73174902439575,227.86329330632717)" x2="0" y2="-1.797960069444457" stroke="#f58518"/><line transform="translate(165.30899869919435,232.14548369984567)" x2="0" y2="-1.0255835262345556" stroke="#f58518"/><line transform="translate(187.88624837399294,232.91289303626544)" x2="0" y2="-0.11070119598767292" stroke="#f58518"/><line transform="translate(210.4634980487915,231.4566333912037)" x2="0" y2="-0.08486448688270798" stroke="#f58518"/><line transform="translate(233.0407477235901,225.4869429976852)" x2="0" y2="-0.1181640625" stroke="#f58518"/><line transform="translate(255.6179973983887,211.51244212962965)" x2="0" y2="-0.0650318287037237" stroke="#f58518"/><line transform="translate(52.42275032520144,162.47852366255145)" x2="0" y2="-38.24799463091564" stroke="#e45756"/><line transform="translate(75.00000000000003,172.67696277006172)" x2="0" y2="-17.204523533950635" stroke="#e45756"/><line transform="translate(97.57724967479857,184.21507282021605)" x2="0" y2="-1.270688657407419" stroke="#e45756"/><line transform="translate(120.15449934959716,198.25798128858025)" x2="0" y2="-4.6317635995370665" stroke="#e45756"/><line transform="translate(142.73174902439575,207.2100573881173)" x2="0" y2="-6.1966507523148096" stroke="#e45756"/><line transform="translate(165.30899869919435,213.99476755401233)" x2="0" y2="-1.9428650655864033" stroke="#e45756"/><line transform="translate(187.88624837399294,218.5947627314815)" x2="0" y2="-0.8667293595679268" stroke="#e45756"/><line transform="translate(210.4634980487915,219.38243875385803)" x2="0" y2="-0.15289834104936517" stroke="#e45756"/><line transform="translate(233.0407477235901,215.15524932484567)" x2="0" y2="-0.2807677469135683" stroke="#e45756"/><line transform="translate(255.6179973983887,202.4025245949074)" x2="0" y2="-0.3058087384259238" stroke="#e45756"/><line transform="translate(52.42275032520144,62.44761525848769)" x2="0" y2="-50.21217930169755" stroke="#72b7b2"/><line transform="translate(75.00000000000003,80.76880787037035)" x2="0" y2="-12.989209587191354" stroke="#72b7b2"/><line transform="translate(97.57724967479857,137.55744839891975)" x2="0" y2="-21.407708815586417" stroke="#72b7b2"/><line transform="translate(120.15449934959716,154.4677734375)" x2="0" y2="-8.258210358796305" stroke="#72b7b2"/><line transform="translate(142.73174902439575,172.43262924382717)" x2="0" y2="-6.829812885802454" stroke="#72b7b2"/><line transform="translate(165.30899869919435,184.80272231867283)" x2="0" y2="-0.9477478780864317" stroke="#72b7b2"/><line transform="translate(187.88624837399294,194.24142795138889)" x2="0" y2="-0.7364366319444571" stroke="#72b7b2"/><line transform="translate(210.4634980487915,198.64433834876544)" x2="0" y2="-0.5816575038580254" stroke="#72b7b2"/><line transform="translate(233.0407477235901,197.08543113425924)" x2="0" y2="-0.5878544560184764" stroke="#72b7b2"/><line transform="translate(255.6179973983887,186.57642505787035)" x2="0" y2="-0.5171320408950351" stroke="#72b7b2"/></g><g class="mark-group role-title"><g transform="translate(150,-20)"><path class="background" aria-hidden="true" d="M0,0h0v0h0Z" pointer-events="none"/><g><g class="mark-text role-title-text" role="graphics-symbol" aria-roledescription="title" aria-label="Title text 'D4'" pointer-events="none"><text text-anchor="middle" transform="translate(0,8)" font-family="sans-serif" font-size="10px" fill="#000" opacity="1">D4</text></g></g><path class="foreground" aria-hidden="true" d="" pointer-events="none" display="none"/></g></g></g><path class="foreground" aria-hidden="true" d="" display="none"/></g></g><g class="mark-group role-legend" role="graphics-symbol" aria-roledescription="legend" aria-label="Symbol legend titled 'N hits wanted' for stroke color with 4 values: 50000, 100000, 150000, 200000"><g transform="translate(680,0)"><path class="background" aria-hidden="true" d="M0,0h72v77h-72Z" pointer-events="none"/><g><g class="mark-group role-legend-entry"><g transform="translate(0,16)"><path class="background" aria-hidden="true" d="M0,0h0v0h0Z" pointer-events="none"/><g><g class="mark-group role-scope" role="graphics-object" aria-roledescription="group mark container"><g transform="translate(0,0)"><path class="background" aria-hidden="true" d="M0,0h49.39130401611328v12.5h-49.39130401611328Z" pointer-events="none" opacity="1"/><g><g class="mark-symbol role-legend-symbol" pointer-events="none"><path transform="translate(6,6)" d="M5,0A5,5,0,1,1,-5,0A5,5,0,1,1,5,0" stroke="#4c78a8" stroke-width="1.5" opacity="0.5"/></g><g class="mark-text role-legend-label" pointer-events="none"><text text-anchor="start" transform="translate(16,9)" font-family="sans-serif" font-size="10px" fill="#000" opacity="1">50000</text></g></g><path class="foreground" aria-hidden="true" d="" pointer-events="none" display="none"/></g><g transform="translate(0,16)"><path class="background" aria-hidden="true" d="M0,0h49.39130401611328v12.5h-49.39130401611328Z" pointer-events="none" opacity="1"/><g><g class="mark-symbol role-legend-symbol" pointer-events="none"><path transform="translate(6,6)" d="M5,0A5,5,0,1,1,-5,0A5,5,0,1,1,5,0" stroke="#f58518" stroke-width="1.5" opacity="0.5"/></g><g class="mark-text role-legend-label" pointer-events="none"><text text-anchor="start" transform="translate(16,9)" font-family="sans-serif" font-size="10px" fill="#000" opacity="1">100000</text></g></g><path class="foreground" aria-hidden="true" d="" pointer-events="none" display="none"/></g><g transform="translate(0,32)"><path class="background" aria-hidden="true" d="M0,0h49.39130401611328v12.5h-49.39130401611328Z" pointer-events="none" opacity="1"/><g><g class="mark-symbol role-legend-symbol" pointer-events="none"><path transform="translate(6,6)" d="M5,0A5,5,0,1,1,-5,0A5,5,0,1,1,5,0" stroke="#e45756" stroke-width="1.5" opacity="0.5"/></g><g class="mark-text role-legend-label" pointer-events="none"><text text-anchor="start" transform="translate(16,9)" font-family="sans-serif" font-size="10px" fill="#000" opacity="1">150000</text></g></g><path class="foreground" aria-hidden="true" d="" pointer-events="none" display="none"/></g><g transform="translate(0,48)"><path class="background" aria-hidden="true" d="M0,0h49.39130401611328v12.5h-49.39130401611328Z" pointer-events="none" opacity="1"/><g><g class="mark-symbol role-legend-symbol" pointer-events="none"><path transform="translate(6,6)" d="M5,0A5,5,0,1,1,-5,0A5,5,0,1,1,5,0" stroke="#72b7b2" stroke-width="1.5" opacity="0.5"/></g><g class="mark-text role-legend-label" pointer-events="none"><text text-anchor="start" transform="translate(16,9)" font-family="sans-serif" font-size="10px" fill="#000" opacity="1">200000</text></g></g><path class="foreground" aria-hidden="true" d="" pointer-events="none" display="none"/></g></g></g><path class="foreground" aria-hidden="true" d="" pointer-events="none" display="none"/></g></g><g class="mark-text role-legend-title" pointer-events="none"><text text-anchor="start" transform="translate(0,9)" font-family="sans-serif" font-size="11px" font-weight="bold" fill="#000" opacity="1">N hits wanted</text></g></g><path class="foreground" aria-hidden="true" d="" pointer-events="none" display="none"/></g></g></g><path class="foreground" aria-hidden="true" d="" display="none"/></g></g></g></svg>