<svg xmlns="http://www.w3.org/2000/svg" xmlns:xlink="http://www.w3.org/1999/xlink" version="1.1" class="marks" width="511" height="368" viewBox="0 0 511 368"><rect width="511" height="368" fill="white"/><g fill="none" stroke-miterlimit="10" transform="translate(52,56)"><g class="mark-group role-frame root" role="graphics-object" aria-roledescription="group mark container"><g transform="translate(0,0)"><path class="background" aria-hidden="true" d="M0,0h0v0h0Z"/><g><g class="mark-group role-column-title facet-title" role="graphics-object" aria-roledescription="group mark container"><g transform="translate(175,-26)"><path class="background" aria-hidden="true" d="M0,0h0v0h0Z"/><g><g class="mark-group role-title"><g transform="translate(0,-25)"><path class="background" aria-hidden="true" d="M0,0h0v0h0Z" pointer-events="none"/><g><g class="mark-text role-title-text" role="graphics-symbol" aria-roledescription="title" aria-label="Title text 'Fingerprint'" pointer-events="none"><text text-anchor="middle" transform="translate(0,12)" font-family="sans-serif" font-size="15px" font-weight="bold" fill="#000" opacity="1">Fingerprint</text></g></g><path class="foreground" aria-hidden="true" d="" pointer-events="none" display="none"/></g></g></g><path class="foreground" aria-hidden="true" d="" display="none"/></g></g><g class="mark-group role-row-header row_header" role="graphics-object" aria-roledescription="group mark container"><g transform="translate(-5,0)"><path class="background" aria-hidden="true" d="M0,0h0v250h0Z"/><g><g class="mark-group role-axis" role="graphics-symbol" aria-roledescription="axis" aria-label="Y-axis titled 'Average Precision' for a linear scale with values from 0.00 to 0.20"><g transform="translate(0.5,0.5)"><path class="background" aria-hidden="true" d="M0,0h0v0h0Z" pointer-events="none"/><g><g class="mark-rule role-axis-tick" pointer-events="none"><line transform="translate(0,250)" x2="-5" y2="0" stroke="#888" stroke-width="1" opacity="1"/><line transform="translate(0,225)" x2="-5" y2="0" stroke="#888" stroke-width="1" opacity="1"/><line transform="translate(0,200)" x2="-5" y2="0" stroke="#888" stroke-width="1" opacity="1"/><line transform="translate(0,175)" x2="-5" y2="0" stroke="#888" stroke-width="1" opacity="1"/><line transform="translate(0,150)" x2="-5" y2="0" stroke="#888" stroke-width="1" opacity="1"/><line transform="translate(0,125)" x2="-5" y2="0" stroke="#888" stroke-width="1" opacity="1"/><line transform="translate(0,100)" x2="-5" y2="0" stroke="#888" stroke-width="1" opacity="1"/><line transform="translate(0,75)" x2="-5" y2="0" stroke="#888" stroke-width="1" opacity="1"/><line transform="translate(0,50)" x2="-5" y2="0" stroke="#888" stroke-width="1" opacity="1"/><line transform="translate(0,25)" x2="-5" y2="0" stroke="#888" stroke-width="1" opacity="1"/><line transform="translate(0,0)" x2="-5" y2="0" stroke="#888" stroke-width="1" opacity="1"/></g><g class="mark-text role-axis-label" pointer-events="none"><text text-anchor="end" transform="translate(-7,253)" font-family="sans-serif" font-size="10px" fill="#000" opacity="1">0.00</text><text text-anchor="end" transform="translate(-7,228)" font-family="sans-serif" font-size="10px" fill="#000" opacity="1">0.02</text><text text-anchor="end" transform="translate(-7,203)" font-family="sans-serif" font-size="10px" fill="#000" opacity="1">0.04</text><text text-anchor="end" transform="translate(-7,178)" font-family="sans-serif" font-size="10px" fill="#000" opacity="1">0.06</text><text text-anchor="end" transform="translate(-7,153.00000000000003)" font-family="sans-serif" font-size="10px" fill="#000" opacity="1">0.08</text><text text-anchor="end" transform="translate(-7,128)" font-family="sans-serif" font-size="10px" fill="#000" opacity="1">0.10</text><text text-anchor="end" transform="translate(-7,103)" font-family="sans-serif" font-size="10px" fill="#000" opacity="1">0.12</text><text text-anchor="end" transform="translate(-7,77.99999999999999)" font-family="sans-serif" font-size="10px" fill="#000" opacity="1">0.14</text><text text-anchor="end" transform="translate(-7,53.000000000000014)" font-family="sans-serif" font-size="10px" fill="#000" opacity="1">0.16</text><text text-anchor="end" transform="translate(-7,28.00000000000002)" font-family="sans-serif" font-size="10px" fill="#000" opacity="1">0.18</text><text text-anchor="end" transform="translate(-7,3)" font-family="sans-serif" font-size="10px" fill="#000" opacity="1">0.20</text></g><g class="mark-rule role-axis-domain" pointer-events="none"><line transform="translate(0,250)" x2="0" y2="-250" stroke="#888" stroke-width="1" opacity="1"/></g><g class="mark-text role-axis-title" pointer-events="none"><text text-anchor="middle" transform="translate(-30.46666717529297,125) rotate(-90) translate(0,-2)" font-family="sans-serif" font-size="11px" font-weight="bold" fill="#000" opacity="1">Average Precision</text></g></g><path class="foreground" aria-hidden="true" d="" pointer-events="none" display="none"/></g></g></g><path class="foreground" aria-hidden="true" d="" display="none"/></g></g><g class="mark-group role-column-footer column_footer" role="graphics-object" aria-roledescription="group mark container"><g transform="translate(0,251)"><path class="background" aria-hidden="true" d="M0,0h350v0h-350Z"/><g><g class="mark-group role-axis" role="graphics-symbol" aria-roledescription="axis" aria-label="X-axis titled 'Training Set Size' for a linear scale with values from 0 to 400,000"><g transform="translate(0.5,0.5)"><path class="background" aria-hidden="true" d="M0,0h0v0h0Z" pointer-events="none"/><g><g class="mark-rule role-axis-tick" pointer-events="none"><line transform="translate(0,0)" x2="0" y2="5" stroke="#888" stroke-width="1" opacity="1"/><line transform="translate(44,0)" x2="0" y2="5" stroke="#888" stroke-width="1" opacity="1"/><line transform="translate(88,0)" x2="0" y2="5" stroke="#888" stroke-width="1" opacity="1"/><line transform="translate(131,0)" x2="0" y2="5" stroke="#888" stroke-width="1" opacity="1"/><line transform="translate(175,0)" x2="0" y2="5" stroke="#888" stroke-width="1" opacity="1"/><line transform="translate(219,0)" x2="0" y2="5" stroke="#888" stroke-width="1" opacity="1"/><line transform="translate(263,0)" x2="0" y2="5" stroke="#888" stroke-width="1" opacity="1"/><line transform="translate(306,0)" x2="0" y2="5" stroke="#888" stroke-width="1" opacity="1"/><line transform="translate(350,0)" x2="0" y2="5" stroke="#888" stroke-width="1" opacity="1"/></g><g class="mark-text role-axis-label" pointer-events="none"><text text-anchor="start" transform="translate(0,7) rotate(60) translate(0,3)" font-family="sans-serif" font-size="10px" fill="#000" opacity="1">0</text><text text-anchor="start" transform="translate(43.75,7) rotate(60) translate(0,3)" font-family="sans-serif" font-size="10px" fill="#000" opacity="1">50,000</text><text text-anchor="start" transform="translate(87.5,7) rotate(60) translate(0,3)" font-family="sans-serif" font-size="10px" fill="#000" opacity="1">100,000</text><text text-anchor="start" transform="translate(131.25,7) rotate(60) translate(0,3)" font-family="sans-serif" font-size="10px" fill="#000" opacity="1">150,000</text><text text-anchor="start" transform="translate(175,7) rotate(60) translate(0,3)" font-family="sans-serif" font-size="10px" fill="#000" opacity="1">200,000</text><text text-anchor="start" transform="translate(218.75,7) rotate(60) translate(0,3)" font-family="sans-serif" font-size="10px" fill="#000" opacity="1">250,000</text><text text-anchor="start" transform="translate(262.5,7) rotate(60) translate(0,3)" font-family="sans-serif" font-size="10px" fill="#000" opacity="1">300,000</text><text text-anchor="start" transform="translate(306.25,7) rotate(60) translate(0,3)" font-family="sans-serif" font-size="10px" fill="#000" opacity="1">350,000</text><text text-anchor="start" transform="translate(350,7) rotate(60) translate(0,3)" font-family="sans-serif" font-size="10px" fill="#000" opacity="1">400,000</text></g><g class="mark-rule role-axis-domain" pointer-events="none"><line transform="translate(0,0)" x2="350" y2="0" stroke="#888" stroke-width="1" opacity="1"/></g><g class="mark-text role-axis-title" pointer-events="none"><text text-anchor="middle" transform="translate(175,53.82125320474546)" font-family="sans-serif" font-size="11px" font-weight="bold" fill="#000" opacity="1">Training Set Size</text></g></g><path class="foreground" aria-hidden="true" d="" pointer-events="none" display="none"/></g></g></g><path class="foreground" aria-hidden="true" d="" display="none"/></g></g><g class="mark-group role-scope cell" role="graphics-object" aria-roledescription="group mark container"><g transform="translate(0,0)"><path class="background" aria-hidden="true" d="M0.5,0.5h350v250h-350Z" stroke="#ddd"/><g><g class="mark-group role-axis" role="graphics-symbol" aria-roledescription="axis" aria-label="X-axis for a linear scale with values from 0 to 400,000"><g transform="translate(0.5,250.5)"><path class="background" aria-hidden="true" d="M0,0h0v0h0Z" pointer-events="none"/><g><g class="mark-rule role-axis-grid" pointer-events="none"><line transform="translate(0,-250)" x2="0" y2="250" stroke="#ddd" stroke-width="1" opacity="1"/><line transform="translate(44,-250)" x2="0" y2="250" stroke="#ddd" stroke-width="1" opacity="1"/><line transform="translate(88,-250)" x2="0" y2="250" stroke="#ddd" stroke-width="1" opacity="1"/><line transform="translate(131,-250)" x2="0" y2="250" stroke="#ddd" stroke-width="1" opacity="1"/><line transform="translate(175,-250)" x2="0" y2="250" stroke="#ddd" stroke-width="1" opacity="1"/><line transform="translate(219,-250)" x2="0" y2="250" stroke="#ddd" stroke-width="1" opacity="1"/><line transform="translate(263,-250)" x2="0" y2="250" stroke="#ddd" stroke-width="1" opacity="1"/><line transform="translate(306,-250)" x2="0" y2="250" stroke="#ddd" stroke-width="1" opacity="1"/><line transform="translate(350,-250)" x2="0" y2="250" stroke="#ddd" stroke-width="1" opacity="1"/></g></g><path class="foreground" aria-hidden="true" d="" pointer-events="none" display="none"/></g></g><g class="mark-group role-axis" role="graphics-symbol" aria-roledescription="axis" aria-label="Y-axis for a linear scale with values from 0.00 to 0.20"><g transform="translate(0.5,0.5)"><path class="background" aria-hidden="true" d="M0,0h0v0h0Z" pointer-events="none"/><g><g class="mark-rule role-axis-grid" pointer-events="none"><line transform="translate(0,250)" x2="350" y2="0" stroke="#ddd" stroke-width="1" opacity="1"/><line transform="translate(0,225)" x2="350" y2="0" stroke="#ddd" stroke-width="1" opacity="1"/><line transform="translate(0,200)" x2="350" y2="0" stroke="#ddd" stroke-width="1" opacity="1"/><line transform="translate(0,175)" x2="350" y2="0" stroke="#ddd" stroke-width="1" opacity="1"/><line transform="translate(0,150)" x2="350" y2="0" stroke="#ddd" stroke-width="1" opacity="1"/><line transform="translate(0,125)" x2="350" y2="0" stroke="#ddd" stroke-width="1" opacity="1"/><line transform="translate(0,100)" x2="350" y2="0" stroke="#ddd" stroke-width="1" opacity="1"/><line transform="translate(0,75)" x2="350" y2="0" stroke="#ddd" stroke-width="1" opacity="1"/><line transform="translate(0,50)" x2="350" y2="0" stroke="#ddd" stroke-width="1" opacity="1"/><line transform="translate(0,25)" x2="350" y2="0" stroke="#ddd" stroke-width="1" opacity="1"/><line transform="translate(0,0)" x2="350" y2="0" stroke="#ddd" stroke-width="1" opacity="1"/></g></g><path class="foreground" aria-hidden="true" d="" pointer-events="none" display="none"/></g></g><g class="mark-rule role-mark child_layer_0_marks" role="graphics-symbol" aria-roledescription="rule mark container"><line transform="translate(350,246.25)" x2="-350" y2="0" stroke="black" stroke-width="1" stroke-dasharray="10,10"/><line transform="translate(350,246.25)" x2="-350" y2="0" stroke="black" stroke-width="1" stroke-dasharray="10,10"/><line transform="translate(350,246.25)" x2="-350" y2="0" stroke="black" stroke-width="1" stroke-dasharray="10,10"/><line transform="translate(350,246.25)" x2="-350" y2="0" stroke="black" stroke-width="1" stroke-dasharray="10,10"/><line transform="translate(350,246.25)" x2="-350" y2="0" stroke="black" stroke-width="1" stroke-dasharray="10,10"/><line transform="translate(350,246.25)" x2="-350" y2="0" stroke="black" stroke-width="1" stroke-dasharray="10,10"/><line transform="translate(350,246.25)" x2="-350" y2="0" stroke="black" stroke-width="1" stroke-dasharray="10,10"/><line transform="translate(350,246.25)" x2="-350" y2="0" stroke="black" stroke-width="1" stroke-dasharray="10,10"/><line transform="translate(350,246.25)" x2="-350" y2="0" stroke="black" stroke-width="1" stroke-dasharray="10,10"/><line transform="translate(350,246.25)" x2="-350" y2="0" stroke="black" stroke-width="1" stroke-dasharray="10,10"/><line transform="translate(350,246.25)" x2="-350" y2="0" stroke="black" stroke-width="1" stroke-dasharray="10,10"/><line transform="translate(350,246.25)" x2="-350" y2="0" stroke="black" stroke-width="1" stroke-dasharray="10,10"/><line transform="translate(350,246.25)" x2="-350" y2="0" stroke="black" stroke-width="1" stroke-dasharray="10,10"/><line transform="translate(350,246.25)" x2="-350" y2="0" stroke="black" stroke-width="1" stroke-dasharray="10,10"/><line transform="translate(350,246.25)" x2="-350" y2="0" stroke="black" stroke-width="1" stroke-dasharray="10,10"/><line transform="translate(350,246.25)" x2="-350" y2="0" stroke="black" stroke-width="1" stroke-dasharray="10,10"/><line transform="translate(350,246.25)" x2="-350" y2="0" stroke="black" stroke-width="1" stroke-dasharray="10,10"/><line transform="translate(350,246.25)" x2="-350" y2="0" stroke="black" stroke-width="1" stroke-dasharray="10,10"/><line transform="translate(350,246.25)" x2="-350" y2="0" stroke="black" stroke-width="1" stroke-dasharray="10,10"/><line transform="translate(350,246.25)" x2="-350" y2="0" stroke="black" stroke-width="1" stroke-dasharray="10,10"/><line transform="translate(350,246.25)" x2="-350" y2="0" stroke="black" stroke-width="1" stroke-dasharray="10,10"/><line transform="translate(350,246.25)" x2="-350" y2="0" stroke="black" stroke-width="1" stroke-dasharray="10,10"/></g><g class="mark-rule role-mark child_layer_1_marks" role="graphics-symbol" aria-roledescription="rule mark container"><line transform="translate(0.2625,244.79085980205753)" x2="0" y2="-28.27291832264177" stroke="#4c78a8"/><line transform="translate(0.364,219.69291415237535)" x2="0" y2="-31.539668257660082" stroke="#4c78a8"/><line transform="translate(0.504875,228.33877588787539)" x2="0" y2="-37.791112507321145" stroke="#4c78a8"/><line transform="translate(0.7000000000000001,212.6022394533768)" x2="0" y2="-56.78818811264313" stroke="#4c78a8"/><line transform="translate(0.9712500000000001,197.9254554704351)" x2="0" y2="-59.93765962721122" stroke="#4c78a8"/><line transform="translate(1.346625,162.81544112148853)" x2="0" y2="-18.23312791138403" stroke="#4c78a8"/><line transform="translate(1.868125,160.17628403747247)" x2="0" y2="-25.436213844750057" stroke="#4c78a8"/><line transform="translate(2.590875,170.53852523686308)" x2="0" y2="-54.26750318826248" stroke="#4c78a8"/><line transform="translate(3.5936250000000003,168.73170466900967)" x2="0" y2="-55.83161140428548" stroke="#4c78a8"/><line transform="translate(4.984,149.7355010636096)" x2="0" y2="-32.48263631596981" stroke="#4c78a8"/><line transform="translate(6.9125,138.6712671714699)" x2="0" y2="-32.68880948800482" stroke="#4c78a8"/><line transform="translate(9.586500000000001,143.45882707883663)" x2="0" y2="-43.36770958271471" stroke="#4c78a8"/><line transform="translate(13.296500000000002,128.13589315971947)" x2="0" y2="-21.699408719270437" stroke="#4c78a8"/><line transform="translate(18.440625,110.76872211548425)" x2="0" y2="-5.5473848676347615" stroke="#4c78a8"/><line transform="translate(25.57625,107.81627668351979)" x2="0" y2="-17.20285791934181" stroke="#4c78a8"/><line transform="translate(35.4725,99.26679984904985)" x2="0" y2="-20.358751097537123" stroke="#4c78a8"/><line transform="translate(49.19775,92.37956658305157)" x2="0" y2="-20.118000796559144" stroke="#4c78a8"/><line transform="translate(68.233375,78.97900684789951)" x2="0" y2="-16.34017310569366" stroke="#4c78a8"/><line transform="translate(94.633875,67.4205518049166)" x2="0" y2="-12.15746368980269" stroke="#4c78a8"/><line transform="translate(131.25,54.570539224774144)" x2="0" y2="-13.7258921533466" stroke="#4c78a8"/><line transform="translate(244.99999999999997,35.7474673226037)" x2="0" y2="-10.219942615687842" stroke="#4c78a8"/><line transform="translate(350,21.522432647540253)" x2="0" y2="-3.744015845641993" stroke="#4c78a8"/></g><g class="mark-group role-scope child_layer_2_pathgroup" role="graphics-object" aria-roledescription="group mark container"><g transform="translate(0,0)"><path class="background" aria-hidden="true" d="M0,0h350v250h-350Z"/><g><g class="mark-line role-mark child_layer_2_marks" role="graphics-symbol" aria-roledescription="line mark container"><path d="M0.2625,236.72741146815378L0.364,206.60553110861653L0.504875,213.97506112736207L0.7000000000000001,190.3268559180249L0.9712500000000001,173.25433059851036L1.346625,154.09542250319217L1.868125,148.179702403261L2.590875,146.59895376780656L3.5936250000000003,144.10855257041342L4.984,134.51593471651265L6.9125,123.25878812654906L9.586500000000001,123.41348121077813L13.296500000000002,117.67782544701844L18.440625,108.01864917814413L25.57625,99.42674852339644L35.4725,89.3621899989619L49.19775,82.575846011263L68.233375,70.96411664043087L94.633875,61.42237232609349L131.25,47.80156969836985L244.99999999999997,30.6843550522784L350,19.656313161218435" stroke="#4c78a8" stroke-width="3"/></g></g><path class="foreground" aria-hidden="true" d="" display="none"/></g></g><g class="mark-symbol role-mark child_layer_3_marks" role="graphics-symbol" aria-roledescription="symbol mark container"><path transform="translate(0.2625,236.72741146815378)" d="M3.872983346207417,0A3.872983346207417,3.872983346207417,0,1,1,-3.872983346207417,0A3.872983346207417,3.872983346207417,0,1,1,3.872983346207417,0" fill="#4c78a8" stroke-width="2" opacity="0.7"/><path transform="translate(0.364,206.60553110861653)" d="M3.872983346207417,0A3.872983346207417,3.872983346207417,0,1,1,-3.872983346207417,0A3.872983346207417,3.872983346207417,0,1,1,3.872983346207417,0" fill="#4c78a8" stroke-width="2" opacity="0.7"/><path transform="translate(0.504875,213.97506112736207)" d="M3.872983346207417,0A3.872983346207417,3.872983346207417,0,1,1,-3.872983346207417,0A3.872983346207417,3.872983346207417,0,1,1,3.872983346207417,0" fill="#4c78a8" stroke-width="2" opacity="0.7"/><path transform="translate(0.7000000000000001,190.3268559180249)" d="M3.872983346207417,0A3.872983346207417,3.872983346207417,0,1,1,-3.872983346207417,0A3.872983346207417,3.872983346207417,0,1,1,3.872983346207417,0" fill="#4c78a8" stroke-width="2" opacity="0.7"/><path transform="translate(0.9712500000000001,173.25433059851036)" d="M3.872983346207417,0A3.872983346207417,3.872983346207417,0,1,1,-3.872983346207417,0A3.872983346207417,3.872983346207417,0,1,1,3.872983346207417,0" fill="#4c78a8" stroke-width="2" opacity="0.7"/><path transform="translate(1.346625,154.09542250319217)" d="M3.872983346207417,0A3.872983346207417,3.872983346207417,0,1,1,-3.872983346207417,0A3.872983346207417,3.872983346207417,0,1,1,3.872983346207417,0" fill="#4c78a8" stroke-width="2" opacity="0.7"/><path transform="translate(1.868125,148.179702403261)" d="M3.872983346207417,0A3.872983346207417,3.872983346207417,0,1,1,-3.872983346207417,0A3.872983346207417,3.872983346207417,0,1,1,3.872983346207417,0" fill="#4c78a8" stroke-width="2" opacity="0.7"/><path transform="translate(2.590875,146.59895376780656)" d="M3.872983346207417,0A3.872983346207417,3.872983346207417,0,1,1,-3.872983346207417,0A3.872983346207417,3.872983346207417,0,1,1,3.872983346207417,0" fill="#4c78a8" stroke-width="2" opacity="0.7"/><path transform="translate(3.5936250000000003,144.10855257041342)" d="M3.872983346207417,0A3.872983346207417,3.872983346207417,0,1,1,-3.872983346207417,0A3.872983346207417,3.872983346207417,0,1,1,3.872983346207417,0" fill="#4c78a8" stroke-width="2" opacity="0.7"/><path transform="translate(4.984,134.51593471651265)" d="M3.872983346207417,0A3.872983346207417,3.872983346207417,0,1,1,-3.872983346207417,0A3.872983346207417,3.872983346207417,0,1,1,3.872983346207417,0" fill="#4c78a8" stroke-width="2" opacity="0.7"/><path transform="translate(6.9125,123.25878812654906)" d="M3.872983346207417,0A3.872983346207417,3.872983346207417,0,1,1,-3.872983346207417,0A3.872983346207417,3.872983346207417,0,1,1,3.872983346207417,0" fill="#4c78a8" stroke-width="2" opacity="0.7"/><path transform="translate(9.586500000000001,123.41348121077813)" d="M3.872983346207417,0A3.872983346207417,3.872983346207417,0,1,1,-3.872983346207417,0A3.872983346207417,3.872983346207417,0,1,1,3.872983346207417,0" fill="#4c78a8" stroke-width="2" opacity="0.7"/><path transform="translate(13.296500000000002,117.67782544701844)" d="M3.872983346207417,0A3.872983346207417,3.872983346207417,0,1,1,-3.872983346207417,0A3.872983346207417,3.872983346207417,0,1,1,3.872983346207417,0" fill="#4c78a8" stroke-width="2" opacity="0.7"/><path transform="translate(18.440625,108.01864917814413)" d="M3.872983346207417,0A3.872983346207417,3.872983346207417,0,1,1,-3.872983346207417,0A3.872983346207417,3.872983346207417,0,1,1,3.872983346207417,0" fill="#4c78a8" stroke-width="2" opacity="0.7"/><path transform="translate(25.57625,99.42674852339644)" d="M3.872983346207417,0A3.872983346207417,3.872983346207417,0,1,1,-3.872983346207417,0A3.872983346207417,3.872983346207417,0,1,1,3.872983346207417,0" fill="#4c78a8" stroke-width="2" opacity="0.7"/><path transform="translate(35.4725,89.3621899989619)" d="M3.872983346207417,0A3.872983346207417,3.872983346207417,0,1,1,-3.872983346207417,0A3.872983346207417,3.872983346207417,0,1,1,3.872983346207417,0" fill="#4c78a8" stroke-width="2" opacity="0.7"/><path transform="translate(49.19775,82.575846011263)" d="M3.872983346207417,0A3.872983346207417,3.872983346207417,0,1,1,-3.872983346207417,0A3.872983346207417,3.872983346207417,0,1,1,3.872983346207417,0" fill="#4c78a8" stroke-width="2" opacity="0.7"/><path transform="translate(68.233375,70.96411664043087)" d="M3.872983346207417,0A3.872983346207417,3.872983346207417,0,1,1,-3.872983346207417,0A3.872983346207417,3.872983346207417,0,1,1,3.872983346207417,0" fill="#4c78a8" stroke-width="2" opacity="0.7"/><path transform="translate(94.633875,61.42237232609349)" d="M3.872983346207417,0A3.872983346207417,3.872983346207417,0,1,1,-3.872983346207417,0A3.872983346207417,3.872983346207417,0,1,1,3.872983346207417,0" fill="#4c78a8" stroke-width="2" opacity="0.7"/><path transform="translate(131.25,47.80156969836985)" d="M3.872983346207417,0A3.872983346207417,3.872983346207417,0,1,1,-3.872983346207417,0A3.872983346207417,3.872983346207417,0,1,1,3.872983346207417,0" fill="#4c78a8" stroke-width="2" opacity="0.7"/><path transform="translate(244.99999999999997,30.6843550522784)" d="M3.872983346207417,0A3.872983346207417,3.872983346207417,0,1,1,-3.872983346207417,0A3.872983346207417,3.872983346207417,0,1,1,3.872983346207417,0" fill="#4c78a8" stroke-width="2" opacity="0.7"/><path transform="translate(350,19.656313161218435)" d="M3.872983346207417,0A3.872983346207417,3.872983346207417,0,1,1,-3.872983346207417,0A3.872983346207417,3.872983346207417,0,1,1,3.872983346207417,0" fill="#4c78a8" stroke-width="2" opacity="0.7"/></g><g class="mark-group role-title"><g transform="translate(175,-25)"><path class="background" aria-hidden="true" d="M0,0h0v0h0Z" pointer-events="none"/><g><g class="mark-text role-title-text" role="graphics-symbol" aria-roledescription="title" aria-label="Title text 'morgan_feat'" pointer-events="none"><text text-anchor="middle" transform="translate(0,12)" font-family="sans-serif" font-size="15px" fill="#000" opacity="1">morgan_feat</text></g></g><path class="foreground" aria-hidden="true" d="" pointer-events="none" display="none"/></g></g></g><path class="foreground" aria-hidden="true" d="" display="none"/></g></g><g class="mark-group role-legend" role="graphics-symbol" aria-roledescription="legend" aria-label="Symbol legend titled 'Estimator' for fill color and stroke color with 1 value: logregl2_1"><g transform="translate(391,0)"><path class="background" aria-hidden="true" d="M0,0h63v29h-63Z" pointer-events="none"/><g><g class="mark-group role-legend-entry"><g transform="translate(0,16)"><path class="background" aria-hidden="true" d="M0,0h0v0h0Z" pointer-events="none"/><g><g class="mark-group role-scope" role="graphics-object" aria-roledescription="group mark container"><g transform="translate(0,0)"><path class="background" aria-hidden="true" d="M0,0h62.766666412353516v12.5h-62.766666412353516Z" pointer-events="none" opacity="1"/><g><g class="mark-symbol role-legend-symbol" pointer-events="none"><path transform="translate(6,6)" d="M5,0A5,5,0,1,1,-5,0A5,5,0,1,1,5,0" fill="#4c78a8" stroke="#4c78a8" stroke-width="1.5" opacity="0.7"/></g><g class="mark-text role-legend-label" pointer-events="none"><text text-anchor="start" transform="translate(16,9)" font-family="sans-serif" font-size="10px" fill="#000" opacity="1">logregl2_1</text></g></g><path class="foreground" aria-hidden="true" d="" pointer-events="none" display="none"/></g></g></g><path class="foreground" aria-hidden="true" d="" pointer-events="none" display="none"/></g></g><g class="mark-text role-legend-title" pointer-events="none"><text text-anchor="start" transform="translate(0,9)" font-family="sans-serif" font-size="11px" font-weight="bold" fill="#000" opacity="1">Estimator</text></g></g><path class="foreground" aria-hidden="true" d="" pointer-events="none" display="none"/></g></g></g><path class="foreground" aria-hidden="true" d="" display="none"/></g></g></g></svg>